<svg width="311" height="232" viewBox="0 0 311 232" fill="none" xmlns="http://www.w3.org/2000/svg">
<path d="M310.5 203.656H0.5V203.811H310.5V203.656Z" fill="#EBEBEB"/>
<path d="M279.438 213.637H258.903V213.792H279.438V213.637Z" fill="#EBEBEB"/>
<path d="M205.856 215.32H200.467V215.475H205.856V215.32Z" fill="#EBEBEB"/>
<path d="M258.282 207.879H246.383V208.034H258.282V207.879Z" fill="#EBEBEB"/>
<path d="M59.8041 208.922H33.0244V209.077H59.8041V208.922Z" fill="#EBEBEB"/>
<path d="M69.2512 208.922H65.3247V209.077H69.2512V208.922Z" fill="#EBEBEB"/>
<path d="M140.091 211.539H82.0122V211.694H140.091V211.539Z" fill="#EBEBEB"/>
<path d="M147.449 176.006H27.7274C25.7763 176.006 24.1885 174.419 24.1885 172.467V4.17959C24.1885 2.22845 25.7763 0.640625 27.7274 0.640625H147.449C149.399 0.640625 150.987 2.22845 150.987 4.17959V172.467C150.987 174.419 149.399 176.006 147.449 176.006ZM27.7274 0.796245C25.8612 0.796245 24.3435 2.314 24.3435 4.1802V172.468C24.3435 174.334 25.8612 175.852 27.7274 175.852H147.449C149.314 175.852 150.832 174.334 150.832 172.468V4.17959C150.832 2.31401 149.314 0.795625 147.449 0.795625L27.7274 0.796245Z" fill="#EBEBEB"/>
<path d="M281.552 176.006H161.831C159.88 176.006 158.293 174.419 158.293 172.467V4.17959C158.293 2.22845 159.881 0.640625 161.831 0.640625H281.552C283.504 0.640625 285.091 2.22845 285.091 4.17959V172.467C285.092 174.419 283.504 176.006 281.552 176.006ZM161.831 0.796245C159.966 0.796245 158.448 2.314 158.448 4.1802V172.468C158.448 174.334 159.966 175.852 161.831 175.852H281.552C283.418 175.852 284.936 174.334 284.936 172.468V4.17959C284.936 2.31401 283.418 0.795625 281.552 0.795625L161.831 0.796245Z" fill="#EBEBEB"/>
<path d="M234.105 32.375H75.3687V163.445H234.105V32.375Z" fill="#F5F5F5"/>
<path d="M231.558 35.1523H75.3687V160.775H231.558V35.1523Z" fill="#FAFAFA"/>
<path d="M230.405 125.039V80.6554H225.794V74.7933L215.418 69.9399V63.9396H213.689V80.6554H211.96V125.039H209.654V101.983H204.466V89.8779H202.737V125.039H198.702V111.782H195.82V108.324H189.48V96.2186H186.021V88.1487H181.986V76.0438H180.257V88.1487H176.222V96.2186H172.764V108.324H166.423V111.782H163.541V125.039H160.082V108.324H153.742V71.4329H152.012V67.3979H138.179V71.4329H135.297V97.9478H123.768V100.83H119.733V102.559H123.768V112.934H111.663V78.3496H109.358V71.4329H103.594V44.918H101.864V71.4329H97.8294V78.3496H75.3687V160.777H231.558V125.039H230.405Z" fill="#F0F0F0"/>
<path d="M89.0037 80.1562H87.3706V81.7893H89.0037V80.1562Z" fill="#F5F5F5"/>
<path d="M89.0037 82.8945H87.3706V84.5276H89.0037V82.8945Z" fill="#F5F5F5"/>
<path d="M89.0037 93.8477H87.3706V95.4807H89.0037V93.8477Z" fill="#F5F5F5"/>
<path d="M89.0037 96.582H87.3706V98.2151H89.0037V96.582Z" fill="#F5F5F5"/>
<path d="M89.0037 99.3203H87.3706V100.953H89.0037V99.3203Z" fill="#F5F5F5"/>
<path d="M89.0037 107.535H87.3706V109.168H89.0037V107.535Z" fill="#F5F5F5"/>
<path d="M89.0037 110.273H87.3706V111.907H89.0037V110.273Z" fill="#F5F5F5"/>
<path d="M91.5979 91.1094H89.9648V92.7425H91.5979V91.1094Z" fill="#F5F5F5"/>
<path d="M91.5979 93.8477H89.9648V95.4807H91.5979V93.8477Z" fill="#F5F5F5"/>
<path d="M91.5979 96.582H89.9648V98.2151H91.5979V96.582Z" fill="#F5F5F5"/>
<path d="M91.5979 99.3203H89.9648V100.953H91.5979V99.3203Z" fill="#F5F5F5"/>
<path d="M91.5979 102.059H89.9648V103.692H91.5979V102.059Z" fill="#F5F5F5"/>
<path d="M91.5979 107.535H89.9648V109.168H91.5979V107.535Z" fill="#F5F5F5"/>
<path d="M91.5979 110.273H89.9648V111.907H91.5979V110.273Z" fill="#F5F5F5"/>
<path d="M94.1912 80.1562H92.5581V81.7893H94.1912V80.1562Z" fill="#F5F5F5"/>
<path d="M94.1912 82.8945H92.5581V84.5276H94.1912V82.8945Z" fill="#F5F5F5"/>
<path d="M94.1912 85.6328H92.5581V87.2659H94.1912V85.6328Z" fill="#F5F5F5"/>
<path d="M94.1912 88.3711H92.5581V90.0042H94.1912V88.3711Z" fill="#F5F5F5"/>
<path d="M94.1912 91.1094H92.5581V92.7425H94.1912V91.1094Z" fill="#F5F5F5"/>
<path d="M94.1912 93.8477H92.5581V95.4807H94.1912V93.8477Z" fill="#F5F5F5"/>
<path d="M94.1912 96.582H92.5581V98.2151H94.1912V96.582Z" fill="#F5F5F5"/>
<path d="M94.1912 99.3203H92.5581V100.953H94.1912V99.3203Z" fill="#F5F5F5"/>
<path d="M94.1912 102.059H92.5581V103.692H94.1912V102.059Z" fill="#F5F5F5"/>
<path d="M94.1912 104.797H92.5581V106.43H94.1912V104.797Z" fill="#F5F5F5"/>
<path d="M94.1912 110.273H92.5581V111.907H94.1912V110.273Z" fill="#F5F5F5"/>
<path d="M96.7854 80.1562H95.1523V81.7893H96.7854V80.1562Z" fill="#F5F5F5"/>
<path d="M96.7854 82.8945H95.1523V84.5276H96.7854V82.8945Z" fill="#F5F5F5"/>
<path d="M96.7854 85.6328H95.1523V87.2659H96.7854V85.6328Z" fill="#F5F5F5"/>
<path d="M96.7854 88.3711H95.1523V90.0042H96.7854V88.3711Z" fill="#F5F5F5"/>
<path d="M96.7854 91.1094H95.1523V92.7425H96.7854V91.1094Z" fill="#F5F5F5"/>
<path d="M96.7854 93.8477H95.1523V95.4807H96.7854V93.8477Z" fill="#F5F5F5"/>
<path d="M96.7854 96.582H95.1523V98.2151H96.7854V96.582Z" fill="#F5F5F5"/>
<path d="M96.7854 121.227H95.1523V122.86H96.7854V121.227Z" fill="#F5F5F5"/>
<path d="M99.3792 80.1562H97.7461V81.7893H99.3792V80.1562Z" fill="#F5F5F5"/>
<path d="M99.3792 82.8945H97.7461V84.5276H99.3792V82.8945Z" fill="#F5F5F5"/>
<path d="M99.3792 85.6328H97.7461V87.2659H99.3792V85.6328Z" fill="#F5F5F5"/>
<path d="M99.3792 88.3711H97.7461V90.0042H99.3792V88.3711Z" fill="#F5F5F5"/>
<path d="M99.3792 91.1094H97.7461V92.7425H99.3792V91.1094Z" fill="#F5F5F5"/>
<path d="M99.3792 93.8477H97.7461V95.4807H99.3792V93.8477Z" fill="#F5F5F5"/>
<path d="M99.3792 96.582H97.7461V98.2151H99.3792V96.582Z" fill="#F5F5F5"/>
<path d="M99.3792 99.3203H97.7461V100.953H99.3792V99.3203Z" fill="#F5F5F5"/>
<path d="M99.3792 115.75H97.7461V117.383H99.3792V115.75Z" fill="#F5F5F5"/>
<path d="M99.3792 118.488H97.7461V120.121H99.3792V118.488Z" fill="#F5F5F5"/>
<path d="M99.3792 121.227H97.7461V122.86H99.3792V121.227Z" fill="#F5F5F5"/>
<path d="M99.3792 123.965H97.7461V125.598H99.3792V123.965Z" fill="#F5F5F5"/>
<path d="M99.3792 134.914H97.7461V136.547H99.3792V134.914Z" fill="#F5F5F5"/>
<path d="M101.973 80.1562H100.34V81.7893H101.973V80.1562Z" fill="#F5F5F5"/>
<path d="M101.973 82.8945H100.34V84.5276H101.973V82.8945Z" fill="#F5F5F5"/>
<path d="M101.973 85.6328H100.34V87.2659H101.973V85.6328Z" fill="#F5F5F5"/>
<path d="M101.973 88.3711H100.34V90.0042H101.973V88.3711Z" fill="#F5F5F5"/>
<path d="M101.973 91.1094H100.34V92.7425H101.973V91.1094Z" fill="#F5F5F5"/>
<path d="M101.973 93.8477H100.34V95.4807H101.973V93.8477Z" fill="#F5F5F5"/>
<path d="M101.973 96.582H100.34V98.2151H101.973V96.582Z" fill="#F5F5F5"/>
<path d="M101.973 99.3203H100.34V100.953H101.973V99.3203Z" fill="#F5F5F5"/>
<path d="M101.973 102.059H100.34V103.692H101.973V102.059Z" fill="#F5F5F5"/>
<path d="M101.973 104.797H100.34V106.43H101.973V104.797Z" fill="#F5F5F5"/>
<path d="M101.973 113.012H100.34V114.645H101.973V113.012Z" fill="#F5F5F5"/>
<path d="M101.973 115.75H100.34V117.383H101.973V115.75Z" fill="#F5F5F5"/>
<path d="M101.973 118.488H100.34V120.121H101.973V118.488Z" fill="#F5F5F5"/>
<path d="M101.973 121.227H100.34V122.86H101.973V121.227Z" fill="#F5F5F5"/>
<path d="M101.973 123.965H100.34V125.598H101.973V123.965Z" fill="#F5F5F5"/>
<path d="M101.973 134.914H100.34V136.547H101.973V134.914Z" fill="#F5F5F5"/>
<path d="M104.567 80.1562H102.934V81.7893H104.567V80.1562Z" fill="#F5F5F5"/>
<path d="M104.567 82.8945H102.934V84.5276H104.567V82.8945Z" fill="#F5F5F5"/>
<path d="M104.567 85.6328H102.934V87.2659H104.567V85.6328Z" fill="#F5F5F5"/>
<path d="M104.567 88.3711H102.934V90.0042H104.567V88.3711Z" fill="#F5F5F5"/>
<path d="M104.567 91.1094H102.934V92.7425H104.567V91.1094Z" fill="#F5F5F5"/>
<path d="M104.567 93.8477H102.934V95.4807H104.567V93.8477Z" fill="#F5F5F5"/>
<path d="M104.567 96.582H102.934V98.2151H104.567V96.582Z" fill="#F5F5F5"/>
<path d="M104.567 99.3203H102.934V100.953H104.567V99.3203Z" fill="#F5F5F5"/>
<path d="M104.567 102.059H102.934V103.692H104.567V102.059Z" fill="#F5F5F5"/>
<path d="M104.567 104.797H102.934V106.43H104.567V104.797Z" fill="#F5F5F5"/>
<path d="M104.567 107.535H102.934V109.168H104.567V107.535Z" fill="#F5F5F5"/>
<path d="M104.567 110.273H102.934V111.907H104.567V110.273Z" fill="#F5F5F5"/>
<path d="M104.567 113.012H102.934V114.645H104.567V113.012Z" fill="#F5F5F5"/>
<path d="M104.567 115.75H102.934V117.383H104.567V115.75Z" fill="#F5F5F5"/>
<path d="M104.567 118.488H102.934V120.121H104.567V118.488Z" fill="#F5F5F5"/>
<path d="M104.567 121.227H102.934V122.86H104.567V121.227Z" fill="#F5F5F5"/>
<path d="M104.567 123.965H102.934V125.598H104.567V123.965Z" fill="#F5F5F5"/>
<path d="M104.567 126.703H102.934V128.336H104.567V126.703Z" fill="#F5F5F5"/>
<path d="M107.161 80.1562H105.528V81.7893H107.161V80.1562Z" fill="#F5F5F5"/>
<path d="M107.161 82.8945H105.528V84.5276H107.161V82.8945Z" fill="#F5F5F5"/>
<path d="M107.161 85.6328H105.528V87.2659H107.161V85.6328Z" fill="#F5F5F5"/>
<path d="M107.161 88.3711H105.528V90.0042H107.161V88.3711Z" fill="#F5F5F5"/>
<path d="M107.161 91.1094H105.528V92.7425H107.161V91.1094Z" fill="#F5F5F5"/>
<path d="M107.161 93.8477H105.528V95.4807H107.161V93.8477Z" fill="#F5F5F5"/>
<path d="M107.161 96.582H105.528V98.2151H107.161V96.582Z" fill="#F5F5F5"/>
<path d="M107.161 99.3203H105.528V100.953H107.161V99.3203Z" fill="#F5F5F5"/>
<path d="M107.161 102.059H105.528V103.692H107.161V102.059Z" fill="#F5F5F5"/>
<path d="M107.161 104.797H105.528V106.43H107.161V104.797Z" fill="#F5F5F5"/>
<path d="M107.161 113.012H105.528V114.645H107.161V113.012Z" fill="#F5F5F5"/>
<path d="M107.161 115.75H105.528V117.383H107.161V115.75Z" fill="#F5F5F5"/>
<path d="M107.161 118.488H105.528V120.121H107.161V118.488Z" fill="#F5F5F5"/>
<path d="M107.161 121.227H105.528V122.86H107.161V121.227Z" fill="#F5F5F5"/>
<path d="M109.755 80.1562H108.122V81.7893H109.755V80.1562Z" fill="#F5F5F5"/>
<path d="M109.755 82.8945H108.122V84.5276H109.755V82.8945Z" fill="#F5F5F5"/>
<path d="M109.755 85.6328H108.122V87.2659H109.755V85.6328Z" fill="#F5F5F5"/>
<path d="M109.755 88.3711H108.122V90.0042H109.755V88.3711Z" fill="#F5F5F5"/>
<path d="M109.755 91.1094H108.122V92.7425H109.755V91.1094Z" fill="#F5F5F5"/>
<path d="M109.755 93.8477H108.122V95.4807H109.755V93.8477Z" fill="#F5F5F5"/>
<path d="M109.755 96.582H108.122V98.2151H109.755V96.582Z" fill="#F5F5F5"/>
<path d="M109.755 99.3203H108.122V100.953H109.755V99.3203Z" fill="#F5F5F5"/>
<path d="M109.755 102.059H108.122V103.692H109.755V102.059Z" fill="#F5F5F5"/>
<path d="M109.755 104.797H108.122V106.43H109.755V104.797Z" fill="#F5F5F5"/>
<path d="M109.755 113.012H108.122V114.645H109.755V113.012Z" fill="#F5F5F5"/>
<path d="M109.755 115.75H108.122V117.383H109.755V115.75Z" fill="#F5F5F5"/>
<path d="M109.755 118.488H108.122V120.121H109.755V118.488Z" fill="#F5F5F5"/>
<path d="M138.96 73.0469H137.327V74.68H138.96V73.0469Z" fill="#F5F5F5"/>
<path d="M138.96 75.7852H137.327V77.4182H138.96V75.7852Z" fill="#F5F5F5"/>
<path d="M138.96 78.5234H137.327V80.1565H138.96V78.5234Z" fill="#F5F5F5"/>
<path d="M138.96 81.2617H137.327V82.8948H138.96V81.2617Z" fill="#F5F5F5"/>
<path d="M138.96 84H137.327V85.6331H138.96V84Z" fill="#F5F5F5"/>
<path d="M138.96 86.7383H137.327V88.3714H138.96V86.7383Z" fill="#F5F5F5"/>
<path d="M138.96 89.4727H137.327V91.1057H138.96V89.4727Z" fill="#F5F5F5"/>
<path d="M138.96 92.2109H137.327V93.844H138.96V92.2109Z" fill="#F5F5F5"/>
<path d="M138.96 100.426H137.327V102.059H138.96V100.426Z" fill="#F5F5F5"/>
<path d="M138.96 103.164H137.327V104.797H138.96V103.164Z" fill="#F5F5F5"/>
<path d="M141.554 73.0469H139.921V74.68H141.554V73.0469Z" fill="#F5F5F5"/>
<path d="M141.554 75.7852H139.921V77.4182H141.554V75.7852Z" fill="#F5F5F5"/>
<path d="M141.554 78.5234H139.921V80.1565H141.554V78.5234Z" fill="#F5F5F5"/>
<path d="M141.554 81.2617H139.921V82.8948H141.554V81.2617Z" fill="#F5F5F5"/>
<path d="M141.554 84H139.921V85.6331H141.554V84Z" fill="#F5F5F5"/>
<path d="M141.554 86.7383H139.921V88.3714H141.554V86.7383Z" fill="#F5F5F5"/>
<path d="M141.554 89.4727H139.921V91.1057H141.554V89.4727Z" fill="#F5F5F5"/>
<path d="M141.554 92.2109H139.921V93.844H141.554V92.2109Z" fill="#F5F5F5"/>
<path d="M141.554 103.164H139.921V104.797H141.554V103.164Z" fill="#F5F5F5"/>
<path d="M144.147 73.0469H142.514V74.68H144.147V73.0469Z" fill="#F5F5F5"/>
<path d="M144.147 75.7852H142.514V77.4182H144.147V75.7852Z" fill="#F5F5F5"/>
<path d="M144.147 78.5234H142.514V80.1565H144.147V78.5234Z" fill="#F5F5F5"/>
<path d="M144.147 81.2617H142.514V82.8948H144.147V81.2617Z" fill="#F5F5F5"/>
<path d="M144.147 84H142.514V85.6331H144.147V84Z" fill="#F5F5F5"/>
<path d="M144.147 86.7383H142.514V88.3714H144.147V86.7383Z" fill="#F5F5F5"/>
<path d="M144.147 89.4727H142.514V91.1057H144.147V89.4727Z" fill="#F5F5F5"/>
<path d="M144.147 92.2109H142.514V93.844H144.147V92.2109Z" fill="#F5F5F5"/>
<path d="M146.741 73.0469H145.108V74.68H146.741V73.0469Z" fill="#F5F5F5"/>
<path d="M146.741 75.7852H145.108V77.4182H146.741V75.7852Z" fill="#F5F5F5"/>
<path d="M146.741 78.5234H145.108V80.1565H146.741V78.5234Z" fill="#F5F5F5"/>
<path d="M146.741 81.2617H145.108V82.8948H146.741V81.2617Z" fill="#F5F5F5"/>
<path d="M146.741 84H145.108V85.6331H146.741V84Z" fill="#F5F5F5"/>
<path d="M146.741 86.7383H145.108V88.3714H146.741V86.7383Z" fill="#F5F5F5"/>
<path d="M146.741 92.2109H145.108V93.844H146.741V92.2109Z" fill="#F5F5F5"/>
<path d="M146.741 94.9492H145.108V96.5823H146.741V94.9492Z" fill="#F5F5F5"/>
<path d="M146.741 103.164H145.108V104.797H146.741V103.164Z" fill="#F5F5F5"/>
<path d="M146.741 105.902H145.108V107.535H146.741V105.902Z" fill="#F5F5F5"/>
<path d="M146.741 108.641H145.108V110.274H146.741V108.641Z" fill="#F5F5F5"/>
<path d="M146.741 111.379H145.108V113.012H146.741V111.379Z" fill="#F5F5F5"/>
<path d="M146.741 114.117H145.108V115.75H146.741V114.117Z" fill="#F5F5F5"/>
<path d="M146.741 116.855H145.108V118.489H146.741V116.855Z" fill="#F5F5F5"/>
<path d="M146.741 119.594H145.108V121.227H146.741V119.594Z" fill="#F5F5F5"/>
<path d="M149.335 73.0469H147.702V74.68H149.335V73.0469Z" fill="#F5F5F5"/>
<path d="M149.335 75.7852H147.702V77.4182H149.335V75.7852Z" fill="#F5F5F5"/>
<path d="M149.335 78.5234H147.702V80.1565H149.335V78.5234Z" fill="#F5F5F5"/>
<path d="M149.335 81.2617H147.702V82.8948H149.335V81.2617Z" fill="#F5F5F5"/>
<path d="M149.335 84H147.702V85.6331H149.335V84Z" fill="#F5F5F5"/>
<path d="M149.335 86.7383H147.702V88.3714H149.335V86.7383Z" fill="#F5F5F5"/>
<path d="M149.335 94.9492H147.702V96.5823H149.335V94.9492Z" fill="#F5F5F5"/>
<path d="M149.335 97.6875H147.702V99.3206H149.335V97.6875Z" fill="#F5F5F5"/>
<path d="M149.335 100.426H147.702V102.059H149.335V100.426Z" fill="#F5F5F5"/>
<path d="M149.335 103.164H147.702V104.797H149.335V103.164Z" fill="#F5F5F5"/>
<path d="M149.335 105.902H147.702V107.535H149.335V105.902Z" fill="#F5F5F5"/>
<path d="M149.335 108.641H147.702V110.274H149.335V108.641Z" fill="#F5F5F5"/>
<path d="M149.335 111.379H147.702V113.012H149.335V111.379Z" fill="#F5F5F5"/>
<path d="M149.335 114.117H147.702V115.75H149.335V114.117Z" fill="#F5F5F5"/>
<path d="M149.335 116.855H147.702V118.489H149.335V116.855Z" fill="#F5F5F5"/>
<path d="M149.335 119.594H147.702V121.227H149.335V119.594Z" fill="#F5F5F5"/>
<path d="M149.335 122.328H147.702V123.961H149.335V122.328Z" fill="#F5F5F5"/>
<path d="M149.335 127.805H147.702V129.438H149.335V127.805Z" fill="#F5F5F5"/>
<path d="M151.929 73.0469H150.296V74.68H151.929V73.0469Z" fill="#F5F5F5"/>
<path d="M151.929 75.7852H150.296V77.4182H151.929V75.7852Z" fill="#F5F5F5"/>
<path d="M151.929 78.5234H150.296V80.1565H151.929V78.5234Z" fill="#F5F5F5"/>
<path d="M151.929 81.2617H150.296V82.8948H151.929V81.2617Z" fill="#F5F5F5"/>
<path d="M151.929 84H150.296V85.6331H151.929V84Z" fill="#F5F5F5"/>
<path d="M151.929 86.7383H150.296V88.3714H151.929V86.7383Z" fill="#F5F5F5"/>
<path d="M151.929 94.9492H150.296V96.5823H151.929V94.9492Z" fill="#F5F5F5"/>
<path d="M151.929 97.6875H150.296V99.3206H151.929V97.6875Z" fill="#F5F5F5"/>
<path d="M151.929 100.426H150.296V102.059H151.929V100.426Z" fill="#F5F5F5"/>
<path d="M151.929 103.164H150.296V104.797H151.929V103.164Z" fill="#F5F5F5"/>
<path d="M151.929 111.379H150.296V113.012H151.929V111.379Z" fill="#F5F5F5"/>
<path d="M151.929 114.117H150.296V115.75H151.929V114.117Z" fill="#F5F5F5"/>
<path d="M151.929 116.855H150.296V118.489H151.929V116.855Z" fill="#F5F5F5"/>
<path d="M151.929 119.594H150.296V121.227H151.929V119.594Z" fill="#F5F5F5"/>
<path d="M151.929 122.328H150.296V123.961H151.929V122.328Z" fill="#F5F5F5"/>
<path d="M151.929 127.805H150.296V129.438H151.929V127.805Z" fill="#F5F5F5"/>
<path d="M151.929 130.543H150.296V132.176H151.929V130.543Z" fill="#F5F5F5"/>
<path d="M175.466 98.5039H173.833V100.137H175.466V98.5039Z" fill="#F5F5F5"/>
<path d="M175.466 101.242H173.833V102.875H175.466V101.242Z" fill="#F5F5F5"/>
<path d="M175.466 103.98H173.833V105.614H175.466V103.98Z" fill="#F5F5F5"/>
<path d="M175.466 106.719H173.833V108.352H175.466V106.719Z" fill="#F5F5F5"/>
<path d="M175.466 109.457H173.833V111.09H175.466V109.457Z" fill="#F5F5F5"/>
<path d="M175.466 112.195H173.833V113.828H175.466V112.195Z" fill="#F5F5F5"/>
<path d="M175.466 114.934H173.833V116.567H175.466V114.934Z" fill="#F5F5F5"/>
<path d="M175.466 123.148H173.833V124.782H175.466V123.148Z" fill="#F5F5F5"/>
<path d="M175.466 125.887H173.833V127.52H175.466V125.887Z" fill="#F5F5F5"/>
<path d="M175.466 128.625H173.833V130.258H175.466V128.625Z" fill="#F5F5F5"/>
<path d="M178.06 98.5039H176.427V100.137H178.06V98.5039Z" fill="#F5F5F5"/>
<path d="M178.06 101.242H176.427V102.875H178.06V101.242Z" fill="#F5F5F5"/>
<path d="M178.06 103.98H176.427V105.614H178.06V103.98Z" fill="#F5F5F5"/>
<path d="M178.06 106.719H176.427V108.352H178.06V106.719Z" fill="#F5F5F5"/>
<path d="M178.06 109.457H176.427V111.09H178.06V109.457Z" fill="#F5F5F5"/>
<path d="M178.06 112.195H176.427V113.828H178.06V112.195Z" fill="#F5F5F5"/>
<path d="M178.06 114.934H176.427V116.567H178.06V114.934Z" fill="#F5F5F5"/>
<path d="M180.654 98.5039H179.021V100.137H180.654V98.5039Z" fill="#F5F5F5"/>
<path d="M180.654 101.242H179.021V102.875H180.654V101.242Z" fill="#F5F5F5"/>
<path d="M180.654 103.98H179.021V105.614H180.654V103.98Z" fill="#F5F5F5"/>
<path d="M180.654 106.719H179.021V108.352H180.654V106.719Z" fill="#F5F5F5"/>
<path d="M180.654 109.457H179.021V111.09H180.654V109.457Z" fill="#F5F5F5"/>
<path d="M180.654 112.195H179.021V113.828H180.654V112.195Z" fill="#F5F5F5"/>
<path d="M180.654 114.934H179.021V116.567H180.654V114.934Z" fill="#F5F5F5"/>
<path d="M183.248 98.5039H181.615V100.137H183.248V98.5039Z" fill="#F5F5F5"/>
<path d="M183.248 101.242H181.615V102.875H183.248V101.242Z" fill="#F5F5F5"/>
<path d="M183.248 103.98H181.615V105.614H183.248V103.98Z" fill="#F5F5F5"/>
<path d="M183.248 106.719H181.615V108.352H183.248V106.719Z" fill="#F5F5F5"/>
<path d="M183.248 109.457H181.615V111.09H183.248V109.457Z" fill="#F5F5F5"/>
<path d="M183.248 112.195H181.615V113.828H183.248V112.195Z" fill="#F5F5F5"/>
<path d="M183.248 114.934H181.615V116.567H183.248V114.934Z" fill="#F5F5F5"/>
<path d="M183.248 117.672H181.615V119.305H183.248V117.672Z" fill="#F5F5F5"/>
<path d="M183.248 120.41H181.615V122.043H183.248V120.41Z" fill="#F5F5F5"/>
<path d="M183.248 123.148H181.615V124.782H183.248V123.148Z" fill="#F5F5F5"/>
<path d="M183.248 125.887H181.615V127.52H183.248V125.887Z" fill="#F5F5F5"/>
<path d="M185.842 98.5039H184.208V100.137H185.842V98.5039Z" fill="#F5F5F5"/>
<path d="M185.842 101.242H184.208V102.875H185.842V101.242Z" fill="#F5F5F5"/>
<path d="M185.842 103.98H184.208V105.614H185.842V103.98Z" fill="#F5F5F5"/>
<path d="M185.842 106.719H184.208V108.352H185.842V106.719Z" fill="#F5F5F5"/>
<path d="M185.842 109.457H184.208V111.09H185.842V109.457Z" fill="#F5F5F5"/>
<path d="M185.842 112.195H184.208V113.828H185.842V112.195Z" fill="#F5F5F5"/>
<path d="M185.842 114.934H184.208V116.567H185.842V114.934Z" fill="#F5F5F5"/>
<path d="M185.842 117.672H184.208V119.305H185.842V117.672Z" fill="#F5F5F5"/>
<path d="M185.842 120.41H184.208V122.043H185.842V120.41Z" fill="#F5F5F5"/>
<path d="M185.842 123.148H184.208V124.782H185.842V123.148Z" fill="#F5F5F5"/>
<path d="M185.842 125.887H184.208V127.52H185.842V125.887Z" fill="#F5F5F5"/>
<path d="M185.842 128.625H184.208V130.258H185.842V128.625Z" fill="#F5F5F5"/>
<path d="M185.842 136.836H184.208V138.469H185.842V136.836Z" fill="#F5F5F5"/>
<path d="M185.842 139.574H184.208V141.207H185.842V139.574Z" fill="#F5F5F5"/>
<path d="M188.435 98.5039H186.802V100.137H188.435V98.5039Z" fill="#F5F5F5"/>
<path d="M188.435 101.242H186.802V102.875H188.435V101.242Z" fill="#F5F5F5"/>
<path d="M188.435 103.98H186.802V105.614H188.435V103.98Z" fill="#F5F5F5"/>
<path d="M188.435 112.195H186.802V113.828H188.435V112.195Z" fill="#F5F5F5"/>
<path d="M188.435 114.934H186.802V116.567H188.435V114.934Z" fill="#F5F5F5"/>
<path d="M188.435 117.672H186.802V119.305H188.435V117.672Z" fill="#F5F5F5"/>
<path d="M188.435 120.41H186.802V122.043H188.435V120.41Z" fill="#F5F5F5"/>
<path d="M188.435 123.148H186.802V124.782H188.435V123.148Z" fill="#F5F5F5"/>
<path d="M188.435 125.887H186.802V127.52H188.435V125.887Z" fill="#F5F5F5"/>
<path d="M188.435 128.625H186.802V130.258H188.435V128.625Z" fill="#F5F5F5"/>
<path d="M188.435 136.836H186.802V138.469H188.435V136.836Z" fill="#F5F5F5"/>
<path d="M188.435 139.574H186.802V141.207H188.435V139.574Z" fill="#F5F5F5"/>
<path d="M188.435 142.312H186.802V143.946H188.435V142.312Z" fill="#F5F5F5"/>
<path d="M215.623 82.0781H213.99V83.7112H215.623V82.0781Z" fill="#F5F5F5"/>
<path d="M215.623 84.8164H213.99V86.4495H215.623V84.8164Z" fill="#F5F5F5"/>
<path d="M215.623 87.5547H213.99V89.1878H215.623V87.5547Z" fill="#F5F5F5"/>
<path d="M215.623 90.2891H213.99V91.9221H215.623V90.2891Z" fill="#F5F5F5"/>
<path d="M215.623 93.0312H213.99V94.6643H215.623V93.0312Z" fill="#F5F5F5"/>
<path d="M215.623 95.7656H213.99V97.3987H215.623V95.7656Z" fill="#F5F5F5"/>
<path d="M215.623 98.5039H213.99V100.137H215.623V98.5039Z" fill="#F5F5F5"/>
<path d="M215.623 101.242H213.99V102.875H215.623V101.242Z" fill="#F5F5F5"/>
<path d="M215.623 103.98H213.99V105.614H215.623V103.98Z" fill="#F5F5F5"/>
<path d="M215.623 106.719H213.99V108.352H215.623V106.719Z" fill="#F5F5F5"/>
<path d="M215.623 109.457H213.99V111.09H215.623V109.457Z" fill="#F5F5F5"/>
<path d="M215.623 112.195H213.99V113.828H215.623V112.195Z" fill="#F5F5F5"/>
<path d="M215.623 114.934H213.99V116.567H215.623V114.934Z" fill="#F5F5F5"/>
<path d="M215.623 117.672H213.99V119.305H215.623V117.672Z" fill="#F5F5F5"/>
<path d="M215.623 120.41H213.99V122.043H215.623V120.41Z" fill="#F5F5F5"/>
<path d="M215.623 123.148H213.99V124.782H215.623V123.148Z" fill="#F5F5F5"/>
<path d="M215.623 125.887H213.99V127.52H215.623V125.887Z" fill="#F5F5F5"/>
<path d="M215.623 128.625H213.99V130.258H215.623V128.625Z" fill="#F5F5F5"/>
<path d="M215.623 131.359H213.99V132.992H215.623V131.359Z" fill="#F5F5F5"/>
<path d="M215.623 134.098H213.99V135.731H215.623V134.098Z" fill="#F5F5F5"/>
<path d="M215.623 136.836H213.99V138.469H215.623V136.836Z" fill="#F5F5F5"/>
<path d="M215.623 139.574H213.99V141.207H215.623V139.574Z" fill="#F5F5F5"/>
<path d="M215.623 142.312H213.99V143.946H215.623V142.312Z" fill="#F5F5F5"/>
<path d="M218.217 82.0781H216.584V83.7112H218.217V82.0781Z" fill="#F5F5F5"/>
<path d="M218.217 84.8164H216.584V86.4495H218.217V84.8164Z" fill="#F5F5F5"/>
<path d="M218.217 87.5547H216.584V89.1878H218.217V87.5547Z" fill="#F5F5F5"/>
<path d="M218.217 90.2891H216.584V91.9221H218.217V90.2891Z" fill="#F5F5F5"/>
<path d="M218.217 93.0312H216.584V94.6643H218.217V93.0312Z" fill="#F5F5F5"/>
<path d="M218.217 95.7656H216.584V97.3987H218.217V95.7656Z" fill="#F5F5F5"/>
<path d="M218.217 98.5039H216.584V100.137H218.217V98.5039Z" fill="#F5F5F5"/>
<path d="M218.217 101.242H216.584V102.875H218.217V101.242Z" fill="#F5F5F5"/>
<path d="M218.217 103.98H216.584V105.614H218.217V103.98Z" fill="#F5F5F5"/>
<path d="M218.217 106.719H216.584V108.352H218.217V106.719Z" fill="#F5F5F5"/>
<path d="M218.217 109.457H216.584V111.09H218.217V109.457Z" fill="#F5F5F5"/>
<path d="M218.217 112.195H216.584V113.828H218.217V112.195Z" fill="#F5F5F5"/>
<path d="M218.217 114.934H216.584V116.567H218.217V114.934Z" fill="#F5F5F5"/>
<path d="M218.217 117.672H216.584V119.305H218.217V117.672Z" fill="#F5F5F5"/>
<path d="M218.217 120.41H216.584V122.043H218.217V120.41Z" fill="#F5F5F5"/>
<path d="M218.217 123.148H216.584V124.782H218.217V123.148Z" fill="#F5F5F5"/>
<path d="M218.217 125.887H216.584V127.52H218.217V125.887Z" fill="#F5F5F5"/>
<path d="M218.217 128.625H216.584V130.258H218.217V128.625Z" fill="#F5F5F5"/>
<path d="M218.217 131.359H216.584V132.992H218.217V131.359Z" fill="#F5F5F5"/>
<path d="M220.81 82.0781H219.177V83.7112H220.81V82.0781Z" fill="#F5F5F5"/>
<path d="M220.81 84.8164H219.177V86.4495H220.81V84.8164Z" fill="#F5F5F5"/>
<path d="M220.81 87.5547H219.177V89.1878H220.81V87.5547Z" fill="#F5F5F5"/>
<path d="M220.81 90.2891H219.177V91.9221H220.81V90.2891Z" fill="#F5F5F5"/>
<path d="M220.81 93.0312H219.177V94.6643H220.81V93.0312Z" fill="#F5F5F5"/>
<path d="M220.81 95.7656H219.177V97.3987H220.81V95.7656Z" fill="#F5F5F5"/>
<path d="M220.81 98.5039H219.177V100.137H220.81V98.5039Z" fill="#F5F5F5"/>
<path d="M220.81 101.242H219.177V102.875H220.81V101.242Z" fill="#F5F5F5"/>
<path d="M220.81 103.98H219.177V105.614H220.81V103.98Z" fill="#F5F5F5"/>
<path d="M220.81 106.719H219.177V108.352H220.81V106.719Z" fill="#F5F5F5"/>
<path d="M220.81 109.457H219.177V111.09H220.81V109.457Z" fill="#F5F5F5"/>
<path d="M220.81 112.195H219.177V113.828H220.81V112.195Z" fill="#F5F5F5"/>
<path d="M220.81 114.934H219.177V116.567H220.81V114.934Z" fill="#F5F5F5"/>
<path d="M220.81 117.672H219.177V119.305H220.81V117.672Z" fill="#F5F5F5"/>
<path d="M220.81 120.41H219.177V122.043H220.81V120.41Z" fill="#F5F5F5"/>
<path d="M220.81 123.148H219.177V124.782H220.81V123.148Z" fill="#F5F5F5"/>
<path d="M220.81 125.887H219.177V127.52H220.81V125.887Z" fill="#F5F5F5"/>
<path d="M220.81 128.625H219.177V130.258H220.81V128.625Z" fill="#F5F5F5"/>
<path d="M220.81 131.359H219.177V132.992H220.81V131.359Z" fill="#F5F5F5"/>
<path d="M223.405 82.0781H221.771V83.7112H223.405V82.0781Z" fill="#F5F5F5"/>
<path d="M223.405 84.8164H221.771V86.4495H223.405V84.8164Z" fill="#F5F5F5"/>
<path d="M223.405 87.5547H221.771V89.1878H223.405V87.5547Z" fill="#F5F5F5"/>
<path d="M223.405 90.2891H221.771V91.9221H223.405V90.2891Z" fill="#F5F5F5"/>
<path d="M223.405 93.0312H221.771V94.6643H223.405V93.0312Z" fill="#F5F5F5"/>
<path d="M223.405 95.7656H221.771V97.3987H223.405V95.7656Z" fill="#F5F5F5"/>
<path d="M223.405 98.5039H221.771V100.137H223.405V98.5039Z" fill="#F5F5F5"/>
<path d="M223.405 101.242H221.771V102.875H223.405V101.242Z" fill="#F5F5F5"/>
<path d="M223.405 103.98H221.771V105.614H223.405V103.98Z" fill="#F5F5F5"/>
<path d="M223.405 106.719H221.771V108.352H223.405V106.719Z" fill="#F5F5F5"/>
<path d="M223.405 109.457H221.771V111.09H223.405V109.457Z" fill="#F5F5F5"/>
<path d="M223.405 112.195H221.771V113.828H223.405V112.195Z" fill="#F5F5F5"/>
<path d="M223.405 114.934H221.771V116.567H223.405V114.934Z" fill="#F5F5F5"/>
<path d="M223.405 117.672H221.771V119.305H223.405V117.672Z" fill="#F5F5F5"/>
<path d="M223.405 120.41H221.771V122.043H223.405V120.41Z" fill="#F5F5F5"/>
<path d="M225.998 82.0781H224.365V83.7112H225.998V82.0781Z" fill="#F5F5F5"/>
<path d="M225.998 84.8164H224.365V86.4495H225.998V84.8164Z" fill="#F5F5F5"/>
<path d="M225.998 87.5547H224.365V89.1878H225.998V87.5547Z" fill="#F5F5F5"/>
<path d="M225.998 90.2891H224.365V91.9221H225.998V90.2891Z" fill="#F5F5F5"/>
<path d="M225.998 93.0312H224.365V94.6643H225.998V93.0312Z" fill="#F5F5F5"/>
<path d="M225.998 95.7656H224.365V97.3987H225.998V95.7656Z" fill="#F5F5F5"/>
<path d="M225.998 98.5039H224.365V100.137H225.998V98.5039Z" fill="#F5F5F5"/>
<path d="M225.998 101.242H224.365V102.875H225.998V101.242Z" fill="#F5F5F5"/>
<path d="M225.998 103.98H224.365V105.614H225.998V103.98Z" fill="#F5F5F5"/>
<path d="M225.998 106.719H224.365V108.352H225.998V106.719Z" fill="#F5F5F5"/>
<path d="M225.998 109.457H224.365V111.09H225.998V109.457Z" fill="#F5F5F5"/>
<path d="M225.998 112.195H224.365V113.828H225.998V112.195Z" fill="#F5F5F5"/>
<path d="M225.998 114.934H224.365V116.567H225.998V114.934Z" fill="#F5F5F5"/>
<path d="M228.592 82.0781H226.959V83.7112H228.592V82.0781Z" fill="#F5F5F5"/>
<path d="M228.592 84.8164H226.959V86.4495H228.592V84.8164Z" fill="#F5F5F5"/>
<path d="M228.592 87.5547H226.959V89.1878H228.592V87.5547Z" fill="#F5F5F5"/>
<path d="M228.592 90.2891H226.959V91.9221H228.592V90.2891Z" fill="#F5F5F5"/>
<path d="M228.592 93.0312H226.959V94.6643H228.592V93.0312Z" fill="#F5F5F5"/>
<path d="M228.592 95.7656H226.959V97.3987H228.592V95.7656Z" fill="#F5F5F5"/>
<path d="M228.592 98.5039H226.959V100.137H228.592V98.5039Z" fill="#F5F5F5"/>
<path d="M228.592 101.242H226.959V102.875H228.592V101.242Z" fill="#F5F5F5"/>
<path d="M228.592 103.98H226.959V105.614H228.592V103.98Z" fill="#F5F5F5"/>
<path d="M228.592 106.719H226.959V108.352H228.592V106.719Z" fill="#F5F5F5"/>
<path d="M228.592 109.457H226.959V111.09H228.592V109.457Z" fill="#F5F5F5"/>
<path d="M228.592 112.195H226.959V113.828H228.592V112.195Z" fill="#F5F5F5"/>
<path d="M77.1873 81.2617H75.5542V82.8948H77.1873V81.2617Z" fill="#F5F5F5"/>
<path d="M77.1873 84H75.5542V85.6331H77.1873V84Z" fill="#F5F5F5"/>
<path d="M77.1873 86.7383H75.5542V88.3714H77.1873V86.7383Z" fill="#F5F5F5"/>
<path d="M77.1873 89.4727H75.5542V91.1057H77.1873V89.4727Z" fill="#F5F5F5"/>
<path d="M77.1873 92.2109H75.5542V93.844H77.1873V92.2109Z" fill="#F5F5F5"/>
<path d="M77.1873 94.9492H75.5542V96.5823H77.1873V94.9492Z" fill="#F5F5F5"/>
<path d="M77.1873 97.6875H75.5542V99.3206H77.1873V97.6875Z" fill="#F5F5F5"/>
<path d="M77.1873 100.426H75.5542V102.059H77.1873V100.426Z" fill="#F5F5F5"/>
<path d="M77.1873 103.164H75.5542V104.797H77.1873V103.164Z" fill="#F5F5F5"/>
<path d="M77.1873 105.902H75.5542V107.535H77.1873V105.902Z" fill="#F5F5F5"/>
<path d="M77.1873 108.641H75.5542V110.274H77.1873V108.641Z" fill="#F5F5F5"/>
<path d="M77.1873 111.379H75.5542V113.012H77.1873V111.379Z" fill="#F5F5F5"/>
<path d="M77.1873 114.117H75.5542V115.75H77.1873V114.117Z" fill="#F5F5F5"/>
<path d="M77.1873 116.855H75.5542V118.489H77.1873V116.855Z" fill="#F5F5F5"/>
<path d="M77.1873 119.594H75.5542V121.227H77.1873V119.594Z" fill="#F5F5F5"/>
<path d="M77.1873 122.328H75.5542V123.961H77.1873V122.328Z" fill="#F5F5F5"/>
<path d="M77.1873 125.066H75.5542V126.699H77.1873V125.066Z" fill="#F5F5F5"/>
<path d="M77.1873 130.543H75.5542V132.176H77.1873V130.543Z" fill="#F5F5F5"/>
<path d="M77.1873 133.281H75.5542V134.914H77.1873V133.281Z" fill="#F5F5F5"/>
<path d="M77.1873 136.02H75.5542V137.653H77.1873V136.02Z" fill="#F5F5F5"/>
<path d="M77.1873 138.758H75.5542V140.391H77.1873V138.758Z" fill="#F5F5F5"/>
<path d="M77.1873 141.496H75.5542V143.129H77.1873V141.496Z" fill="#F5F5F5"/>
<path d="M79.7815 81.2617H78.1484V82.8948H79.7815V81.2617Z" fill="#F5F5F5"/>
<path d="M79.7815 84H78.1484V85.6331H79.7815V84Z" fill="#F5F5F5"/>
<path d="M79.7815 86.7383H78.1484V88.3714H79.7815V86.7383Z" fill="#F5F5F5"/>
<path d="M79.7815 89.4727H78.1484V91.1057H79.7815V89.4727Z" fill="#F5F5F5"/>
<path d="M79.7815 92.2109H78.1484V93.844H79.7815V92.2109Z" fill="#F5F5F5"/>
<path d="M79.7815 94.9492H78.1484V96.5823H79.7815V94.9492Z" fill="#F5F5F5"/>
<path d="M79.7815 97.6875H78.1484V99.3206H79.7815V97.6875Z" fill="#F5F5F5"/>
<path d="M79.7815 100.426H78.1484V102.059H79.7815V100.426Z" fill="#F5F5F5"/>
<path d="M79.7815 103.164H78.1484V104.797H79.7815V103.164Z" fill="#F5F5F5"/>
<path d="M79.7815 105.902H78.1484V107.535H79.7815V105.902Z" fill="#F5F5F5"/>
<path d="M79.7815 108.641H78.1484V110.274H79.7815V108.641Z" fill="#F5F5F5"/>
<path d="M79.7815 111.379H78.1484V113.012H79.7815V111.379Z" fill="#F5F5F5"/>
<path d="M79.7815 114.117H78.1484V115.75H79.7815V114.117Z" fill="#F5F5F5"/>
<path d="M79.7815 116.855H78.1484V118.489H79.7815V116.855Z" fill="#F5F5F5"/>
<path d="M79.7815 119.594H78.1484V121.227H79.7815V119.594Z" fill="#F5F5F5"/>
<path d="M79.7815 122.328H78.1484V123.961H79.7815V122.328Z" fill="#F5F5F5"/>
<path d="M79.7815 138.758H78.1484V140.391H79.7815V138.758Z" fill="#F5F5F5"/>
<path d="M79.7815 141.496H78.1484V143.129H79.7815V141.496Z" fill="#F5F5F5"/>
<path d="M82.3748 81.2617H80.7417V82.8948H82.3748V81.2617Z" fill="#F5F5F5"/>
<path d="M82.3748 84H80.7417V85.6331H82.3748V84Z" fill="#F5F5F5"/>
<path d="M82.3748 86.7383H80.7417V88.3714H82.3748V86.7383Z" fill="#F5F5F5"/>
<path d="M82.3748 89.4727H80.7417V91.1057H82.3748V89.4727Z" fill="#F5F5F5"/>
<path d="M82.3748 92.2109H80.7417V93.844H82.3748V92.2109Z" fill="#F5F5F5"/>
<path d="M82.3748 94.9492H80.7417V96.5823H82.3748V94.9492Z" fill="#F5F5F5"/>
<path d="M82.3748 97.6875H80.7417V99.3206H82.3748V97.6875Z" fill="#F5F5F5"/>
<path d="M82.3748 100.426H80.7417V102.059H82.3748V100.426Z" fill="#F5F5F5"/>
<path d="M82.3748 103.164H80.7417V104.797H82.3748V103.164Z" fill="#F5F5F5"/>
<path d="M82.3748 105.902H80.7417V107.535H82.3748V105.902Z" fill="#F5F5F5"/>
<path d="M82.3748 108.641H80.7417V110.274H82.3748V108.641Z" fill="#F5F5F5"/>
<path d="M82.3748 111.379H80.7417V113.012H82.3748V111.379Z" fill="#F5F5F5"/>
<path d="M82.3748 114.117H80.7417V115.75H82.3748V114.117Z" fill="#F5F5F5"/>
<path d="M82.3748 116.855H80.7417V118.489H82.3748V116.855Z" fill="#F5F5F5"/>
<path d="M82.3748 119.594H80.7417V121.227H82.3748V119.594Z" fill="#F5F5F5"/>
<path d="M82.3748 122.328H80.7417V123.961H82.3748V122.328Z" fill="#F5F5F5"/>
<path d="M82.3748 127.805H80.7417V129.438H82.3748V127.805Z" fill="#F5F5F5"/>
<path d="M82.3748 130.543H80.7417V132.176H82.3748V130.543Z" fill="#F5F5F5"/>
<path d="M82.3748 133.281H80.7417V134.914H82.3748V133.281Z" fill="#F5F5F5"/>
<path d="M82.3748 136.02H80.7417V137.653H82.3748V136.02Z" fill="#F5F5F5"/>
<path d="M82.3748 141.496H80.7417V143.129H82.3748V141.496Z" fill="#F5F5F5"/>
<path d="M127.624 100.426H125.991V102.059H127.624V100.426Z" fill="#F5F5F5"/>
<path d="M127.624 103.164H125.991V104.797H127.624V103.164Z" fill="#F5F5F5"/>
<path d="M127.624 105.902H125.991V107.535H127.624V105.902Z" fill="#F5F5F5"/>
<path d="M127.624 108.641H125.991V110.274H127.624V108.641Z" fill="#F5F5F5"/>
<path d="M127.624 111.379H125.991V113.012H127.624V111.379Z" fill="#F5F5F5"/>
<path d="M127.624 114.117H125.991V115.75H127.624V114.117Z" fill="#F5F5F5"/>
<path d="M127.624 116.855H125.991V118.489H127.624V116.855Z" fill="#F5F5F5"/>
<path d="M127.624 119.594H125.991V121.227H127.624V119.594Z" fill="#F5F5F5"/>
<path d="M127.624 122.328H125.991V123.961H127.624V122.328Z" fill="#F5F5F5"/>
<path d="M127.624 125.066H125.991V126.699H127.624V125.066Z" fill="#F5F5F5"/>
<path d="M127.624 127.805H125.991V129.438H127.624V127.805Z" fill="#F5F5F5"/>
<path d="M127.624 130.543H125.991V132.176H127.624V130.543Z" fill="#F5F5F5"/>
<path d="M127.624 133.281H125.991V134.914H127.624V133.281Z" fill="#F5F5F5"/>
<path d="M127.624 138.758H125.991V140.391H127.624V138.758Z" fill="#F5F5F5"/>
<path d="M127.624 141.496H125.991V143.129H127.624V141.496Z" fill="#F5F5F5"/>
<path d="M127.624 144.234H125.991V145.867H127.624V144.234Z" fill="#F5F5F5"/>
<path d="M127.624 146.973H125.991V148.606H127.624V146.973Z" fill="#F5F5F5"/>
<path d="M127.624 152.449H125.991V154.082H127.624V152.449Z" fill="#F5F5F5"/>
<path d="M127.624 155.188H125.991V156.821H127.624V155.188Z" fill="#F5F5F5"/>
<path d="M127.624 157.922H125.991V159.555H127.624V157.922Z" fill="#F5F5F5"/>
<path d="M130.217 100.426H128.584V102.059H130.217V100.426Z" fill="#F5F5F5"/>
<path d="M130.217 103.164H128.584V104.797H130.217V103.164Z" fill="#F5F5F5"/>
<path d="M130.217 105.902H128.584V107.535H130.217V105.902Z" fill="#F5F5F5"/>
<path d="M130.217 108.641H128.584V110.274H130.217V108.641Z" fill="#F5F5F5"/>
<path d="M130.217 111.379H128.584V113.012H130.217V111.379Z" fill="#F5F5F5"/>
<path d="M130.217 114.117H128.584V115.75H130.217V114.117Z" fill="#F5F5F5"/>
<path d="M130.217 116.855H128.584V118.489H130.217V116.855Z" fill="#F5F5F5"/>
<path d="M130.217 119.594H128.584V121.227H130.217V119.594Z" fill="#F5F5F5"/>
<path d="M130.217 122.328H128.584V123.961H130.217V122.328Z" fill="#F5F5F5"/>
<path d="M130.217 125.066H128.584V126.699H130.217V125.066Z" fill="#F5F5F5"/>
<path d="M130.217 127.805H128.584V129.438H130.217V127.805Z" fill="#F5F5F5"/>
<path d="M130.217 130.543H128.584V132.176H130.217V130.543Z" fill="#F5F5F5"/>
<path d="M130.217 133.281H128.584V134.914H130.217V133.281Z" fill="#F5F5F5"/>
<path d="M130.217 141.496H128.584V143.129H130.217V141.496Z" fill="#F5F5F5"/>
<path d="M130.217 144.234H128.584V145.867H130.217V144.234Z" fill="#F5F5F5"/>
<path d="M130.217 149.711H128.584V151.344H130.217V149.711Z" fill="#F5F5F5"/>
<path d="M130.217 152.449H128.584V154.082H130.217V152.449Z" fill="#F5F5F5"/>
<path d="M130.217 155.188H128.584V156.821H130.217V155.188Z" fill="#F5F5F5"/>
<path d="M130.217 157.922H128.584V159.555H130.217V157.922Z" fill="#F5F5F5"/>
<path d="M132.811 100.426H131.178V102.059H132.811V100.426Z" fill="#F5F5F5"/>
<path d="M132.811 103.164H131.178V104.797H132.811V103.164Z" fill="#F5F5F5"/>
<path d="M132.811 105.902H131.178V107.535H132.811V105.902Z" fill="#F5F5F5"/>
<path d="M132.811 108.641H131.178V110.274H132.811V108.641Z" fill="#F5F5F5"/>
<path d="M132.811 111.379H131.178V113.012H132.811V111.379Z" fill="#F5F5F5"/>
<path d="M132.811 114.117H131.178V115.75H132.811V114.117Z" fill="#F5F5F5"/>
<path d="M132.811 116.855H131.178V118.489H132.811V116.855Z" fill="#F5F5F5"/>
<path d="M132.811 119.594H131.178V121.227H132.811V119.594Z" fill="#F5F5F5"/>
<path d="M132.811 122.328H131.178V123.961H132.811V122.328Z" fill="#F5F5F5"/>
<path d="M132.811 125.066H131.178V126.699H132.811V125.066Z" fill="#F5F5F5"/>
<path d="M132.811 127.805H131.178V129.438H132.811V127.805Z" fill="#F5F5F5"/>
<path d="M132.811 130.543H131.178V132.176H132.811V130.543Z" fill="#F5F5F5"/>
<path d="M132.811 133.281H131.178V134.914H132.811V133.281Z" fill="#F5F5F5"/>
<path d="M132.811 136.02H131.178V137.653H132.811V136.02Z" fill="#F5F5F5"/>
<path d="M132.811 141.496H131.178V143.129H132.811V141.496Z" fill="#F5F5F5"/>
<path d="M132.811 146.973H131.178V148.606H132.811V146.973Z" fill="#F5F5F5"/>
<path d="M132.811 149.711H131.178V151.344H132.811V149.711Z" fill="#F5F5F5"/>
<path d="M132.811 152.449H131.178V154.082H132.811V152.449Z" fill="#F5F5F5"/>
<path d="M132.811 155.188H131.178V156.821H132.811V155.188Z" fill="#F5F5F5"/>
<path d="M132.811 157.922H131.178V159.555H132.811V157.922Z" fill="#F5F5F5"/>
<path d="M117.056 116.039H115.423V117.672H117.056V116.039Z" fill="#F5F5F5"/>
<path d="M117.056 118.777H115.423V120.41H117.056V118.777Z" fill="#F5F5F5"/>
<path d="M117.056 121.512H115.423V123.145H117.056V121.512Z" fill="#F5F5F5"/>
<path d="M117.056 124.25H115.423V125.883H117.056V124.25Z" fill="#F5F5F5"/>
<path d="M117.056 126.988H115.423V128.621H117.056V126.988Z" fill="#F5F5F5"/>
<path d="M117.056 129.727H115.423V131.36H117.056V129.727Z" fill="#F5F5F5"/>
<path d="M117.056 137.941H115.423V139.574H117.056V137.941Z" fill="#F5F5F5"/>
<path d="M117.056 140.68H115.423V142.313H117.056V140.68Z" fill="#F5F5F5"/>
<path d="M117.056 143.418H115.423V145.051H117.056V143.418Z" fill="#F5F5F5"/>
<path d="M117.056 146.156H115.423V147.789H117.056V146.156Z" fill="#F5F5F5"/>
<path d="M117.056 148.895H115.423V150.528H117.056V148.895Z" fill="#F5F5F5"/>
<path d="M117.056 151.633H115.423V153.266H117.056V151.633Z" fill="#F5F5F5"/>
<path d="M117.056 154.371H115.423V156.004H117.056V154.371Z" fill="#F5F5F5"/>
<path d="M119.65 116.039H118.017V117.672H119.65V116.039Z" fill="#F5F5F5"/>
<path d="M119.65 118.777H118.017V120.41H119.65V118.777Z" fill="#F5F5F5"/>
<path d="M119.65 121.512H118.017V123.145H119.65V121.512Z" fill="#F5F5F5"/>
<path d="M119.65 124.25H118.017V125.883H119.65V124.25Z" fill="#F5F5F5"/>
<path d="M119.65 126.988H118.017V128.621H119.65V126.988Z" fill="#F5F5F5"/>
<path d="M119.65 129.727H118.017V131.36H119.65V129.727Z" fill="#F5F5F5"/>
<path d="M119.65 137.941H118.017V139.574H119.65V137.941Z" fill="#F5F5F5"/>
<path d="M119.65 140.68H118.017V142.313H119.65V140.68Z" fill="#F5F5F5"/>
<path d="M119.65 143.418H118.017V145.051H119.65V143.418Z" fill="#F5F5F5"/>
<path d="M119.65 146.156H118.017V147.789H119.65V146.156Z" fill="#F5F5F5"/>
<path d="M119.65 148.895H118.017V150.528H119.65V148.895Z" fill="#F5F5F5"/>
<path d="M119.65 151.633H118.017V153.266H119.65V151.633Z" fill="#F5F5F5"/>
<path d="M119.65 157.105H118.017V158.739H119.65V157.105Z" fill="#F5F5F5"/>
<path d="M205.824 103.98H204.19V105.614H205.824V103.98Z" fill="#F5F5F5"/>
<path d="M205.824 106.719H204.19V108.352H205.824V106.719Z" fill="#F5F5F5"/>
<path d="M205.824 109.457H204.19V111.09H205.824V109.457Z" fill="#F5F5F5"/>
<path d="M205.824 112.195H204.19V113.828H205.824V112.195Z" fill="#F5F5F5"/>
<path d="M205.824 114.934H204.19V116.567H205.824V114.934Z" fill="#F5F5F5"/>
<path d="M205.824 117.672H204.19V119.305H205.824V117.672Z" fill="#F5F5F5"/>
<path d="M205.824 120.41H204.19V122.043H205.824V120.41Z" fill="#F5F5F5"/>
<path d="M205.824 123.148H204.19V124.782H205.824V123.148Z" fill="#F5F5F5"/>
<path d="M205.824 125.887H204.19V127.52H205.824V125.887Z" fill="#F5F5F5"/>
<path d="M205.824 128.625H204.19V130.258H205.824V128.625Z" fill="#F5F5F5"/>
<path d="M205.824 131.359H204.19V132.992H205.824V131.359Z" fill="#F5F5F5"/>
<path d="M205.824 136.836H204.19V138.469H205.824V136.836Z" fill="#F5F5F5"/>
<path d="M205.824 139.574H204.19V141.207H205.824V139.574Z" fill="#F5F5F5"/>
<path d="M205.824 142.312H204.19V143.946H205.824V142.312Z" fill="#F5F5F5"/>
<path d="M205.824 145.051H204.19V146.684H205.824V145.051Z" fill="#F5F5F5"/>
<path d="M205.824 147.789H204.19V149.422H205.824V147.789Z" fill="#F5F5F5"/>
<path d="M205.824 150.527H204.19V152.16H205.824V150.527Z" fill="#F5F5F5"/>
<path d="M205.824 153.266H204.19V154.899H205.824V153.266Z" fill="#F5F5F5"/>
<path d="M205.824 156.004H204.19V157.637H205.824V156.004Z" fill="#F5F5F5"/>
<path d="M208.418 103.98H206.785V105.614H208.418V103.98Z" fill="#F5F5F5"/>
<path d="M208.418 106.719H206.785V108.352H208.418V106.719Z" fill="#F5F5F5"/>
<path d="M208.418 109.457H206.785V111.09H208.418V109.457Z" fill="#F5F5F5"/>
<path d="M208.418 112.195H206.785V113.828H208.418V112.195Z" fill="#F5F5F5"/>
<path d="M208.418 114.934H206.785V116.567H208.418V114.934Z" fill="#F5F5F5"/>
<path d="M208.418 117.672H206.785V119.305H208.418V117.672Z" fill="#F5F5F5"/>
<path d="M208.418 120.41H206.785V122.043H208.418V120.41Z" fill="#F5F5F5"/>
<path d="M208.418 123.148H206.785V124.782H208.418V123.148Z" fill="#F5F5F5"/>
<path d="M208.418 125.887H206.785V127.52H208.418V125.887Z" fill="#F5F5F5"/>
<path d="M208.418 128.625H206.785V130.258H208.418V128.625Z" fill="#F5F5F5"/>
<path d="M208.418 131.359H206.785V132.992H208.418V131.359Z" fill="#F5F5F5"/>
<path d="M208.418 134.098H206.785V135.731H208.418V134.098Z" fill="#F5F5F5"/>
<path d="M208.418 136.836H206.785V138.469H208.418V136.836Z" fill="#F5F5F5"/>
<path d="M208.418 139.574H206.785V141.207H208.418V139.574Z" fill="#F5F5F5"/>
<path d="M208.418 142.312H206.785V143.946H208.418V142.312Z" fill="#F5F5F5"/>
<path d="M208.418 145.051H206.785V146.684H208.418V145.051Z" fill="#F5F5F5"/>
<path d="M208.418 147.789H206.785V149.422H208.418V147.789Z" fill="#F5F5F5"/>
<path d="M208.418 150.527H206.785V152.16H208.418V150.527Z" fill="#F5F5F5"/>
<path d="M208.418 153.266H206.785V154.899H208.418V153.266Z" fill="#F5F5F5"/>
<path d="M208.418 156.004H206.785V157.637H208.418V156.004Z" fill="#F5F5F5"/>
<path d="M193.047 114.645H191.414V116.278H193.047V114.645Z" fill="#F5F5F5"/>
<path d="M193.047 117.383H191.414V119.016H193.047V117.383Z" fill="#F5F5F5"/>
<path d="M193.047 120.121H191.414V121.754H193.047V120.121Z" fill="#F5F5F5"/>
<path d="M193.047 122.859H191.414V124.492H193.047V122.859Z" fill="#F5F5F5"/>
<path d="M193.047 125.598H191.414V127.231H193.047V125.598Z" fill="#F5F5F5"/>
<path d="M193.047 128.336H191.414V129.969H193.047V128.336Z" fill="#F5F5F5"/>
<path d="M193.047 131.074H191.414V132.707H193.047V131.074Z" fill="#F5F5F5"/>
<path d="M193.047 133.812H191.414V135.446H193.047V133.812Z" fill="#F5F5F5"/>
<path d="M193.047 136.547H191.414V138.18H193.047V136.547Z" fill="#F5F5F5"/>
<path d="M193.047 139.285H191.414V140.918H193.047V139.285Z" fill="#F5F5F5"/>
<path d="M195.641 114.645H194.008V116.278H195.641V114.645Z" fill="#F5F5F5"/>
<path d="M195.641 117.383H194.008V119.016H195.641V117.383Z" fill="#F5F5F5"/>
<path d="M195.641 120.121H194.008V121.754H195.641V120.121Z" fill="#F5F5F5"/>
<path d="M195.641 122.859H194.008V124.492H195.641V122.859Z" fill="#F5F5F5"/>
<path d="M195.641 125.598H194.008V127.231H195.641V125.598Z" fill="#F5F5F5"/>
<path d="M195.641 128.336H194.008V129.969H195.641V128.336Z" fill="#F5F5F5"/>
<path d="M195.641 131.074H194.008V132.707H195.641V131.074Z" fill="#F5F5F5"/>
<path d="M195.641 133.812H194.008V135.446H195.641V133.812Z" fill="#F5F5F5"/>
<path d="M195.641 136.547H194.008V138.18H195.641V136.547Z" fill="#F5F5F5"/>
<path d="M181.315 32.6797H178.573V163.446H181.315V32.6797Z" fill="#F5F5F5"/>
<path d="M129.75 32.6797H127.009V163.446H129.75V32.6797Z" fill="#F5F5F5"/>
<path d="M78.1865 32.6797H75.4448V163.446H78.1865V32.6797Z" fill="#F5F5F5"/>
<path d="M147.81 146.72H139.45V146.163C139.45 145.07 140.674 144.202 142.13 144.261L145.405 144.393C146.754 144.448 147.81 145.283 147.81 146.295V146.72Z" fill="#F0F0F0"/>
<path d="M128.011 131.559C127.983 130.981 127.507 130.527 126.928 130.527H119.517C118.938 130.527 118.462 130.981 118.434 131.559L120.194 147.004H131.256L128.011 131.559Z" fill="#E6E6E6"/>
<path d="M148.139 107.812H145.378L142.274 136.983H145.035C145.493 136.983 145.903 136.612 145.952 136.155L148.88 108.641C148.928 108.183 148.597 107.812 148.139 107.812Z" fill="#E6E6E6"/>
<path d="M143.868 136.983H102.479C102.022 136.983 101.69 136.612 101.739 136.155L104.667 108.641C104.715 108.184 105.126 107.812 105.584 107.812H146.972C147.429 107.812 147.761 108.183 147.712 108.641L144.785 136.155C144.736 136.612 144.325 136.983 143.868 136.983Z" fill="#EBEBEB"/>
<path d="M143.094 134.29H104.065C103.666 134.29 103.376 133.967 103.419 133.567L105.974 109.563C106.016 109.163 106.374 108.84 106.773 108.84H145.802C146.202 108.84 146.491 109.163 146.448 109.563L143.895 133.567C143.852 133.967 143.494 134.29 143.094 134.29Z" fill="#FAFAFA"/>
<path d="M131.676 145.805H118.06C117.731 145.805 117.465 146.071 117.465 146.399V146.41C117.465 146.738 117.731 147.004 118.06 147.004H131.676C132.004 147.004 132.27 146.738 132.27 146.41V146.399C132.27 146.071 132.004 145.805 131.676 145.805Z" fill="#E6E6E6"/>
<path d="M165.181 146.656H131.486V151.74H165.181V146.656Z" fill="#E6E6E6"/>
<path d="M71.2903 203.426H70.4496C70.3455 203.426 70.2587 203.341 70.2562 203.235L68.9263 151.738H72.8137L71.4844 203.235C71.4813 203.341 71.3951 203.426 71.2903 203.426Z" fill="#E6E6E6"/>
<path d="M41.3016 203.426H39.3579L44.8431 151.738H48.7298L41.3016 203.426Z" fill="#F0F0F0"/>
<path d="M166.495 203.426L159.046 151.738H162.933L168.418 203.426H166.495Z" fill="#E6E6E6"/>
<path d="M141.097 146.656H42.5957V151.74H141.097V146.656Z" fill="#F5F5F5"/>
<path d="M138.023 203.426H135.79L135.789 203.425L134.962 151.738H138.849L138.023 203.426Z" fill="#F0F0F0"/>
<path d="M106.557 145.744H105.524C105.416 145.744 105.327 145.656 105.327 145.547V144.455C105.327 144.346 105.415 144.258 105.524 144.258H106.265C106.354 144.258 106.433 144.318 106.456 144.404L106.746 145.495C106.78 145.621 106.686 145.744 106.557 145.744Z" fill="#F5F5F5"/>
<path d="M107.983 145.744H106.951C106.842 145.744 106.754 145.656 106.754 145.547V144.455C106.754 144.346 106.842 144.258 106.951 144.258H107.692C107.781 144.258 107.859 144.318 107.882 144.404L108.174 145.495C108.207 145.621 108.112 145.744 107.983 145.744Z" fill="#F5F5F5"/>
<path d="M109.409 145.744H108.377C108.268 145.744 108.18 145.656 108.18 145.547V144.455C108.18 144.346 108.268 144.258 108.377 144.258H109.118C109.207 144.258 109.285 144.318 109.308 144.404L109.599 145.495C109.633 145.621 109.539 145.744 109.409 145.744Z" fill="#F5F5F5"/>
<path d="M110.836 145.744H109.804C109.694 145.744 109.606 145.656 109.606 145.547V144.455C109.606 144.346 109.694 144.258 109.804 144.258H110.545C110.634 144.258 110.712 144.318 110.735 144.404L111.026 145.495C111.06 145.621 110.965 145.744 110.836 145.744Z" fill="#F5F5F5"/>
<path d="M112.263 145.744H111.23C111.121 145.744 111.033 145.656 111.033 145.547V144.455C111.033 144.346 111.121 144.258 111.23 144.258H111.971C112.061 144.258 112.139 144.318 112.162 144.404L112.453 145.495C112.486 145.621 112.392 145.744 112.263 145.744Z" fill="#F5F5F5"/>
<path d="M113.688 145.744H112.656C112.547 145.744 112.459 145.656 112.459 145.547V144.455C112.459 144.346 112.547 144.258 112.656 144.258H113.397C113.486 144.258 113.564 144.318 113.587 144.404L113.879 145.495C113.912 145.621 113.818 145.744 113.688 145.744Z" fill="#F5F5F5"/>
<path d="M115.115 145.744H114.083C113.974 145.744 113.886 145.656 113.886 145.547V144.455C113.886 144.346 113.974 144.258 114.083 144.258H114.824C114.913 144.258 114.991 144.318 115.014 144.404L115.305 145.495C115.339 145.621 115.245 145.744 115.115 145.744Z" fill="#F5F5F5"/>
<path d="M116.541 145.744H115.509C115.4 145.744 115.312 145.656 115.312 145.547V144.455C115.312 144.346 115.4 144.258 115.509 144.258H116.25C116.339 144.258 116.417 144.318 116.44 144.404L116.731 145.495C116.765 145.621 116.671 145.744 116.541 145.744Z" fill="#F5F5F5"/>
<path d="M117.968 145.744H116.935C116.827 145.744 116.738 145.656 116.738 145.547V144.455C116.738 144.346 116.826 144.258 116.935 144.258H117.676C117.766 144.258 117.844 144.318 117.867 144.404L118.158 145.495C118.192 145.621 118.097 145.744 117.968 145.744Z" fill="#F5F5F5"/>
<path d="M119.395 145.744H118.362C118.253 145.744 118.165 145.656 118.165 145.547V144.455C118.165 144.346 118.253 144.258 118.362 144.258H119.103C119.192 144.258 119.271 144.318 119.293 144.404L119.584 145.495C119.618 145.621 119.523 145.744 119.395 145.744Z" fill="#F5F5F5"/>
<path d="M120.82 145.744H119.788C119.679 145.744 119.591 145.656 119.591 145.547V144.455C119.591 144.346 119.679 144.258 119.788 144.258H120.529C120.618 144.258 120.696 144.318 120.719 144.404L121.01 145.495C121.044 145.621 120.95 145.744 120.82 145.744Z" fill="#F5F5F5"/>
<path d="M122.247 145.744H121.215C121.106 145.744 121.018 145.656 121.018 145.547V144.455C121.018 144.346 121.106 144.258 121.215 144.258H121.956C122.045 144.258 122.123 144.318 122.146 144.404L122.437 145.495C122.471 145.621 122.377 145.744 122.247 145.744Z" fill="#F5F5F5"/>
<path d="M123.673 145.744H122.641C122.531 145.744 122.443 145.656 122.443 145.547V144.455C122.443 144.346 122.531 144.258 122.641 144.258H123.381C123.471 144.258 123.549 144.318 123.572 144.404L123.863 145.495C123.897 145.621 123.802 145.744 123.673 145.744Z" fill="#F5F5F5"/>
<path d="M125.1 145.744H124.067C123.958 145.744 123.87 145.656 123.87 145.547V144.455C123.87 144.346 123.958 144.258 124.067 144.258H124.808C124.897 144.258 124.976 144.318 124.999 144.404L125.289 145.495C125.323 145.621 125.229 145.744 125.1 145.744Z" fill="#F5F5F5"/>
<path d="M126.526 145.744H125.494C125.385 145.744 125.297 145.656 125.297 145.547V144.455C125.297 144.346 125.385 144.258 125.494 144.258H126.235C126.324 144.258 126.402 144.318 126.425 144.404L126.717 145.495C126.75 145.621 126.655 145.744 126.526 145.744Z" fill="#F5F5F5"/>
<path d="M127.564 145H104.486V146.719H127.564V145Z" fill="#EBEBEB"/>
<path d="M86.8 156.387H51.1122C49.4004 156.387 48.0122 157.775 48.0122 159.487V161.832H89.9V159.487C89.9 157.775 88.5125 156.387 86.8 156.387Z" fill="#E0E0E0"/>
<path d="M49.3768 192.831L62.7985 191.511V172.648H68.1181V191.506L81.5938 192.83C82.9318 192.961 83.9517 194.086 83.9517 195.43V197.446H65.9785H64.9927H47.0195V195.43C47.0195 194.087 48.0394 192.962 49.3768 192.831Z" fill="#E0E0E0"/>
<path d="M79.0537 199.946C79.0537 201.867 80.6105 203.424 82.5313 203.424C84.4521 203.424 86.0089 201.867 86.0089 199.946C86.0089 198.026 84.4521 196.469 82.5313 196.469C80.6105 196.469 79.0537 198.026 79.0537 199.946Z" fill="#E0E0E0"/>
<path d="M51.9176 199.946C51.9176 201.867 50.3607 203.424 48.44 203.424C46.5192 203.424 44.9624 201.867 44.9624 199.946C44.9624 198.026 46.5192 196.469 48.44 196.469C50.3607 196.469 51.9176 198.026 51.9176 199.946Z" fill="#E0E0E0"/>
<path d="M64.4453 176.703H66.4714C67.8869 176.703 69.0339 175.556 69.0339 174.141V159.902H61.8828V174.141C61.8828 175.555 63.0304 176.703 64.4453 176.703Z" fill="#E6E6E6"/>
<path d="M72.527 156.737C70.6714 149.718 66.4926 131.562 65.6122 107.574C65.4764 103.867 62.4179 100.938 58.7091 100.938H46.3264C42.5227 100.938 39.4327 104.008 39.4165 107.811C39.3682 119.091 40.1562 142.151 46.5186 160.895L70.0861 160.027C71.7675 159.965 72.9567 158.363 72.527 156.737Z" fill="#EBEBEB"/>
<path d="M69.1936 159.636C69.1936 159.636 62.8355 137.017 61.7852 108.376C61.66 104.956 58.839 102.254 55.4172 102.254H43.9956C40.487 102.254 37.6368 105.085 37.622 108.594C37.5773 118.999 38.3046 142.346 44.1735 159.636H69.1936Z" fill="#E6E6E6"/>
<path d="M64.2944 143.194C64.2944 143.194 77.8669 140.448 90.9706 141.777C104.074 143.107 84.8053 160.229 84.8053 160.229H82.1002C82.1002 160.229 92.311 149.373 91.7418 146.67C91.1733 143.967 65.4582 147.53 65.4582 147.53L64.2944 143.194Z" fill="#E6E6E6"/>
<path d="M44.1748 159.635H66.3993C66.3993 159.635 60.0406 137.014 58.9879 108.375C58.862 104.956 56.0441 102.254 52.6198 102.254H43.9981C40.4858 102.254 37.6394 105.086 37.6208 108.594C37.5786 118.996 38.3053 142.344 44.1748 159.635Z" fill="#E0E0E0"/>
<path d="M90.1466 159.109H44.9709C44.2821 159.109 43.7241 159.667 43.7241 160.356V160.585C43.7241 161.274 44.2821 161.832 44.9709 161.832H90.1466C90.8354 161.832 91.3934 161.273 91.3934 160.585V160.356C91.3941 159.667 90.8354 159.109 90.1466 159.109Z" fill="#E0E0E0"/>
<path d="M258.734 180.726C258.742 180.48 259.567 156.127 263.528 152.275C267.381 148.529 271.803 152.135 271.989 152.29L272.387 151.815C272.336 151.773 267.346 147.699 263.096 151.83C258.957 155.855 258.148 179.693 258.115 180.706L258.734 180.726Z" fill="#E0E0E0"/>
<path d="M258.394 185.51C258.422 185.218 261.101 156.273 250.53 144.141L250.063 144.547C260.459 156.478 257.805 185.16 257.777 185.449L258.394 185.51Z" fill="#E0E0E0"/>
<path d="M258.784 182.446L259.403 182.405C259.381 182.077 257.334 149.498 265.088 142.366L264.668 141.91C256.697 149.242 258.696 181.094 258.784 182.446Z" fill="#E0E0E0"/>
<path d="M257.775 182.431L258.395 182.426C258.388 181.529 258.139 160.42 252.143 156.984C250.81 156.22 249.505 156.092 248.264 156.606C244.638 158.106 242.841 164.558 242.767 164.831L243.365 164.995C243.382 164.931 245.157 158.561 248.502 157.179C249.556 156.744 250.677 156.858 251.835 157.522C257.525 160.782 257.774 182.215 257.775 182.431Z" fill="#E0E0E0"/>
<path d="M260.11 182.446L260.729 182.411C260.719 182.244 259.824 165.73 264.281 159.912C265.361 158.502 266.532 157.83 267.771 157.917C270.691 158.121 273.14 162.394 273.165 162.437L273.705 162.132C273.599 161.944 271.068 157.526 267.815 157.298C266.36 157.195 265.004 157.949 263.788 159.535C259.192 165.536 260.071 181.759 260.11 182.446Z" fill="#E0E0E0"/>
<path d="M259.133 184.692C259.254 183.09 262.046 145.383 257.133 138.738L256.635 139.107C261.412 145.568 258.544 184.255 258.514 184.645L259.133 184.692Z" fill="#E0E0E0"/>
<path d="M246.928 160.43C246.928 160.43 249.875 161.516 248.999 164.082C248.123 166.647 238.803 170.868 238.803 170.868C238.803 170.868 234.9 167.291 238.484 161.473C242.069 155.654 246.848 158.594 246.928 160.43Z" fill="#EBEBEB"/>
<path d="M259.74 155.544C259.74 155.544 256.602 155.413 256.423 158.118C256.245 160.822 263.222 168.306 263.222 168.306C263.222 168.306 268.201 166.506 267.132 159.756C266.062 153.006 260.52 153.881 259.74 155.544Z" fill="#EBEBEB"/>
<path d="M262.397 142.597C262.397 142.597 260.304 142.372 260.473 141.098C260.642 139.823 268.607 136.543 273.306 141.847C273.306 141.847 270.297 147.016 265.947 147.084C261.597 147.151 262.397 142.597 262.397 142.597Z" fill="#EBEBEB"/>
<path d="M258.498 139.503C258.498 139.503 260.392 140.419 260.923 139.248C261.454 138.078 256.429 131.081 249.635 133.097C249.635 133.097 249.455 139.075 253.111 141.433C256.768 143.791 258.498 139.503 258.498 139.503Z" fill="#EBEBEB"/>
<path d="M268.405 159.397C268.405 159.397 266.961 158.23 268.519 157.661C270.078 157.092 277.724 157.254 277.804 164.828C277.804 164.828 268.898 166.308 267.795 163.423C266.693 160.538 268.405 159.397 268.405 159.397Z" fill="#EBEBEB"/>
<path d="M250.243 142.408C250.243 142.408 251.687 141.242 250.129 140.673C248.571 140.104 240.924 140.266 240.844 147.84C240.844 147.84 249.751 149.32 250.853 146.435C251.955 143.549 250.243 142.408 250.243 142.408Z" fill="#EBEBEB"/>
<path d="M254.952 148.51C254.952 148.51 255.079 147.093 253.934 147.649C252.79 148.204 248.804 152.505 252.936 156.586C252.936 156.586 258.499 152.466 257.496 150.321C256.493 148.176 254.952 148.51 254.952 148.51Z" fill="#EBEBEB"/>
<path d="M269.695 150.53C269.695 150.53 268.832 149.399 270.097 149.259C271.361 149.119 277.026 150.631 275.707 156.286C275.707 156.286 268.804 155.767 268.509 153.418C268.213 151.069 269.695 150.53 269.695 150.53Z" fill="#EBEBEB"/>
<path d="M246.377 203.425H270.06L272.615 177.496H243.822L246.377 203.425Z" fill="#F0F0F0"/>
<path d="M242.557 180.359H273.879V174.638H242.557V180.359Z" fill="#E6E6E6"/>
<path d="M155.5 231.658C221.891 231.658 275.711 228.515 275.711 224.637C275.711 220.76 221.891 217.617 155.5 217.617C89.1094 217.617 35.2891 220.76 35.2891 224.637C35.2891 228.515 89.1094 231.658 155.5 231.658Z" fill="#F5F5F5"/>
<path d="M223.388 228.537H119.079C117.1 228.537 115.656 226.932 115.856 224.952L133.755 47.3733C133.954 45.3936 135.721 43.7891 137.701 43.7891H242.01C243.989 43.7891 245.433 45.3936 245.233 47.3733L227.334 224.952C227.135 226.931 225.368 228.537 223.388 228.537Z" fill="#407BFF"/>
<path d="M207.77 57.242H169.227C167.638 57.242 166.479 55.9536 166.639 54.3639L167.715 43.6832C167.744 43.3986 167.998 43.168 168.282 43.168H211.551C211.836 43.168 212.043 43.3986 212.015 43.6832L210.938 54.3639C210.778 55.9536 209.359 57.242 207.77 57.242Z" fill="#263238"/>
<path d="M190.409 38.2852C188.818 38.2852 187.397 39.5754 187.237 41.1663L186.785 45.6415H192.549L193.001 41.1663C193.161 39.5754 192.001 38.2852 190.409 38.2852ZM189.977 42.5768C189.333 42.5768 188.865 42.0554 188.929 41.4118C188.994 40.7683 189.568 40.2468 190.212 40.2468C190.855 40.2468 191.324 40.7683 191.26 41.4118C191.195 42.0554 190.62 42.5768 189.977 42.5768Z" fill="#263238"/>
<path d="M208.083 46.2578L207.304 53.9873H191.699C191.758 52.4752 190.626 51.2786 189.101 51.2786C187.569 51.2786 186.196 52.4752 185.951 53.9873H170.346L171.125 46.2578H208.083Z" stroke="white" stroke-width="2" stroke-miterlimit="10" stroke-linecap="round" stroke-linejoin="round"/>
<path d="M205.167 46.2996C205.232 45.6511 205.655 45.457 205.655 45.457H173.415C173.415 45.457 172.992 45.6511 172.927 46.2996C172.86 46.9686 173.245 47.1428 173.245 47.1428H205.485C205.485 47.1428 205.1 46.9686 205.167 46.2996Z" fill="#407BFF"/>
<path d="M223.735 223.112H120.338L137.866 49.2109H241.263L223.735 223.112Z" fill="white"/>
<path d="M233.057 67.5614H142.435C142.263 67.5614 142.125 67.4225 142.125 67.2514C142.125 67.0803 142.263 66.9414 142.435 66.9414H233.058C233.229 66.9414 233.368 67.0803 233.368 67.2514C233.367 67.4231 233.229 67.5614 233.057 67.5614Z" fill="#263238"/>
<path d="M154.239 59.3327C153.966 62.0471 151.543 64.2475 148.829 64.2475C146.114 64.2475 144.135 62.0471 144.409 59.3327C144.682 56.6184 147.105 54.418 149.819 54.418C152.534 54.418 154.513 56.6184 154.239 59.3327Z" fill="#407BFF"/>
<path d="M146.527 58.5968C146.527 58.5968 143.887 62.0774 144.679 63.1401C145.471 64.2028 152.797 58.2359 154.556 56.1924C156.316 54.1489 154.251 54.966 154.251 54.966C154.251 54.966 155.026 55.0094 154.611 55.6406C153.766 56.9283 146.803 61.5256 146.092 61.2807C145.382 61.0352 146.527 58.5968 146.527 58.5968Z" fill="#263238"/>
<path d="M232.909 57.6853H223.588C223.246 57.6853 222.968 57.4076 222.968 57.0653C222.968 56.7231 223.246 56.4453 223.588 56.4453H232.909C233.251 56.4453 233.529 56.7231 233.529 57.0653C233.529 57.4076 233.251 57.6853 232.909 57.6853Z" fill="#263238"/>
<path d="M232.617 60.572H226.608C226.266 60.572 225.988 60.2943 225.988 59.952C225.988 59.6098 226.266 59.332 226.608 59.332H232.617C232.96 59.332 233.237 59.6098 233.237 59.952C233.237 60.2943 232.96 60.572 232.617 60.572Z" fill="#263238"/>
<path d="M232.327 63.4627H216.629C216.287 63.4627 216.009 63.1849 216.009 62.8427C216.009 62.5004 216.287 62.2227 216.629 62.2227H232.327C232.669 62.2227 232.947 62.5004 232.947 62.8427C232.947 63.1849 232.669 63.4627 232.327 63.4627Z" fill="#263238"/>
<path d="M165.877 75.0008C166.033 73.447 167.336 72.3242 168.935 72.3242C169.783 72.3242 170.481 72.6293 170.907 73.1941L170.224 73.7818C169.886 73.3726 169.438 73.1718 168.895 73.1718C167.816 73.1718 166.959 73.93 166.851 75.0008C166.743 76.0715 167.447 76.8304 168.526 76.8304C169.068 76.8304 169.557 76.6295 169.978 76.2129L170.543 76.8074C170.003 77.3729 169.244 77.6773 168.389 77.6773C166.796 77.6779 165.72 76.5551 165.877 75.0008Z" fill="black"/>
<path d="M171.174 75.0008C171.329 73.4619 172.634 72.3242 174.247 72.3242C175.861 72.3242 176.937 73.4545 176.781 75.0008C176.625 76.5477 175.321 77.6779 173.707 77.6779C172.094 77.6779 171.018 76.5402 171.174 75.0008ZM175.807 75.0008C175.914 73.9375 175.21 73.1718 174.162 73.1718C173.113 73.1718 172.255 73.9375 172.148 75.0008C172.041 76.0641 172.745 76.8304 173.793 76.8304C174.841 76.8304 175.699 76.0641 175.807 75.0008Z" fill="black"/>
<path d="M182.698 72.3984L182.173 77.6033H181.378L178.862 74.0786L178.507 77.6033H177.548L178.072 72.3984H178.868L181.383 75.9231L181.738 72.3984H182.698Z" fill="black"/>
<path d="M185.072 73.2162H183.347L183.429 72.3984H187.846L187.764 73.2162H186.039L185.597 77.604H184.63L185.072 73.2162Z" fill="black"/>
<path d="M191.459 77.6033L190.549 76.0788C190.481 76.0862 190.414 76.0862 190.347 76.0862H189.172L189.019 77.6033H188.053L188.577 72.3984H190.719C192.087 72.3984 192.864 73.0972 192.748 74.2498C192.668 75.0378 192.208 75.6181 191.474 75.8928L192.499 77.6033H191.459ZM190.592 73.2162H189.462L189.253 75.2907H190.383C191.231 75.2907 191.709 74.9039 191.775 74.2498C191.84 73.595 191.44 73.2162 190.592 73.2162Z" fill="black"/>
<path d="M196.989 76.3987H194.386L193.752 77.6033H192.755L195.622 72.3984H196.574L198.399 77.6033H197.388L196.989 76.3987ZM196.746 75.6398L195.994 73.3644L194.79 75.6398H196.746Z" fill="black"/>
<path d="M198.88 75.0008C199.037 73.447 200.34 72.3242 201.939 72.3242C202.786 72.3242 203.485 72.6293 203.91 73.1941L203.227 73.7818C202.889 73.3726 202.44 73.1718 201.897 73.1718C200.819 73.1718 199.962 73.93 199.854 75.0008C199.746 76.0715 200.45 76.8304 201.528 76.8304C202.071 76.8304 202.559 76.6295 202.981 76.2129L203.546 76.8074C203.006 77.3729 202.246 77.6773 201.391 77.6773C199.8 77.6779 198.724 76.5551 198.88 75.0008Z" fill="black"/>
<path d="M205.837 73.2162H204.112L204.194 72.3984H208.611L208.529 73.2162H206.804L206.362 77.604H205.395L205.837 73.2162Z" fill="black"/>
<path d="M162.865 84.9197H141.807C141.465 84.9197 141.187 84.6419 141.187 84.2997C141.187 83.9574 141.465 83.6797 141.807 83.6797H162.865C163.207 83.6797 163.485 83.9574 163.485 84.2997C163.485 84.6419 163.208 84.9197 162.865 84.9197Z" fill="#263238"/>
<path d="M151.998 88.2673H141.47C141.127 88.2673 140.85 87.9896 140.85 87.6473C140.85 87.3051 141.127 87.0273 141.47 87.0273H151.998C152.341 87.0273 152.618 87.3051 152.618 87.6473C152.618 87.9902 152.341 88.2673 151.998 88.2673Z" fill="#263238"/>
<path d="M227.494 105.771H139.706C139.364 105.771 139.086 105.493 139.086 105.151C139.086 104.809 139.364 104.531 139.706 104.531H227.494C227.836 104.531 228.114 104.809 228.114 105.151C228.114 105.494 227.836 105.771 227.494 105.771Z" fill="#263238"/>
<path d="M227.109 109.592H139.321C138.978 109.592 138.701 109.314 138.701 108.972C138.701 108.629 138.978 108.352 139.321 108.352H227.109C227.451 108.352 227.729 108.629 227.729 108.972C227.729 109.314 227.451 109.592 227.109 109.592Z" fill="#263238"/>
<path d="M226.723 113.412H138.935C138.593 113.412 138.315 113.135 138.315 112.792C138.315 112.449 138.593 112.172 138.935 112.172H226.723C227.065 112.172 227.343 112.449 227.343 112.792C227.343 113.135 227.065 113.412 226.723 113.412Z" fill="#263238"/>
<path d="M226.338 117.236H138.55C138.208 117.236 137.93 116.959 137.93 116.616C137.93 116.273 138.208 115.996 138.55 115.996H226.338C226.681 115.996 226.958 116.273 226.958 116.616C226.958 116.959 226.681 117.236 226.338 117.236Z" fill="#263238"/>
<path d="M225.953 121.056H138.165C137.823 121.056 137.545 120.779 137.545 120.436C137.545 120.094 137.823 119.816 138.165 119.816H225.953C226.295 119.816 226.573 120.094 226.573 120.436C226.573 120.779 226.295 121.056 225.953 121.056Z" fill="#263238"/>
<path d="M225.568 124.877H137.78C137.438 124.877 137.16 124.6 137.16 124.257C137.16 123.914 137.438 123.637 137.78 123.637H225.568C225.911 123.637 226.188 123.914 226.188 124.257C226.188 124.6 225.911 124.877 225.568 124.877Z" fill="#263238"/>
<path d="M225.183 128.697H137.395C137.053 128.697 136.775 128.42 136.775 128.077C136.775 127.734 137.053 127.457 137.395 127.457H225.183C225.525 127.457 225.803 127.734 225.803 128.077C225.803 128.42 225.525 128.697 225.183 128.697Z" fill="#263238"/>
<path d="M224.798 132.517H137.01C136.668 132.517 136.39 132.24 136.39 131.897C136.39 131.554 136.668 131.277 137.01 131.277H224.798C225.141 131.277 225.418 131.554 225.418 131.897C225.418 132.24 225.141 132.517 224.798 132.517Z" fill="#263238"/>
<path d="M181.013 136.338H136.624C136.282 136.338 136.004 136.061 136.004 135.718C136.004 135.375 136.282 135.098 136.624 135.098H181.013C181.355 135.098 181.633 135.375 181.633 135.718C181.633 136.061 181.356 136.338 181.013 136.338Z" fill="#263238"/>
<path d="M230.247 84.9197H215.108C214.766 84.9197 214.488 84.6419 214.488 84.2997C214.488 83.9574 214.766 83.6797 215.108 83.6797H230.247C230.59 83.6797 230.867 83.9574 230.867 84.2997C230.867 84.6419 230.59 84.9197 230.247 84.9197Z" fill="#263238"/>
<path d="M223.93 141.521H145.489C145.147 141.521 144.869 141.244 144.869 140.901C144.869 140.558 145.147 140.281 145.489 140.281H223.93C224.272 140.281 224.55 140.558 224.55 140.901C224.55 141.244 224.272 141.521 223.93 141.521Z" fill="#263238"/>
<path d="M223.505 145.342H135.717C135.375 145.342 135.097 145.064 135.097 144.722C135.097 144.379 135.375 144.102 135.717 144.102H223.505C223.848 144.102 224.125 144.379 224.125 144.722C224.125 145.064 223.848 145.342 223.505 145.342Z" fill="#263238"/>
<path d="M223.12 149.162H135.332C134.99 149.162 134.712 148.885 134.712 148.542C134.712 148.199 134.99 147.922 135.332 147.922H223.121C223.463 147.922 223.741 148.199 223.741 148.542C223.74 148.885 223.463 149.162 223.12 149.162Z" fill="#263238"/>
<path d="M222.735 152.982H134.947C134.605 152.982 134.327 152.705 134.327 152.362C134.327 152.019 134.605 151.742 134.947 151.742H222.735C223.078 151.742 223.355 152.019 223.355 152.362C223.355 152.705 223.078 152.982 222.735 152.982Z" fill="#263238"/>
<path d="M222.35 156.803H134.562C134.22 156.803 133.942 156.525 133.942 156.183C133.942 155.84 134.22 155.562 134.562 155.562H222.351C222.693 155.562 222.971 155.84 222.971 156.183C222.97 156.525 222.692 156.803 222.35 156.803Z" fill="#263238"/>
<path d="M166.165 160.627H134.177C133.834 160.627 133.557 160.35 133.557 160.007C133.557 159.664 133.834 159.387 134.177 159.387H166.165C166.507 159.387 166.785 159.664 166.785 160.007C166.785 160.35 166.507 160.627 166.165 160.627Z" fill="#263238"/>
<g opacity="0.2">
<path d="M223.735 223.112H120.338L137.866 49.2109H241.263L223.735 223.112Z" fill="black"/>
</g>
<path d="M207.002 217.86C172.537 217.86 138.071 217.86 103.605 217.86C122.589 161.925 134.059 105.145 136.626 49.2109C171.092 49.2109 205.557 49.2109 240.022 49.2109C237.456 105.145 225.986 161.925 207.002 217.86Z" fill="white"/>
<path d="M231.958 66.9439C201.751 66.9439 171.543 66.9439 141.335 66.9439C141.165 66.9439 141.022 66.81 141.017 66.6438C141.012 66.4777 141.147 66.3438 141.319 66.3438C171.527 66.3438 201.734 66.3438 231.942 66.3438C232.113 66.3438 232.256 66.4777 232.26 66.6438C232.264 66.81 232.13 66.9439 231.958 66.9439Z" fill="#263238"/>
<path d="M152.867 58.9862C152.703 61.6095 150.347 63.7379 147.633 63.7379C144.918 63.7379 142.871 61.6095 143.036 58.9862C143.202 56.363 145.516 54.2383 148.231 54.2383C150.945 54.2377 153.032 56.363 152.867 58.9862Z" fill="#407BFF"/>
<path d="M145.124 58.2728C145.127 58.2722 142.623 61.6369 143.447 62.6655C144.281 63.6928 151.394 57.9231 153.05 55.9497C154.716 53.9756 152.688 54.7655 152.688 54.7655C152.688 54.7655 153.466 54.807 153.081 55.4171C152.301 56.6602 145.519 61.1043 144.795 60.8675C144.076 60.63 145.126 58.2728 145.124 58.2728Z" fill="#263238"/>
<path d="M231.468 57.3932C228.361 57.3932 225.255 57.3932 222.148 57.3932C221.805 57.3932 221.516 57.1247 221.501 56.7942C221.486 56.4638 221.752 56.1953 222.094 56.1953C225.201 56.1953 228.308 56.1953 231.414 56.1953C231.757 56.1953 232.048 56.4638 232.062 56.7942C232.076 57.1247 231.811 57.3932 231.468 57.3932Z" fill="#263238"/>
<path d="M231.294 60.1835C229.29 60.1835 227.287 60.1835 225.285 60.1835C224.942 60.1835 224.655 59.915 224.641 59.5839C224.628 59.2528 224.895 58.9844 225.237 58.9844C227.24 58.9844 229.243 58.9844 231.246 58.9844C231.589 58.9844 231.876 59.2528 231.89 59.5839C231.904 59.915 231.637 60.1835 231.294 60.1835Z" fill="#263238"/>
<path d="M231.104 62.9764C225.872 62.9764 220.639 62.9764 215.407 62.9764C215.065 62.9764 214.777 62.708 214.766 62.3769C214.753 62.0458 215.022 61.7773 215.364 61.7773C220.596 61.7773 225.829 61.7773 231.062 61.7773C231.405 61.7773 231.691 62.0458 231.703 62.3769C231.716 62.708 231.447 62.9764 231.104 62.9764Z" fill="#263238"/>
<path d="M164.929 74.1469C165.063 72.6415 166.343 71.5547 167.943 71.5547C168.791 71.5547 169.495 71.8498 169.93 72.3973C169.706 72.587 169.481 72.7767 169.256 72.9664C168.911 72.5703 168.46 72.3756 167.917 72.3756C166.839 72.3756 165.995 73.1096 165.902 74.1469C165.809 75.1842 166.522 75.9195 167.6 75.9195C168.142 75.9195 168.629 75.7248 169.045 75.3212C169.236 75.5134 169.427 75.7056 169.617 75.8978C169.084 76.4459 168.327 76.741 167.472 76.741C165.879 76.7404 164.795 75.6523 164.929 74.1469Z" fill="black"/>
<path d="M170.226 74.1469C170.358 72.6558 171.642 71.5547 173.255 71.5547C174.868 71.5547 175.967 72.649 175.832 74.1469C175.698 75.6448 174.405 76.7404 172.791 76.7404C171.178 76.7404 170.093 75.638 170.226 74.1469ZM174.858 74.1469C174.95 73.1171 174.232 72.3756 173.184 72.3756C172.136 72.3756 171.292 73.1171 171.199 74.1469C171.106 75.1767 171.819 75.9195 172.868 75.9195C173.917 75.9195 174.765 75.1767 174.858 74.1469Z" fill="black"/>
<path d="M181.706 71.625C181.563 73.3052 181.413 74.986 181.256 76.6668C180.99 76.6668 180.725 76.6668 180.46 76.6668C179.61 75.5285 178.756 74.3902 177.9 73.2525C177.8 74.3902 177.696 75.5285 177.59 76.6668C177.27 76.6668 176.95 76.6668 176.63 76.6668C176.788 74.9854 176.938 73.3052 177.081 71.625C177.346 71.625 177.611 71.625 177.877 71.625C178.737 72.7627 179.593 73.9004 180.447 75.0387C180.551 73.9004 180.651 72.7627 180.747 71.625C181.066 71.625 181.387 71.625 181.706 71.625Z" fill="black"/>
<path d="M184.096 72.4167C183.521 72.4167 182.946 72.4167 182.371 72.4167C182.394 72.1526 182.416 71.8891 182.438 71.625C183.911 71.625 185.383 71.625 186.855 71.625C186.833 71.8891 186.81 72.1526 186.787 72.4167C186.213 72.4167 185.637 72.4167 185.063 72.4167C184.94 73.8328 184.812 75.2495 184.68 76.6668C184.358 76.6668 184.036 76.6668 183.714 76.6668C183.846 75.2495 183.973 73.8328 184.096 72.4167Z" fill="black"/>
<path d="M190.541 76.6701C190.233 76.1778 189.924 75.6856 189.614 75.1933C189.546 75.2007 189.479 75.2007 189.413 75.2007C189.022 75.2007 188.629 75.2007 188.238 75.2007C188.193 75.6905 188.148 76.1803 188.102 76.6707C187.78 76.6707 187.458 76.6707 187.136 76.6707C187.294 74.9893 187.444 73.3091 187.586 71.6289C188.3 71.6289 189.014 71.6289 189.728 71.6289C191.096 71.6289 191.887 72.3053 191.789 73.4219C191.722 74.1858 191.269 74.7469 190.538 75.0135C190.887 75.5659 191.235 76.1183 191.582 76.6707C191.235 76.6701 190.889 76.6701 190.541 76.6701ZM189.616 72.42C189.239 72.42 188.862 72.42 188.485 72.42C188.427 73.0896 188.369 73.7598 188.308 74.4294C188.684 74.4294 189.061 74.4294 189.438 74.4294C190.287 74.4294 190.76 74.055 190.815 73.4213C190.871 72.7871 190.463 72.42 189.616 72.42Z" fill="black"/>
<path d="M196.059 75.5C195.191 75.5 194.324 75.5 193.456 75.5C193.249 75.8887 193.042 76.2781 192.835 76.6668C192.502 76.6668 192.17 76.6668 191.838 76.6668C192.776 74.9854 193.708 73.3052 194.631 71.625C194.949 71.625 195.266 71.625 195.583 71.625C196.224 73.3052 196.857 74.986 197.482 76.6668C197.145 76.6668 196.808 76.6668 196.471 76.6668C196.334 76.2775 196.196 75.8887 196.059 75.5ZM195.806 74.7653C195.545 74.0306 195.283 73.2959 195.02 72.5612C194.631 73.2959 194.241 74.0306 193.85 74.7653C194.502 74.7653 195.154 74.7653 195.806 74.7653Z" fill="black"/>
<path d="M197.932 74.1469C198.067 72.6415 199.348 71.5547 200.946 71.5547C201.794 71.5547 202.498 71.8498 202.934 72.3973C202.709 72.587 202.485 72.7767 202.26 72.9664C201.915 72.5703 201.464 72.3756 200.92 72.3756C199.842 72.3756 198.998 73.1096 198.905 74.1469C198.814 75.1842 199.525 75.9195 200.604 75.9195C201.146 75.9195 201.632 75.7248 202.049 75.3212C202.24 75.5134 202.43 75.7056 202.621 75.8978C202.087 76.4459 201.329 76.741 200.475 76.741C198.883 76.7404 197.798 75.6523 197.932 74.1469Z" fill="black"/>
<path d="M204.86 72.4167C204.285 72.4167 203.71 72.4167 203.135 72.4167C203.157 72.1526 203.18 71.8891 203.202 71.625C204.675 71.625 206.147 71.625 207.619 71.625C207.597 71.8891 207.575 72.1526 207.552 72.4167C206.977 72.4167 206.402 72.4167 205.827 72.4167C205.705 73.8328 205.577 75.2495 205.444 76.6668C205.122 76.6668 204.8 76.6668 204.478 76.6668C204.61 75.2495 204.739 73.8328 204.86 72.4167Z" fill="black"/>
<path d="M161.977 83.7614C154.958 83.7614 147.938 83.7614 140.919 83.7614C140.577 83.7614 140.299 83.4923 140.3 83.16C140.301 82.8283 140.578 82.5586 140.921 82.5586C147.941 82.5586 154.959 82.5586 161.979 82.5586C162.321 82.5586 162.599 82.8277 162.598 83.16C162.597 83.4923 162.321 83.7614 161.977 83.7614Z" fill="#263238"/>
<path d="M151.094 87.0114C147.584 87.0114 144.075 87.0114 140.565 87.0114C140.223 87.0114 139.947 86.7423 139.95 86.41C139.952 86.0777 140.232 85.8086 140.573 85.8086C144.083 85.8086 147.593 85.8086 151.102 85.8086C151.445 85.8086 151.72 86.0777 151.719 86.41C151.715 86.7423 151.437 87.0114 151.094 87.0114Z" fill="#263238"/>
<path d="M226.207 104.001C196.945 104.001 167.682 104.001 138.419 104.001C138.077 104.001 137.809 103.731 137.822 103.399C137.833 103.067 138.121 102.797 138.463 102.797C167.726 102.797 196.989 102.797 226.251 102.797C226.593 102.797 226.861 103.067 226.849 103.399C226.837 103.732 226.549 104.001 226.207 104.001Z" fill="#263238"/>
<path d="M225.672 107.712C196.409 107.712 167.146 107.712 137.884 107.712C137.542 107.712 137.275 107.443 137.29 107.11C137.304 106.778 137.592 106.507 137.935 106.508C167.198 106.508 196.461 106.508 225.723 106.508C226.066 106.508 226.332 106.778 226.318 107.11C226.302 107.443 226.014 107.712 225.672 107.712Z" fill="#263238"/>
<path d="M225.112 111.424C195.85 111.424 166.587 111.424 137.325 111.424C136.982 111.424 136.719 111.154 136.735 110.821C136.751 110.488 137.04 110.219 137.384 110.219C166.646 110.219 195.909 110.219 225.172 110.219C225.514 110.219 225.779 110.488 225.763 110.821C225.745 111.155 225.454 111.424 225.112 111.424Z" fill="#263238"/>
<path d="M224.529 115.139C195.266 115.139 166.003 115.139 136.741 115.139C136.397 115.139 136.137 114.869 136.155 114.536C136.173 114.203 136.466 113.934 136.808 113.934C166.07 113.934 195.333 113.934 224.596 113.934C224.937 113.934 225.202 114.203 225.183 114.536C225.164 114.869 224.87 115.139 224.529 115.139Z" fill="#263238"/>
<path d="M223.923 118.85C194.66 118.85 165.397 118.85 136.135 118.85C135.794 118.85 135.532 118.58 135.552 118.247C135.572 117.914 135.868 117.645 136.21 117.645C165.472 117.645 194.735 117.645 223.998 117.645C224.34 117.645 224.602 117.914 224.581 118.247C224.558 118.58 224.266 118.85 223.923 118.85Z" fill="#263238"/>
<path d="M223.292 122.565C194.03 122.565 164.767 122.565 135.504 122.565C135.162 122.565 134.903 122.295 134.926 121.962C134.948 121.629 135.244 121.359 135.587 121.359C164.849 121.359 194.112 121.359 223.375 121.359C223.718 121.359 223.976 121.629 223.954 121.962C223.931 122.295 223.635 122.565 223.292 122.565Z" fill="#263238"/>
<path d="M222.638 126.279C193.375 126.279 164.113 126.279 134.85 126.279C134.508 126.279 134.25 126.01 134.275 125.677C134.3 125.343 134.598 125.074 134.94 125.074C164.202 125.074 193.465 125.074 222.727 125.074C223.069 125.074 223.328 125.344 223.303 125.677C223.278 126.01 222.979 126.279 222.638 126.279Z" fill="#263238"/>
<path d="M221.96 129.994C192.697 129.994 163.434 129.994 134.172 129.994C133.828 129.994 133.574 129.725 133.601 129.392C133.627 129.058 133.927 128.789 134.269 128.789C163.532 128.789 192.794 128.789 222.057 128.789C222.399 128.789 222.656 129.059 222.629 129.392C222.601 129.725 222.303 129.994 221.96 129.994Z" fill="#263238"/>
<path d="M177.858 133.709C163.062 133.709 148.266 133.709 133.47 133.709C133.128 133.709 132.873 133.439 132.903 133.107C132.934 132.774 133.233 132.504 133.576 132.504C148.372 132.504 163.168 132.504 177.964 132.504C178.307 132.504 178.561 132.774 178.532 133.107C178.502 133.439 178.2 133.709 177.858 133.709Z" fill="#263238"/>
<path d="M229.359 83.7614C224.313 83.7614 219.267 83.7614 214.22 83.7614C213.879 83.7614 213.601 83.4923 213.602 83.16C213.6 82.8283 213.88 82.5586 214.222 82.5586C219.268 82.5586 224.315 82.5586 229.361 82.5586C229.703 82.5586 229.981 82.8277 229.981 83.16C229.981 83.4923 229.703 83.7614 229.359 83.7614Z" fill="#263238"/>
<path d="M220.307 138.748C194.16 138.748 168.014 138.748 141.866 138.748C141.523 138.748 141.272 138.479 141.305 138.146C141.336 137.812 141.639 137.543 141.982 137.543C168.129 137.543 194.276 137.543 220.423 137.543C220.766 137.543 221.017 137.813 220.985 138.146C220.953 138.479 220.65 138.748 220.307 138.748Z" fill="#263238"/>
<path d="M219.51 142.463C190.247 142.463 160.984 142.463 131.722 142.463C131.379 142.463 131.13 142.193 131.164 141.86C131.198 141.528 131.503 141.258 131.845 141.258C161.108 141.258 190.371 141.258 219.633 141.258C219.976 141.258 220.227 141.528 220.192 141.86C220.158 142.193 219.853 142.463 219.51 142.463Z" fill="#263238"/>
<path d="M218.728 146.178C189.465 146.178 160.202 146.178 130.94 146.178C130.598 146.178 130.349 145.908 130.386 145.575C130.422 145.242 130.73 144.973 131.072 144.973C160.334 144.973 189.597 144.973 218.859 144.973C219.202 144.973 219.451 145.242 219.414 145.575C219.377 145.908 219.071 146.178 218.728 146.178Z" fill="#263238"/>
<path d="M217.922 149.889C188.66 149.889 159.397 149.889 130.134 149.889C129.791 149.889 129.546 149.619 129.584 149.286C129.622 148.953 129.931 148.684 130.273 148.684C159.536 148.684 188.799 148.684 218.061 148.684C218.405 148.684 218.65 148.953 218.612 149.286C218.573 149.619 218.264 149.888 217.922 149.889Z" fill="#263238"/>
<path d="M217.093 153.604C187.83 153.604 158.568 153.604 129.306 153.604C128.965 153.604 128.718 153.334 128.759 153.001C128.799 152.668 129.11 152.398 129.452 152.398C158.715 152.398 187.977 152.398 217.24 152.398C217.582 152.398 217.829 152.668 217.787 153.001C217.746 153.334 217.435 153.604 217.093 153.604Z" fill="#263238"/>
<path d="M160.441 157.315C149.778 157.315 139.115 157.315 128.453 157.315C128.111 157.315 127.867 157.045 127.91 156.712C127.953 156.379 128.264 156.11 128.607 156.109C139.27 156.109 149.933 156.109 160.595 156.109C160.938 156.109 161.18 156.378 161.138 156.712C161.095 157.046 160.783 157.315 160.441 157.315Z" fill="#263238"/>
<g opacity="0.1">
<path d="M207.002 217.86C172.537 217.86 138.071 217.86 103.605 217.86C122.589 161.925 134.059 105.145 136.626 49.2109C171.092 49.2109 205.557 49.2109 240.022 49.2109C237.456 105.145 225.986 161.925 207.002 217.86Z" fill="black"/>
</g>
<path d="M192.964 206.909C158.498 206.909 124.033 206.909 89.5674 206.909C113.413 154.607 129.198 101.514 136.627 49.2109C171.092 49.2109 205.558 49.2109 240.023 49.2109C232.594 101.513 216.809 154.606 192.964 206.909Z" fill="white"/>
<path d="M231.037 65.791C200.829 65.791 170.622 65.791 140.414 65.791C140.244 65.791 140.112 65.6657 140.122 65.5107C140.131 65.3557 140.278 65.2305 140.45 65.2305C170.658 65.2305 200.865 65.2305 231.073 65.2305C231.244 65.2305 231.376 65.3557 231.365 65.5107C231.354 65.6657 231.208 65.791 231.037 65.791Z" fill="#263238"/>
<path d="M152.638 58.35C152.245 60.8033 149.704 62.7935 146.99 62.7935C144.275 62.7935 142.413 60.8033 142.807 58.35C143.201 55.8966 145.7 53.9102 148.415 53.9102C151.129 53.9102 153.031 55.8973 152.638 58.35Z" fill="#407BFF"/>
<path d="M144.957 57.6835C144.961 57.6835 142.164 60.8294 142.898 61.791C143.643 62.7514 151.257 57.3561 153.086 55.511C154.923 53.6653 152.826 54.4037 152.826 54.4037C152.826 54.4037 153.601 54.4428 153.162 55.0125C152.275 56.175 145.106 60.3303 144.402 60.1096C143.704 59.8876 144.959 57.6835 144.957 57.6835Z" fill="#263238"/>
<path d="M231.377 56.8625C228.27 56.8625 225.163 56.8625 222.057 56.8625C221.714 56.8625 221.448 56.6114 221.462 56.3027C221.476 55.9933 221.764 55.7422 222.107 55.7422C225.214 55.7422 228.32 55.7422 231.427 55.7422C231.77 55.7422 232.037 55.9933 232.022 56.3027C232.009 56.6114 231.719 56.8625 231.377 56.8625Z" fill="#263238"/>
<path d="M230.96 59.4725C228.957 59.4725 226.954 59.4725 224.951 59.4725C224.608 59.4725 224.345 59.2214 224.359 58.912C224.376 58.6027 224.666 58.3516 225.007 58.3516C227.011 58.3516 229.014 58.3516 231.016 58.3516C231.359 58.3516 231.623 58.6027 231.609 58.912C231.594 59.2214 231.303 59.4725 230.96 59.4725Z" fill="#263238"/>
<path d="M230.528 62.0858C225.296 62.0858 220.063 62.0858 214.831 62.0858C214.489 62.0858 214.224 61.8347 214.242 61.5253C214.258 61.2159 214.55 60.9648 214.892 60.9648C220.124 60.9648 225.357 60.9648 230.59 60.9648C230.933 60.9648 231.195 61.2159 231.179 61.5253C231.164 61.8347 230.872 62.0858 230.528 62.0858Z" fill="#263238"/>
<path d="M132.615 198.152C122.038 198.152 111.463 198.152 100.886 198.152C100.544 198.152 100.349 197.902 100.448 197.592C100.549 197.282 100.908 197.031 101.251 197.031C111.827 197.031 122.403 197.031 132.98 197.031C133.322 197.031 133.519 197.282 133.417 197.592C133.316 197.902 132.957 198.152 132.615 198.152Z" fill="#263238"/>
<path d="M189.594 198.152C177.392 198.152 165.188 198.152 152.985 198.152C152.644 198.152 152.448 197.902 152.548 197.592C152.649 197.282 153.007 197.031 153.35 197.031C165.553 197.031 177.756 197.031 189.959 197.031C190.301 197.031 190.498 197.282 190.397 197.592C190.297 197.902 189.936 198.152 189.594 198.152Z" fill="#263238"/>
<path d="M138.316 165.688C132.709 165.688 127.102 165.688 121.495 165.688C121.154 165.688 120.943 165.437 121.022 165.125C121.103 164.815 121.446 164.563 121.788 164.562C127.396 164.562 133.002 164.562 138.61 164.562C138.951 164.562 139.165 164.814 139.083 165.125C139.002 165.436 138.659 165.688 138.316 165.688Z" fill="#263238"/>
<path d="M196.698 165.688C188.529 165.688 180.361 165.688 172.193 165.688C171.851 165.688 171.639 165.437 171.72 165.125C171.8 164.815 172.144 164.563 172.486 164.562C180.654 164.562 188.822 164.562 196.991 164.562C197.334 164.562 197.545 164.814 197.465 165.125C197.385 165.436 197.04 165.688 196.698 165.688Z" fill="#263238"/>
<path d="M169.956 191.587C169.353 191.587 168.843 191.488 168.461 191.266C167.668 190.809 167.478 190.034 167.904 189.026C167.964 188.885 168.036 188.74 168.118 188.592C165.53 189.555 162.864 190.268 160.657 190.411C159.132 190.508 158.763 189.912 158.721 189.392C158.648 188.468 159.556 186.994 161.002 185.291C157.651 186.789 155.194 187.704 155.145 187.722C154.968 187.788 154.803 187.726 154.775 187.585C154.745 187.445 154.865 187.278 155.04 187.213C155.096 187.192 158.018 186.104 161.827 184.358C165.695 180.142 172.128 174.962 175.473 173.183C177.871 171.91 179.264 171.565 179.622 172.154C180.183 173.08 177.443 175.855 172.922 178.9C169.56 181.165 165.549 183.206 162.186 184.753C160.439 186.666 159.294 188.311 159.364 189.205C159.379 189.387 159.423 189.939 160.786 189.85C163.06 189.702 165.899 188.904 168.599 187.855C170.534 185.242 175.029 182.152 177.088 181.637C177.881 181.438 178.196 181.643 178.321 181.849C178.439 182.044 178.489 182.394 178.059 182.951C176.961 184.375 173.151 186.61 168.963 188.267C168.77 188.55 168.613 188.823 168.504 189.082C168.173 189.868 168.305 190.42 168.911 190.771C170.303 191.573 173.896 190.433 177.421 188.794C177.446 188.62 177.503 188.433 177.59 188.234C178.582 185.976 183.432 182.482 186.014 182.634C186.526 182.665 186.647 182.893 186.66 183.079C186.713 183.895 184.531 185.417 182.687 186.548C181.39 187.345 179.767 188.236 178.072 189.044C178.156 189.351 178.458 189.545 178.983 189.631C182.818 190.264 191.789 184.641 191.87 184.584C192.029 184.482 192.221 184.495 192.298 184.613C192.376 184.73 192.307 184.908 192.147 185.009C191.779 185.249 182.811 190.867 178.705 190.185C178.014 190.07 177.589 189.773 177.453 189.334C174.712 190.595 171.865 191.586 169.956 191.587ZM185.672 183.193C183.404 183.193 179.03 186.38 178.183 188.302C178.16 188.358 178.137 188.412 178.12 188.464C179.659 187.718 181.156 186.896 182.418 186.12C185.071 184.489 186.032 183.497 186.016 183.256C186.015 183.241 185.962 183.206 185.805 183.196C185.763 183.194 185.718 183.193 185.672 183.193ZM177.494 182.119C177.365 182.119 177.213 182.149 177.106 182.177C175.332 182.621 171.577 185.174 169.596 187.455C173.321 185.907 176.603 183.964 177.554 182.731C177.739 182.492 177.799 182.314 177.734 182.206C177.696 182.141 177.604 182.119 177.494 182.119ZM178.814 172.44C178.434 172.44 177.538 172.671 175.694 173.648C172.493 175.349 166.894 179.894 163.137 183.748C166.207 182.294 169.67 180.478 172.621 178.489C177.378 175.281 179.293 172.923 179.041 172.506C179.02 172.47 178.951 172.44 178.814 172.44Z" fill="#263238"/>
<path d="M163.381 72.5258C163.646 71.1184 165.021 70.1016 166.621 70.1016C167.469 70.1016 168.147 70.3775 168.534 70.8896C168.293 71.0669 168.052 71.2442 167.811 71.4215C167.5 71.0514 167.066 70.8691 166.523 70.8691C165.445 70.8691 164.537 71.5561 164.354 72.5258C164.171 73.4954 164.82 74.1836 165.898 74.183C166.44 74.183 166.945 74.0007 167.396 73.6238C167.569 73.8036 167.743 73.9828 167.917 74.1626C167.337 74.6747 166.554 74.9506 165.698 74.9506C164.106 74.9512 163.116 73.9338 163.381 72.5258Z" fill="black"/>
<path d="M168.678 72.5258C168.94 71.132 170.319 70.1016 171.933 70.1016C173.546 70.1016 174.549 71.1246 174.285 72.5258C174.02 73.927 172.632 74.9506 171.018 74.9506C169.405 74.9512 168.416 73.9208 168.678 72.5258ZM173.311 72.5258C173.492 71.5629 172.84 70.8691 171.791 70.8691C170.743 70.8691 169.833 71.5629 169.652 72.5258C169.47 73.4886 170.118 74.183 171.167 74.183C172.215 74.1836 173.128 73.4892 173.311 72.5258Z" fill="black"/>
<path d="M180.378 70.168C180.089 71.739 179.793 73.3108 179.489 74.8825C179.224 74.8825 178.959 74.8825 178.694 74.8825C177.942 73.8179 177.188 72.7534 176.43 71.6895C176.232 72.7534 176.029 73.8179 175.824 74.8825C175.504 74.8825 175.184 74.8825 174.865 74.8825C175.169 73.3101 175.465 71.739 175.754 70.168C176.019 70.168 176.284 70.168 176.549 70.168C177.311 71.2319 178.068 72.2958 178.823 73.3604C179.025 72.2964 179.225 71.2319 179.419 70.168C179.739 70.168 180.059 70.168 180.378 70.168Z" fill="black"/>
<path d="M182.699 70.9082C182.124 70.9082 181.549 70.9082 180.974 70.9082C181.02 70.6615 181.065 70.4147 181.111 70.168C182.583 70.168 184.055 70.168 185.527 70.168C185.482 70.4147 185.436 70.6615 185.391 70.9082C184.816 70.9082 184.241 70.9082 183.666 70.9082C183.421 72.2326 183.17 73.5575 182.914 74.8825C182.592 74.8825 182.27 74.8825 181.948 74.8825C182.202 73.5569 182.453 72.2326 182.699 70.9082Z" fill="black"/>
<path d="M188.776 74.8825C188.51 74.4218 188.244 73.9618 187.977 73.5011C187.908 73.5079 187.841 73.5079 187.775 73.5079C187.384 73.5079 186.991 73.5079 186.6 73.5079C186.513 73.9661 186.425 74.4243 186.337 74.8825C186.014 74.8825 185.693 74.8825 185.37 74.8825C185.674 73.3101 185.97 71.739 186.259 70.168C186.973 70.168 187.686 70.168 188.401 70.168C189.768 70.168 190.501 70.8004 190.306 71.8445C190.173 72.5587 189.67 73.0832 188.917 73.3325C189.217 73.8489 189.517 74.3654 189.817 74.8818C189.47 74.8825 189.122 74.8825 188.776 74.8825ZM188.218 70.9082C187.842 70.9082 187.465 70.9082 187.088 70.9082C186.972 71.5344 186.855 72.1607 186.736 72.7875C187.112 72.7875 187.489 72.7875 187.866 72.7875C188.714 72.7875 189.22 72.4372 189.331 71.8451C189.442 71.2517 189.067 70.9082 188.218 70.9082Z" fill="black"/>
<path d="M194.394 73.7912C193.526 73.7912 192.659 73.7912 191.791 73.7912C191.55 74.1552 191.31 74.5185 191.069 74.8825C190.736 74.8825 190.404 74.8825 190.072 74.8825C191.157 73.3101 192.234 71.739 193.303 70.168C193.621 70.168 193.938 70.168 194.255 70.168C194.749 71.739 195.236 73.3108 195.716 74.8825C195.379 74.8825 195.042 74.8825 194.705 74.8825C194.601 74.5191 194.498 74.1552 194.394 73.7912ZM194.205 73.1043C194.008 72.4173 193.81 71.7304 193.611 71.0434C193.159 71.7304 192.705 72.4173 192.25 73.1043C192.901 73.1043 193.553 73.1043 194.205 73.1043Z" fill="black"/>
<path d="M196.385 72.5258C196.651 71.1184 198.026 70.1016 199.624 70.1016C200.472 70.1016 201.151 70.3775 201.538 70.8896C201.298 71.0669 201.056 71.2442 200.815 71.4215C200.504 71.0514 200.07 70.8691 199.527 70.8691C198.449 70.8691 197.542 71.5561 197.358 72.5258C197.176 73.4954 197.824 74.1836 198.902 74.183C199.445 74.183 199.948 74.0007 200.399 73.6238C200.573 73.8036 200.747 73.9828 200.921 74.1626C200.339 74.6747 199.555 74.9506 198.702 74.9506C197.109 74.9512 196.119 73.9338 196.385 72.5258Z" fill="black"/>
<path d="M203.463 70.9082C202.889 70.9082 202.313 70.9082 201.738 70.9082C201.783 70.6615 201.829 70.4147 201.874 70.168C203.347 70.168 204.819 70.168 206.291 70.168C206.246 70.4147 206.201 70.6615 206.155 70.9082C205.579 70.9082 205.005 70.9082 204.43 70.9082C204.184 72.2326 203.934 73.5575 203.678 74.8825C203.356 74.8825 203.034 74.8825 202.711 74.8825C202.967 73.5569 203.218 72.2326 203.463 70.9082Z" fill="black"/>
<path d="M159.594 81.5153C152.575 81.5153 145.555 81.5153 138.536 81.5153C138.194 81.5153 137.939 81.2636 137.97 80.953C137.999 80.6423 138.3 80.3906 138.642 80.3906C145.662 80.3906 152.68 80.3906 159.7 80.3906C160.043 80.3906 160.297 80.6423 160.267 80.953C160.238 81.2636 159.938 81.5153 159.594 81.5153Z" fill="#263238"/>
<path d="M148.429 84.5544C144.919 84.5544 141.41 84.5544 137.9 84.5544C137.557 84.5544 137.305 84.3027 137.337 83.992C137.368 83.6814 137.671 83.4297 138.013 83.4297C141.522 83.4297 145.032 83.4297 148.542 83.4297C148.885 83.4297 149.136 83.6814 149.106 83.992C149.074 84.302 148.772 84.5544 148.429 84.5544Z" fill="#263238"/>
<path d="M222.064 100.438C192.802 100.438 163.539 100.438 134.276 100.438C133.933 100.438 133.69 100.186 133.731 99.8755C133.771 99.5648 134.082 99.3125 134.424 99.3125C163.687 99.3125 192.95 99.3125 222.213 99.3125C222.554 99.3125 222.799 99.5648 222.759 99.8755C222.718 100.186 222.407 100.438 222.064 100.438Z" fill="#263238"/>
<path d="M221.207 103.911C191.944 103.911 162.682 103.911 133.419 103.911C133.078 103.911 132.834 103.659 132.878 103.348C132.921 103.037 133.232 102.785 133.576 102.785C162.838 102.785 192.101 102.785 221.364 102.785C221.706 102.785 221.949 103.038 221.906 103.348C221.861 103.659 221.549 103.911 221.207 103.911Z" fill="#263238"/>
<path d="M220.325 107.381C191.062 107.381 161.799 107.381 132.537 107.381C132.194 107.381 131.954 107.129 131.999 106.817C132.044 106.506 132.357 106.255 132.701 106.254C161.964 106.254 191.226 106.254 220.489 106.254C220.831 106.254 221.073 106.506 221.027 106.817C220.981 107.129 220.667 107.381 220.325 107.381Z" fill="#263238"/>
<path d="M219.419 110.854C190.156 110.854 160.893 110.854 131.631 110.854C131.287 110.854 131.05 110.602 131.097 110.29C131.144 109.979 131.461 109.727 131.802 109.727C161.065 109.727 190.328 109.727 219.59 109.727C219.932 109.727 220.172 109.978 220.124 110.29C220.078 110.601 219.761 110.854 219.419 110.854Z" fill="#263238"/>
<path d="M218.49 114.326C189.228 114.326 159.965 114.326 130.702 114.326C130.361 114.326 130.122 114.074 130.172 113.763C130.22 113.452 130.54 113.199 130.881 113.199C160.144 113.199 189.406 113.199 218.669 113.199C219.011 113.199 219.25 113.451 219.2 113.763C219.148 114.074 218.833 114.326 218.49 114.326Z" fill="#263238"/>
<path d="M217.536 117.799C188.274 117.799 159.011 117.799 129.749 117.799C129.407 117.799 129.171 117.547 129.222 117.235C129.274 116.924 129.593 116.672 129.935 116.672C159.198 116.672 188.461 116.672 217.724 116.672C218.067 116.672 218.301 116.924 218.251 117.235C218.199 117.547 217.879 117.799 217.536 117.799Z" fill="#263238"/>
<path d="M216.56 121.272C187.297 121.272 158.034 121.272 128.771 121.272C128.43 121.272 128.195 121.019 128.249 120.708C128.303 120.396 128.625 120.145 128.967 120.145C158.23 120.145 187.492 120.145 216.754 120.145C217.096 120.145 217.331 120.397 217.277 120.708C217.223 121.02 216.901 121.272 216.56 121.272Z" fill="#263238"/>
<path d="M215.558 124.748C186.295 124.748 157.033 124.748 127.77 124.748C127.426 124.748 127.196 124.496 127.251 124.185C127.307 123.873 127.631 123.621 127.973 123.621C157.235 123.621 186.498 123.621 215.76 123.621C216.102 123.621 216.336 123.873 216.279 124.185C216.223 124.497 215.901 124.748 215.558 124.748Z" fill="#263238"/>
<path d="M171.134 128.221C156.337 128.221 141.542 128.221 126.745 128.221C126.404 128.221 126.172 127.969 126.231 127.657C126.29 127.345 126.613 127.094 126.955 127.094C141.752 127.094 156.547 127.094 171.344 127.094C171.687 127.094 171.917 127.346 171.859 127.657C171.801 127.969 171.476 128.221 171.134 128.221Z" fill="#263238"/>
<path d="M226.976 81.5153C221.93 81.5153 216.884 81.5153 211.838 81.5153C211.496 81.5153 211.242 81.2636 211.271 80.953C211.299 80.6423 211.601 80.3906 211.944 80.3906C216.99 80.3906 222.036 80.3906 227.082 80.3906C227.424 80.3906 227.679 80.6423 227.649 80.953C227.621 81.2636 227.32 81.5153 226.976 81.5153Z" fill="#263238"/>
<path d="M213.145 132.932C186.998 132.932 160.851 132.932 134.704 132.932C134.361 132.932 134.133 132.68 134.195 132.368C134.255 132.056 134.581 131.805 134.925 131.805C161.072 131.805 187.218 131.805 213.365 131.805C213.708 131.805 213.936 132.056 213.875 132.368C213.814 132.68 213.488 132.932 213.145 132.932Z" fill="#263238"/>
<path d="M212.025 136.404C182.762 136.404 153.5 136.404 124.237 136.404C123.894 136.404 123.669 136.152 123.732 135.841C123.796 135.53 124.123 135.277 124.466 135.277C153.728 135.277 182.991 135.277 212.254 135.277C212.597 135.277 212.824 135.529 212.76 135.841C212.697 136.153 212.368 136.404 212.025 136.404Z" fill="#263238"/>
<path d="M210.92 139.877C181.658 139.877 152.394 139.877 123.132 139.877C122.79 139.877 122.565 139.625 122.631 139.314C122.695 139.002 123.027 138.75 123.368 138.75C152.631 138.75 181.894 138.75 211.156 138.75C211.499 138.75 211.725 139.002 211.658 139.314C211.592 139.625 211.263 139.877 210.92 139.877Z" fill="#263238"/>
<path d="M209.792 143.35C180.53 143.35 151.267 143.35 122.004 143.35C121.661 143.35 121.44 143.098 121.507 142.786C121.574 142.475 121.906 142.223 122.248 142.223C151.51 142.223 180.774 142.223 210.036 142.223C210.379 142.223 210.601 142.474 210.534 142.786C210.465 143.098 210.134 143.35 209.792 143.35Z" fill="#263238"/>
<path d="M208.64 146.822C179.378 146.822 150.115 146.822 120.852 146.822C120.511 146.822 120.288 146.571 120.358 146.259C120.427 145.948 120.762 145.695 121.103 145.695C150.366 145.695 179.628 145.695 208.891 145.695C209.232 145.695 209.456 145.947 209.386 146.259C209.317 146.571 208.983 146.822 208.64 146.822Z" fill="#263238"/>
<path d="M151.665 150.295C141.002 150.295 130.339 150.295 119.676 150.295C119.335 150.295 119.114 150.043 119.187 149.732C119.259 149.42 119.593 149.169 119.936 149.168C130.598 149.168 141.261 149.168 151.924 149.168C152.266 149.168 152.485 149.42 152.415 149.732C152.342 150.043 152.007 150.296 151.665 150.295Z" fill="#263238"/>
<g opacity="0.2">
<path d="M148.335 178.131C148.651 177.854 149.442 177.242 149.917 176.877C150.123 176.719 150.39 176.702 150.503 176.84C150.768 177.165 151.034 177.49 151.3 177.815C151.3 177.815 150.416 178.802 150.134 179.136C147.282 182.518 145.575 185.765 145.803 186.387C148.719 186.088 167.755 176.77 176.284 171.293C174.39 167.34 169.889 164.871 163.757 165.15C155.029 165.548 145.655 171.642 141.633 179.378C140.202 182.132 139.58 184.757 139.647 187.108C142.694 183.246 146.784 179.487 148.335 178.131Z" fill="black"/>
<path d="M142.671 194.046C144.763 195.987 147.868 197.135 151.774 197.135C161.527 197.135 172.588 189.988 176.152 181.149C177.127 178.734 177.439 176.445 177.183 174.391C168.446 180.624 151.481 190.826 142.671 194.046Z" fill="black"/>
<path d="M149.125 178.748C149.158 178.75 136.306 190.082 138.013 193.533C139.833 196.992 172.174 177.583 180.177 170.912C188.291 164.248 180.143 166.913 180.15 166.913C180.148 166.913 182.902 167.054 180.862 169.112C176.778 173.315 147.343 188.286 144.976 187.485C142.684 186.689 149.143 178.749 149.125 178.748Z" fill="black"/>
</g>
<path d="M109.795 192.744C105.237 192.744 104.323 190.976 104.37 189.454C104.527 184.94 113.327 177.218 122.504 173.566C127.544 171.564 131.563 171.438 132.746 173.248C133.716 174.737 132.524 177.207 129.451 180.021C123.375 185.578 118.351 186.843 116.132 185.636C115.79 185.452 115.535 185.216 115.364 184.944C114.801 185.208 114.192 185.48 113.535 185.755C113.36 185.828 113.189 185.776 113.151 185.639C113.111 185.502 113.22 185.332 113.393 185.259C114.049 184.984 114.637 184.722 115.165 184.474C115.031 183.937 115.17 183.312 115.587 182.679C116.448 181.379 118.016 180.731 119.048 180.779C119.634 180.808 119.974 181.069 119.955 181.48C119.916 182.287 118.531 183.385 115.992 184.641C116.125 184.834 116.317 185.002 116.565 185.136C118.069 185.955 122.438 185.731 129.044 179.69C131.871 177.101 133.001 174.885 132.17 173.609C131.14 172.03 127.31 172.215 122.637 174.069C113.714 177.617 105.16 185.029 105.012 189.316C104.95 191.302 106.852 192.295 110.554 192.172C115.277 192.022 120.273 190.099 124.47 187.83C125.795 185.292 129.66 181.995 133.748 180.015C134.568 179.618 135.037 179.53 135.256 179.728C135.427 179.88 135.393 180.142 135.155 180.507C134.302 181.822 130.237 185.216 124.966 188.096C124.894 188.244 124.835 188.39 124.785 188.53C124.51 189.32 124.611 189.924 125.094 190.325C126.841 191.775 133.195 187.451 135.473 185.661C135.623 185.546 135.819 185.534 135.919 185.636C136.017 185.738 135.975 185.916 135.826 186.032C135.483 186.311 127.052 192.827 124.587 190.777C123.977 190.269 123.833 189.489 124.166 188.523C119.907 190.756 114.966 192.586 110.398 192.732C110.193 192.741 109.989 192.744 109.795 192.744ZM134.697 180.198C134.592 180.219 134.369 180.285 133.938 180.493C130.399 182.206 126.942 185.026 125.426 187.303C128.609 185.494 131.254 183.541 132.872 182.129C134.156 181.009 134.594 180.411 134.697 180.198ZM118.779 181.339C118.069 181.339 116.827 181.795 116.123 182.858C115.817 183.317 115.711 183.773 115.791 184.172C118.482 182.839 119.298 181.956 119.314 181.602C119.324 181.387 118.995 181.348 118.852 181.341C118.829 181.34 118.804 181.339 118.779 181.339Z" fill="#407BFF"/>
</svg>
