<svg width="200" height="160" viewBox="0 0 200 160" fill="none" xmlns="http://www.w3.org/2000/svg">
<path d="M20.365 158.571C20.4895 153.106 21.4319 147.583 23.1628 142.082C22.3809 142.367 21.6255 142.686 20.8964 143.034C20.4123 145.069 19.9596 147.122 19.0289 149.128C18.9578 149.281 18.5437 149.277 18.5351 149.128C18.4386 147.447 18.7281 145.719 19.0787 144C17.9026 144.692 16.8185 145.47 15.8425 146.322C16.3937 148.001 16.9704 149.678 17.4418 151.371C17.9448 153.179 18.6367 154.958 18.7591 156.828C18.7734 157.043 18.2724 157.191 18.1292 156.983C16.9805 155.317 16.4212 153.503 15.618 151.746C15.0596 150.525 14.5907 149.277 14.1188 148.032C12.8995 149.411 11.9347 150.93 11.2773 152.552C13.2881 154.437 14.9428 156.46 16.344 158.571H20.365V158.571Z" fill="#4079FF"/>
<path d="M23.5224 158.571C23.529 158.036 23.5382 157.5 23.5544 156.964C23.6448 153.965 23.8897 150.94 24.3749 147.921C24.6172 146.411 24.8286 144.893 25.2137 143.382C25.393 142.679 25.5896 141.978 25.7898 141.277C25.3391 141.391 24.8941 141.514 24.4567 141.648C24.3795 141.885 24.3027 142.123 24.2286 142.361C22.5434 147.763 21.6219 153.196 21.4766 158.571H23.5224Z" fill="#40ABFF"/>
<path d="M28.0687 158.569C28.2166 152.647 28.0413 146.75 27.5434 140.891C27.2742 140.941 27.0069 140.994 26.7417 141.052C26.6223 142.045 26.5248 143.039 26.3953 144.03C26.1809 145.674 25.9751 147.314 25.812 148.956C25.4925 152.172 25.366 155.379 25.4142 158.57H28.0687V158.569Z" fill="#40ABFF"/>
<path d="M45.2467 158.57C47.6523 155.716 50.3946 152.944 53.4413 150.29C53.2447 149.972 53.0344 149.66 52.8134 149.354C52.0945 150.077 51.4092 150.851 50.4759 151.463C50.3143 151.569 50.0192 151.481 50.0644 151.352C50.3885 150.429 51.3914 149.493 52.1986 148.661C52.2144 148.644 52.2306 148.628 52.2464 148.612C51.9502 148.245 51.6368 147.888 51.306 147.54C51.1541 147.753 51.0002 147.966 50.8508 148.179C49.724 149.792 48.7054 151.432 47.4328 153.014C47.2484 153.243 46.6418 153.222 46.7261 152.954C47.4104 150.781 48.6963 148.59 50.1833 146.453C49.5101 145.853 48.7852 145.287 48.0104 144.762C46.244 149.36 44.5842 153.964 42.9824 158.571H45.2467V158.57Z" fill="#4079FF"/>
<path d="M29.3022 158.569H33.4817C36.219 153.07 39.4826 147.626 43.2543 142.278C42.5471 142.003 41.817 141.757 41.0692 141.538C40.9315 141.725 40.7903 141.912 40.6552 142.099C39.3012 143.98 38.0063 145.88 36.8586 147.796C35.6942 149.74 34.798 151.755 33.4309 153.66C33.2287 153.942 32.583 153.88 32.6313 153.592C32.9605 151.614 34.0817 149.565 35.1288 147.625C36.1951 145.649 37.3621 143.689 38.7119 141.756C38.8735 141.525 39.0422 141.295 39.2068 141.065C38.5209 140.915 37.8224 140.789 37.1121 140.688C36.8734 141.324 36.6869 141.963 36.4964 142.609C36.4207 142.866 35.7694 142.938 35.7344 142.672C35.6434 141.978 35.7369 141.262 35.9533 140.549C35.3371 140.487 34.7132 140.443 34.0822 140.42C33.211 143.008 32.55 145.595 31.8835 148.188C31.7991 148.518 31.0747 148.495 31.0808 148.188C31.1336 145.614 31.6488 142.998 32.4362 140.402C31.1803 140.423 29.9494 140.523 28.752 140.693C28.8053 141.304 28.8586 141.914 28.9049 142.525C29.3088 147.847 29.4287 153.198 29.3022 158.569Z" fill="#4079FF"/>
<path d="M55.5517 158.57C55.5766 158.24 55.5893 157.907 55.5888 157.572C55.5878 157.25 55.5715 156.931 55.5476 156.613C54.687 157.256 53.8488 157.909 53.0293 158.57H55.5517Z" fill="#40ABFF"/>
<path d="M50.9093 158.567C52.3064 157.358 53.7812 156.179 55.3317 155.035C55.2185 154.46 55.0671 153.896 54.8811 153.341C54.4661 153.695 54.0596 154.052 53.6664 154.415C52.8764 155.146 52.1545 156.086 51.0572 156.669C50.9286 156.738 50.7498 156.687 50.7681 156.591C50.923 155.773 51.9193 154.885 52.6371 154.158C53.2361 153.553 53.8615 152.952 54.5153 152.363C54.4046 152.098 54.2872 151.836 54.1602 151.578C51.6317 153.833 49.3263 156.169 47.2637 158.567H50.9093V158.567Z" fill="#40ABFF"/>
<path d="M15.2299 158.567C14.0101 156.755 12.6095 155.008 10.9716 153.363C10.7308 154.082 10.5515 154.819 10.4336 155.57C11.502 156.495 12.417 157.495 13.0942 158.567H15.2299Z" fill="#40ABFF"/>
<path d="M12.3299 158.566C11.6512 158.034 10.977 157.501 10.2932 156.973C10.282 157.2 10.2749 157.427 10.2754 157.656C10.2759 157.962 10.2886 158.264 10.31 158.566H12.3299Z" fill="#40ABFF"/>
<path d="M37.4661 158.572C37.9751 157.406 38.5009 156.241 39.0461 155.077C40.1586 152.703 41.3805 150.338 42.645 147.981C43.4883 146.408 44.2707 144.761 45.2649 143.174C45.0911 143.088 44.9184 143 44.7416 142.918C41.1051 148.064 37.9482 153.293 35.2617 158.573H37.4661V158.572Z" fill="#40ABFF"/>
<path d="M41.1278 158.566C42.8337 153.643 44.6012 148.723 46.4931 143.81C46.3148 143.709 46.1314 143.613 45.949 143.516C45.6736 144 45.3922 144.484 45.1316 144.966C44.4229 146.278 43.7238 147.59 43.0527 148.906C41.4184 152.11 39.9603 155.333 38.6328 158.566H41.1278Z" fill="#40ABFF"/>
<path d="M60.0528 158.563C60.1269 155.322 60.6853 152.047 61.7115 148.785C61.2482 148.954 60.7996 149.143 60.3677 149.35C60.0807 150.556 59.812 151.774 59.2602 152.964C59.2181 153.055 58.9727 153.052 58.9676 152.964C58.9102 151.967 59.0819 150.942 59.2902 149.923C58.5927 150.333 57.9495 150.794 57.3714 151.299C57.698 152.295 58.0404 153.29 58.3199 154.294C58.6181 155.366 59.0286 156.421 59.1007 157.529C59.1088 157.657 58.8121 157.745 58.7273 157.621C58.046 156.634 57.7143 155.558 57.2383 154.516C56.907 153.792 56.6291 153.052 56.3492 152.314C55.6263 153.131 55.0537 154.032 54.6641 154.994C55.8564 156.111 56.8379 157.311 57.6686 158.563H60.0528Z" fill="#4079FF"/>
<path d="M61.93 158.563C61.9335 158.246 61.9391 157.929 61.9488 157.611C62.0021 155.832 62.1474 154.038 62.4355 152.248C62.5792 151.353 62.7047 150.452 62.9328 149.557C63.039 149.14 63.1559 148.724 63.2742 148.309C63.007 148.376 62.7428 148.449 62.4837 148.528C62.438 148.669 62.3923 148.81 62.3486 148.951C61.3493 152.155 60.8032 155.377 60.7168 158.564H61.93V158.563Z" fill="#40ABFF"/>
<path d="M64.6248 158.566C64.7127 155.054 64.6086 151.557 64.3134 148.082C64.1539 148.112 63.9954 148.144 63.8379 148.178C63.7673 148.767 63.7093 149.356 63.6326 149.943C63.5051 150.918 63.3837 151.891 63.2867 152.864C63.0972 154.772 63.022 156.673 63.0509 158.565H64.6248V158.566Z" fill="#40ABFF"/>
<path d="M74.8134 158.56C76.24 156.867 77.8662 155.223 79.6728 153.65C79.5564 153.461 79.4314 153.276 79.3004 153.094C78.8741 153.523 78.4677 153.982 77.9145 154.345C77.8184 154.408 77.6437 154.356 77.6706 154.279C77.8626 153.732 78.4575 153.177 78.9361 152.683C78.9453 152.673 78.9554 152.664 78.9646 152.654C78.7888 152.437 78.6028 152.225 78.4067 152.019C78.3168 152.145 78.2254 152.271 78.137 152.398C77.4689 153.354 76.8649 154.326 76.1099 155.265C76.0007 155.401 75.641 155.388 75.6908 155.229C76.0967 153.94 76.8588 152.641 77.7407 151.374C77.3414 151.018 76.9116 150.683 76.4523 150.371C75.4048 153.098 74.4207 155.828 73.4707 158.56H74.8134Z" fill="#4079FF"/>
<path d="M65.356 158.563H67.8342C69.4573 155.301 71.3929 152.073 73.6293 148.902C73.2096 148.739 72.7768 148.593 72.3333 148.463C72.252 148.574 72.1677 148.685 72.0879 148.796C71.2847 149.911 70.5171 151.038 69.8363 152.174C69.1459 153.327 68.6145 154.521 67.8037 155.651C67.6838 155.818 67.3012 155.782 67.3292 155.611C67.5242 154.438 68.1893 153.223 68.8101 152.073C69.4426 150.901 70.1345 149.739 70.9352 148.592C71.0307 148.455 71.1308 148.319 71.2288 148.182C70.8224 148.093 70.4078 148.018 69.9867 147.959C69.8449 148.336 69.7347 148.715 69.6214 149.098C69.5762 149.25 69.1906 149.293 69.1698 149.135C69.1159 148.724 69.1713 148.299 69.2998 147.876C68.9345 147.84 68.5647 147.814 68.1903 147.8C67.6736 149.334 67.2819 150.868 66.8867 152.406C66.8364 152.601 66.4071 152.588 66.4106 152.406C66.4416 150.88 66.7475 149.328 67.2143 147.789C66.4696 147.801 65.7395 147.86 65.0293 147.961C65.0608 148.324 65.0923 148.685 65.1197 149.048C65.36 152.204 65.4312 155.378 65.356 158.563Z" fill="#4079FF"/>
<path d="M80.9214 158.563C80.9362 158.367 80.9438 158.17 80.9433 157.971C80.9428 157.78 80.9331 157.591 80.9189 157.402C80.4088 157.783 79.9115 158.171 79.4258 158.563H80.9214Z" fill="#40ABFF"/>
<path d="M78.1661 158.566C78.9947 157.849 79.869 157.15 80.7886 156.471C80.7215 156.13 80.6316 155.795 80.5213 155.467C80.2754 155.676 80.0341 155.888 79.8009 156.104C79.3325 156.537 78.9043 157.094 78.2535 157.441C78.1773 157.481 78.0711 157.451 78.0823 157.394C78.1742 156.909 78.7651 156.382 79.1908 155.952C79.5459 155.593 79.9168 155.236 80.3044 154.887C80.2384 154.73 80.1693 154.575 80.0936 154.422C78.5944 155.759 77.2272 157.145 76.0039 158.567H78.1661V158.566Z" fill="#40ABFF"/>
<path d="M57.0144 158.566C56.291 157.492 55.4603 156.456 54.489 155.48C54.3462 155.906 54.2395 156.344 54.1699 156.789C54.8034 157.337 55.346 157.93 55.7479 158.566H57.0144Z" fill="#40ABFF"/>
<path d="M55.2906 158.562C54.8882 158.247 54.4884 157.931 54.083 157.617C54.0764 157.752 54.0718 157.887 54.0723 158.023C54.0728 158.204 54.0799 158.383 54.0926 158.562H55.2906V158.562Z" fill="#40ABFF"/>
<path d="M70.1963 158.557C70.4981 157.866 70.8101 157.174 71.1332 156.484C71.7931 155.077 72.5175 153.674 73.2674 152.276C73.7673 151.344 74.2311 150.367 74.821 149.426C74.7178 149.375 74.6157 149.323 74.5106 149.273C72.354 152.325 70.4819 155.425 68.8887 158.557H70.1963V158.557Z" fill="#40ABFF"/>
<path d="M72.3661 158.566C73.3776 155.646 74.4257 152.728 75.5479 149.815C75.4422 149.755 75.333 149.699 75.2253 149.641C75.0617 149.928 74.8951 150.215 74.7407 150.501C74.3205 151.278 73.906 152.057 73.5077 152.837C72.5383 154.737 71.6737 156.649 70.8867 158.566H72.3661Z" fill="#40ABFF"/>
<path d="M198.19 158.375H1.81065C0.55632 158.375 0.554288 159.857 1.81065 159.857H198.19C199.444 159.857 199.446 158.375 198.19 158.375Z" fill="#455A64"/>
<path d="M155.139 158.575C155.266 153.007 156.225 147.381 157.989 141.777C157.193 142.067 156.423 142.392 155.68 142.747C155.186 144.82 154.725 146.912 153.778 148.956C153.706 149.112 153.283 149.107 153.275 148.956C153.176 147.243 153.471 145.483 153.829 143.731C152.631 144.436 151.526 145.229 150.532 146.096C151.093 147.806 151.681 149.516 152.161 151.24C152.674 153.082 153.378 154.894 153.503 156.799C153.517 157.018 153.007 157.169 152.861 156.957C151.691 155.26 151.121 153.411 150.303 151.622C149.734 150.377 149.256 149.106 148.776 147.838C147.533 149.243 146.55 150.79 145.881 152.443C147.929 154.363 149.615 156.424 151.042 158.575H155.139Z" fill="#4079FF"/>
<path d="M158.362 158.583C158.368 158.038 158.378 157.492 158.394 156.946C158.486 153.891 158.736 150.809 159.231 147.733C159.477 146.195 159.693 144.649 160.085 143.109C160.267 142.393 160.468 141.679 160.672 140.965C160.213 141.081 159.759 141.205 159.314 141.342C159.235 141.584 159.157 141.826 159.081 142.068C157.365 147.572 156.426 153.107 156.277 158.582H158.362V158.583Z" fill="#40ABFF"/>
<path d="M162.985 158.577C163.135 152.544 162.957 146.536 162.45 140.566C162.176 140.617 161.903 140.672 161.634 140.73C161.512 141.743 161.413 142.755 161.281 143.764C161.063 145.439 160.853 147.109 160.687 148.782C160.361 152.059 160.232 155.326 160.282 158.577H162.985Z" fill="#40ABFF"/>
<path d="M180.49 158.576C182.941 155.669 185.735 152.844 188.838 150.14C188.638 149.816 188.424 149.499 188.199 149.186C187.467 149.923 186.768 150.711 185.818 151.335C185.653 151.443 185.352 151.354 185.399 151.221C185.729 150.282 186.75 149.328 187.573 148.48C187.589 148.463 187.606 148.447 187.622 148.43C187.32 148.056 187 147.692 186.664 147.338C186.51 147.555 186.353 147.772 186.201 147.989C185.053 149.632 184.015 151.303 182.719 152.915C182.531 153.148 181.913 153.127 181.999 152.854C182.696 150.64 184.006 148.408 185.521 146.231C184.835 145.619 184.097 145.043 183.308 144.508C181.508 149.192 179.817 153.883 178.186 158.576H180.49V158.576Z" fill="#4079FF"/>
<path d="M164.246 158.577H168.504C171.292 152.974 174.617 147.428 178.46 141.98C177.739 141.7 176.995 141.449 176.233 141.226C176.093 141.417 175.949 141.606 175.812 141.798C174.432 143.713 173.113 145.649 171.944 147.601C170.758 149.581 169.845 151.634 168.452 153.575C168.247 153.862 167.589 153.798 167.638 153.505C167.973 151.491 169.115 149.403 170.182 147.426C171.268 145.413 172.457 143.417 173.832 141.446C173.997 141.211 174.169 140.977 174.336 140.742C173.638 140.59 172.926 140.462 172.202 140.359C171.959 141.007 171.769 141.658 171.575 142.316C171.498 142.577 170.835 142.651 170.798 142.379C170.706 141.673 170.801 140.944 171.022 140.217C170.394 140.153 169.758 140.109 169.115 140.085C168.228 142.721 167.555 145.357 166.875 147.999C166.789 148.334 166.051 148.311 166.058 147.999C166.111 145.376 166.637 142.711 167.439 140.066C166.159 140.088 164.905 140.189 163.686 140.363C163.74 140.985 163.794 141.606 163.842 142.229C164.252 147.654 164.375 153.105 164.246 158.577Z" fill="#4079FF"/>
<path d="M190.984 158.576C191.009 158.24 191.022 157.9 191.021 157.559C191.02 157.231 191.003 156.906 190.98 156.582C190.103 157.237 189.249 157.902 188.414 158.576H190.984Z" fill="#40ABFF"/>
<path d="M186.253 158.577C187.676 157.345 189.179 156.144 190.759 154.979C190.643 154.393 190.489 153.818 190.299 153.252C189.877 153.613 189.463 153.977 189.062 154.347C188.257 155.092 187.521 156.049 186.404 156.643C186.273 156.713 186.091 156.661 186.109 156.564C186.267 155.731 187.282 154.826 188.013 154.086C188.623 153.469 189.26 152.856 189.926 152.256C189.813 151.987 189.694 151.72 189.565 151.457C186.989 153.754 184.64 156.134 182.539 158.577H186.253Z" fill="#40ABFF"/>
<path d="M149.912 158.579C148.67 156.733 147.242 154.953 145.574 153.277C145.328 154.009 145.145 154.76 145.025 155.526C146.114 156.468 147.046 157.486 147.736 158.579H149.912Z" fill="#40ABFF"/>
<path d="M146.954 158.576C146.263 158.034 145.576 157.491 144.88 156.953C144.868 157.184 144.861 157.416 144.861 157.65C144.862 157.96 144.875 158.269 144.896 158.576H146.954Z" fill="#40ABFF"/>
<path d="M172.564 158.574C173.083 157.385 173.619 156.198 174.174 155.013C175.307 152.594 176.552 150.185 177.84 147.783C178.699 146.181 179.496 144.503 180.509 142.886C180.332 142.799 180.157 142.709 179.976 142.625C176.271 147.868 173.056 153.194 170.318 158.573H172.564V158.574Z" fill="#40ABFF"/>
<path d="M176.292 158.575C178.03 153.56 179.83 148.547 181.758 143.542C181.576 143.439 181.389 143.341 181.203 143.242C180.922 143.736 180.636 144.228 180.371 144.72C179.649 146.056 178.937 147.393 178.253 148.734C176.588 151.998 175.102 155.282 173.75 158.575H176.292Z" fill="#40ABFF"/>
<path d="M171.058 8.38308H154.014L149.605 0.148438H135.392L131.612 8.38308H113.34L113.761 19.3929L113.857 21.8897H172.803L171.058 8.38308ZM140.696 3.95304C141.075 3.56518 141.654 3.39744 142.218 3.37447C142.761 3.35241 143.392 3.61021 143.784 3.95304C144.193 4.31103 144.457 4.84318 144.477 5.34961L144.482 5.48839C144.502 6.0233 144.273 6.49847 143.895 6.88495C143.517 7.27281 142.938 7.44055 142.374 7.46353C141.831 7.48559 141.2 7.22778 140.808 6.88495C140.399 6.52697 140.134 5.99481 140.115 5.48839L140.11 5.34961C140.09 4.81423 140.319 4.33906 140.696 3.95304Z" fill="#78909C"/>
<path d="M90.1517 14.2293L69.8594 152.288L71.7711 154.017H176.212L187.718 66.507L194.593 14.2293L192.681 12.5L90.1517 14.2293Z" fill="#546E7A"/>
<path d="M74.8498 114.337L69.8594 152.291H174.3L185.807 64.7812C148.533 78.0622 112.73 93.98 76.2093 113.617C75.7505 113.849 75.2979 114.09 74.8498 114.337Z" fill="#78909C"/>
<path d="M88.2398 12.5L74.8496 114.334C75.2977 114.087 75.7498 113.846 76.2086 113.613C112.729 93.977 148.533 78.0592 185.806 64.7782L192.681 12.5H88.2398Z" fill="#90A4AE"/>
<path d="M168.664 146.936H76.9023L93.8762 17.8477H185.639L168.664 146.936Z" fill="white"/>
<path d="M152.2 8.38308L149.188 0.148438H134.976L129.798 8.38308H111.526L110.078 19.3929C130.161 13.9179 150.29 11.0535 170.378 9.10274L170.472 8.38308H152.2ZM143.159 5.48839C143.089 6.0233 142.779 6.49848 142.336 6.88496C141.892 7.27281 141.284 7.44055 140.717 7.46353C140.17 7.48559 139.583 7.22778 139.249 6.88496C138.9 6.52697 138.727 5.99481 138.793 5.48839L138.811 5.34961C138.882 4.81469 139.191 4.33952 139.634 3.95304C140.079 3.56518 140.687 3.39744 141.254 3.37447C141.801 3.35241 142.388 3.61021 142.722 3.95304C143.071 4.31103 143.244 4.84318 143.177 5.34961L143.159 5.48839Z" fill="#B7D2FF"/>
<path d="M110.082 19.3918L109.754 21.8885H168.7L170.382 9.10156C150.294 11.0523 130.164 13.9172 110.082 19.3918Z" fill="#3682FF"/>
<path d="M155.379 32.3242H98.346C97.1227 32.3242 97.1206 34.0438 98.346 34.0438H155.379C156.602 34.0438 156.604 32.3242 155.379 32.3242Z" fill="#78909C"/>
<path d="M178.374 37.6512L179.438 29.5618C179.542 28.7704 178.858 28.0742 177.977 28.0742H165.552C164.807 28.0742 164.18 28.5783 164.092 29.2474L163.028 37.3369C162.924 38.1282 163.607 38.8244 164.489 38.8244H176.913C177.658 38.8244 178.286 38.3208 178.374 37.6512Z" fill="white" stroke="#78909C" stroke-width="0.781779" stroke-miterlimit="10"/>
<path d="M152.252 57.0078H95.2191C93.9957 57.0078 93.9937 58.7274 95.2191 58.7274H152.252C153.475 58.7274 153.477 57.0078 152.252 57.0078Z" fill="#78909C"/>
<path d="M175.247 62.3309L176.311 54.2415C176.415 53.4501 175.731 52.7539 174.85 52.7539H162.426C161.68 52.7539 161.053 53.258 160.965 53.9271L159.901 62.0166C159.797 62.8079 160.48 63.5041 161.362 63.5041H173.786C174.531 63.5041 175.159 63 175.247 62.3309Z" fill="white" stroke="#78909C" stroke-width="0.781779" stroke-miterlimit="10"/>
<path d="M149.125 81.6875H92.0921C90.8688 81.6875 90.8667 83.4071 92.0921 83.4071H149.125C150.348 83.4071 150.35 81.6875 149.125 81.6875Z" fill="#78909C"/>
<path d="M172.12 87.0067L173.184 78.9173C173.288 78.1259 172.604 77.4297 171.723 77.4297H159.299C158.553 77.4297 157.926 77.9338 157.838 78.6029L156.774 86.6924C156.67 87.4837 157.353 88.1799 158.235 88.1799H170.659C171.404 88.1799 172.032 87.6758 172.12 87.0067Z" fill="white" stroke="#78909C" stroke-width="0.781779" stroke-miterlimit="10"/>
<path d="M145.998 106.363H88.9651C87.7418 106.363 87.7398 108.083 88.9651 108.083H145.998C147.221 108.083 147.223 106.363 145.998 106.363Z" fill="#78909C"/>
<path d="M168.993 111.686L170.057 103.597C170.161 102.806 169.478 102.109 168.596 102.109H156.172C155.426 102.109 154.799 102.614 154.711 103.283L153.647 111.372C153.543 112.163 154.226 112.86 155.108 112.86H167.532C168.278 112.86 168.905 112.356 168.993 111.686Z" fill="white" stroke="#78909C" stroke-width="0.781779" stroke-miterlimit="10"/>
<path d="M142.871 131.035H85.8382C84.6148 131.035 84.6128 132.755 85.8382 132.755H142.871C144.094 132.755 144.096 131.035 142.871 131.035Z" fill="#78909C"/>
<path d="M165.866 136.362L166.93 128.273C167.034 127.481 166.351 126.785 165.469 126.785H153.045C152.299 126.785 151.672 127.289 151.584 127.958L150.52 136.048C150.416 136.839 151.099 137.535 151.981 137.535H164.405C165.151 137.535 165.778 137.031 165.866 136.362Z" fill="white" stroke="#78909C" stroke-width="0.781779" stroke-miterlimit="10"/>
<path d="M177.439 25.1012C175.777 27.0773 174.115 29.0533 172.453 31.0289C171.741 31.875 171.078 32.9237 170.237 33.6635C169.564 34.2554 169.565 34.572 168.604 34.1194C168.068 33.8666 167.407 33.0905 166.989 32.7306C166.103 31.9682 164.756 33.1824 165.645 33.9466C167.464 35.5104 169.012 37.8293 171.048 35.5196C173.802 32.3952 176.406 29.1494 179.081 25.9693C179.822 25.0884 178.172 24.2308 177.439 25.1012Z" fill="#666566"/>
<path d="M172.07 73.6048C170.408 75.5809 168.746 77.557 167.084 79.5326C166.372 80.3786 165.709 81.4273 164.868 82.1672C164.195 82.7591 164.196 83.0757 163.235 82.623C162.699 82.3703 162.039 81.5941 161.62 81.2343C160.734 80.4719 159.387 81.686 160.276 82.4502C162.095 84.0141 163.643 86.333 165.679 84.0228C168.433 80.8983 171.037 77.6526 173.712 74.4725C174.452 73.5924 172.802 72.7349 172.07 73.6048Z" fill="#666566"/>
</svg>
