<svg width="102" height="106" viewBox="0 0 102 106" fill="none" xmlns="http://www.w3.org/2000/svg">
<path d="M2.00781 25.9027H79.5624V39.3906H2.00781V25.9027Z" fill="#A7C7FC"/>
<path d="M40.7132 47.7545C48.1332 47.7545 54.2012 53.8238 54.2012 61.2411C54.2012 68.6598 48.1332 74.7305 40.7132 74.7305C33.2959 74.7305 27.2266 68.6598 27.2266 61.2411C27.2266 53.8238 33.2959 47.7545 40.7132 47.7545Z" fill="#A7C7FC"/>
<path d="M67.6953 30.8936H72.8193V34.2656H67.6953V30.8936Z" fill="#166DFB"/>
<path d="M59.3281 30.8936H62.7001V34.2656H59.3281V30.8936Z" fill="#166DFB"/>
<path d="M25.6094 30.8936H28.98V34.2656H25.6094V30.8936Z" fill="#166DFB"/>
<path d="M3.62331 101.704H77.806V27.5195H3.62331V101.704ZM79.5593 105.074H2.00469C1.06069 105.074 0.25 104.265 0.25 103.321V25.9009C0.25 24.9569 1.06069 24.1475 2.00469 24.1475H79.5593C80.5046 24.1475 81.3126 24.9569 81.3126 25.9009V103.457C81.178 104.265 80.3686 105.074 79.5593 105.074Z" fill="#166DFB"/>
<path d="M79.5593 41.0117H2.00469C1.06069 41.0117 0.25 40.2024 0.25 39.2584C0.25 38.3144 1.06069 37.5051 2.00469 37.5051H79.5593C80.5046 37.5051 81.3126 38.3144 81.3126 39.2584C81.178 40.2024 80.3686 41.0117 79.5593 41.0117Z" fill="#166DFB"/>
<path d="M40.7179 49.5045C34.2446 49.5045 28.8499 54.7645 28.8499 61.3738C28.8499 67.9832 34.1099 73.2432 40.7179 73.2432C47.3272 73.2432 52.5872 67.9832 52.5872 61.3738C52.5872 54.7645 47.1939 49.5045 40.7179 49.5045ZM40.7179 76.4805C32.3566 76.4805 25.4766 69.7352 25.4766 61.2378C25.4766 52.7418 32.2206 45.9979 40.7179 45.9979C49.2152 45.9979 55.9605 52.7418 55.9605 61.2378C55.9605 69.7352 49.0819 76.4805 40.7179 76.4805Z" fill="#166DFB"/>
<path d="M47.4614 62.9961H33.9721C33.0281 62.9961 32.2188 62.1867 32.2188 61.2414C32.2188 60.2974 33.0281 59.4881 33.9721 59.4881H47.4614C48.4054 59.4881 49.2134 60.2974 49.2134 61.2414C49.2134 62.1867 48.4054 62.9961 47.4614 62.9961Z" fill="#166DFB"/>
<path d="M40.713 69.7383C39.769 69.7383 38.9609 68.9303 38.9609 67.9863V54.4983C38.9609 53.5543 39.769 52.7449 40.713 52.7449C41.657 52.7449 42.4676 53.5543 42.4676 54.4983V67.9863C42.4676 68.9303 41.657 69.7383 40.713 69.7383Z" fill="#166DFB"/>
<path d="M66.0755 83.2266H15.4955C14.5515 83.2266 13.7422 82.4173 13.7422 81.4719C13.7422 80.5279 14.5515 79.7186 15.4955 79.7186H66.0755C67.0195 79.7186 67.8275 80.5279 67.8275 81.4719C67.8275 82.4173 66.8835 83.2266 66.0755 83.2266Z" fill="#166DFB"/>
<path d="M49.2142 89.9688H15.4955C14.5515 89.9688 13.7422 89.1594 13.7422 88.2154C13.7422 87.2714 14.5515 86.462 15.4955 86.462H49.2142C50.1582 86.462 50.9689 87.2714 50.9689 88.2154C50.8329 89.1594 50.0249 89.9688 49.2142 89.9688Z" fill="#166DFB"/>
<path d="M66.0755 96.7109H15.4955C14.5515 96.7109 13.7422 95.9016 13.7422 94.9576C13.7422 94.0136 14.5515 93.2056 15.4955 93.2056H66.0755C67.0195 93.2056 67.8275 94.0136 67.8275 94.9576C67.6942 95.9016 66.8835 96.7109 66.0755 96.7109Z" fill="#166DFB"/>
<path d="M101.75 39.6484C101.75 65.882 71.4835 92.1484 45.25 92.1484C19.0165 92.1484 7.25 71.382 7.25 45.1484C7.25 18.9149 26.5165 0.148438 52.75 0.148438C78.9835 0.148438 101.75 13.4149 101.75 39.6484Z" fill="#166DFB" fill-opacity="0.1"/>
</svg>
