<svg width="223" height="155" viewBox="0 0 223 155" fill="none" xmlns="http://www.w3.org/2000/svg">
<g filter="url(#filter0_d_3006_3)">
<path d="M0 -2H193V66.7978C193 98.942 166.942 125 134.798 125H0V-2Z" fill="#FFC41F"/>
</g>
<path d="M72.4116 60.4861L72.4106 60.4822H72.3832C69.305 60.4822 66.4824 61.4075 64.4288 63.2774C62.3748 65.1479 61.0938 67.9601 61.0938 71.7268C61.0938 75.4934 62.3748 78.3062 64.4288 80.1771C66.4824 82.0476 69.305 82.9735 72.3832 82.9735H86.5697H86.6048V82.9542H87.0663C87.5099 82.9542 87.8672 82.5969 87.8672 82.1536C87.8672 81.7922 87.6328 81.4894 87.3037 81.3897C87.6307 81.2891 87.8672 80.9853 87.8672 80.6246C87.8672 80.2637 87.6328 79.9594 87.3036 79.8592C87.6305 79.7589 87.8672 79.4564 87.8672 79.0959C87.8672 78.7349 87.6326 78.4303 87.3033 78.3301C87.6305 78.2295 87.8672 77.9256 87.8672 77.5649C87.8672 77.1219 87.5142 76.7665 87.0665 76.7664H85.5375H85.5373H85.537H85.5358H85.531H85.5138L85.461 76.7665C85.4217 76.7665 85.3809 76.7665 85.3739 76.7664H85.3738H85.3736C85.215 76.7664 84.3267 76.7664 83.3936 76.7664C82.9237 76.7664 82.4423 76.7664 82.0373 76.7664V75.0422V75.007H82.0021C81.2125 75.007 80.1926 75.2968 79.6824 76.4228C79.4823 76.7727 79.2715 77.1378 79.0234 77.4158C78.7753 77.6941 78.4945 77.8801 78.1553 77.8801H72.3842C70.759 77.8801 69.2644 77.3459 68.1762 76.3115C67.0885 75.2774 66.4042 73.741 66.4042 71.7307C66.4042 68.0556 68.9661 65.4952 72.4676 65.4952C73.9192 65.4952 75.4581 66.0508 76.6974 67.1619L76.7229 67.1847L76.7464 67.16L80.0539 63.6807L80.0777 63.6557L80.0531 63.6315C77.734 61.3552 75.4125 60.4913 72.4116 60.4861ZM87.2333 78.3123C87.5767 78.2364 87.8321 77.9313 87.8321 77.5649C87.8321 77.1413 87.4948 76.8017 87.0663 76.8015H85.5375C85.5375 76.8015 85.3881 76.8017 85.3736 76.8015C85.215 76.8015 84.3267 76.8015 83.3936 76.8015C82.9237 76.8015 82.4423 76.8015 82.0373 76.8015L87.2333 78.3123Z" fill="#1B2123"/>
<path d="M82.8135 52.7827H82.7783V52.8179V76.0375V76.0726H82.8135H87.2852H87.3204V76.0375V74.2839V73.4746L87.8098 73.1348C88.074 72.9516 88.4041 72.6189 88.7113 72.2461C89.019 71.8728 89.3063 71.4564 89.4845 71.1043V71.1042C89.5171 71.0393 89.5488 70.9769 89.5795 70.9164C89.7856 70.5105 89.95 70.1864 90.0798 69.7584C90.229 69.2662 90.332 68.6379 90.4032 67.5885C90.4417 67.0082 90.4839 66.4828 90.5164 66.0972C90.5309 65.9246 90.5435 65.7801 90.5531 65.6712L90.5563 65.6347C90.5611 65.5786 90.5651 65.5338 90.5677 65.5018C90.5684 65.4931 90.5691 65.485 90.5697 65.478H91.7727V65.9986C91.7727 66.431 91.8211 67.1 91.8596 67.4849V67.4853L91.8598 67.4857L91.9464 68.1841L91.9504 68.2149H91.9814H93.4091H94.8378H94.8674L94.8724 68.1858L94.9592 67.6865C95.008 67.4092 95.0465 66.7392 95.0465 66.1977V65.478H96.2731C96.275 65.4852 96.2773 65.4948 96.2795 65.5067C96.2854 65.5371 96.2913 65.5801 96.2977 65.6347C96.31 65.7437 96.323 65.8965 96.3368 66.0833C96.3526 66.2974 96.3697 66.5552 96.3886 66.8414C96.4027 67.0544 96.4179 67.2831 96.4343 67.5213C96.5404 69.1734 96.7209 70.1354 97.0636 70.8592C97.4066 71.5834 97.9106 72.0659 98.6533 72.7605L99.5042 73.5573V77.4177V82.883V82.9181H99.5394H103.35H103.385V82.883V71.7155C103.385 68.5974 102.718 66.0114 101.295 64.2045C99.8694 62.3961 97.6894 61.3727 94.6744 61.3727C92.2872 61.3727 89.9815 62.091 88.0951 64.4849V52.8179V52.7827H88.0599H82.8135Z" fill="#1B2123"/>
<path d="M127.492 73.6409H127.524L127.527 73.609C127.936 69.2435 127.033 65.9579 125.135 63.7633C123.237 61.5684 120.348 60.4709 116.798 60.4709C113.354 60.4709 110.531 61.6334 108.57 63.6058C106.608 65.5782 105.51 68.3577 105.51 71.5872C105.51 74.9878 106.597 77.8214 108.602 79.8048C110.607 81.7883 113.526 82.9181 117.184 82.9181C120.412 82.9181 124.073 81.7996 126.315 79.4714L126.339 79.4465L126.314 79.422L122.964 76.1148L122.939 76.0899L122.914 76.1155C122.318 76.7325 121.39 77.224 120.368 77.5614C119.346 77.8985 118.233 78.0803 117.27 78.0803C115.429 78.0803 113.945 77.6095 112.878 76.8149C111.823 76.0288 111.175 74.9245 110.997 73.6409H127.492ZM122.427 69.2327H111.089C111.87 66.532 114.162 65.1798 116.97 65.1798C118.468 65.1798 119.749 65.5223 120.697 66.2039C121.634 66.8785 122.25 67.887 122.427 69.2327Z" fill="#1B2123"/>
<path d="M138.025 82.9184H138.06V82.8833V66.6403H144.253H144.288V66.6051V62.0095V61.9743H144.253H138.06V60.5921C138.06 59.3096 138.402 58.3742 138.964 57.7596C139.525 57.1454 140.309 56.8477 141.203 56.8477C142.268 56.8477 143.292 57.2312 144.405 57.9586L144.439 57.9803L144.456 57.9448L146.389 54.0363L146.403 54.0083L146.377 53.9913C144.654 52.8712 142.714 52.2675 140.86 52.2675C138.727 52.2675 136.699 52.9246 135.205 54.2955C133.709 55.6667 132.751 57.7489 132.751 60.5921V61.9743H128.834H128.799V62.0095V66.6051V66.6403H128.834H132.751V82.8833V82.9184H132.786H138.025Z" fill="#1B2123"/>
<path d="M90.8887 77.2691V76.3761H95.966V77.2691C95.966 77.9566 95.8604 78.5731 95.5372 79.0174C95.2153 79.4598 94.6738 79.7365 93.7894 79.7365H93.0647C92.1814 79.7365 91.6399 79.4598 91.318 79.0174C90.9947 78.5731 90.8887 77.9566 90.8887 77.2691Z" fill="#1B2123"/>
<path fill-rule="evenodd" clip-rule="evenodd" d="M90.8613 76.3495H95.9918V77.2691C95.9918 77.9583 95.8861 78.5818 95.5579 79.033C95.2297 79.4841 94.6789 79.7631 93.7886 79.7631H93.0639C92.1747 79.7631 91.624 79.4841 91.2958 79.033C90.9674 78.5818 90.8613 77.9583 90.8613 77.2691V76.3495ZM90.9145 76.4027V77.2691C90.9145 77.9549 91.0205 78.5644 91.3387 79.0017C91.6543 79.4354 92.1866 79.7099 93.0639 79.7099H93.7886C94.667 79.7099 95.1994 79.4354 95.5149 79.0017C95.8331 78.5644 95.9386 77.9549 95.9386 77.2691V76.4027H90.9145Z" fill="#1B2123"/>
<path d="M57.251 25.8297L55.1875 28.4417C53.7207 27.4731 52.0076 27.2634 50.3485 27.2634C47.3685 27.2634 44.6663 28.3001 42.7086 30.1713C40.7504 32.043 39.541 34.7463 39.541 38.0712C39.541 41.3932 40.5766 44.0755 42.4501 45.9274C44.3234 47.7792 47.0269 48.7932 50.3485 48.7932C51.6481 48.7932 52.9753 49.1236 53.9757 49.8116C54.9734 50.4979 55.6472 51.5404 55.6472 52.9749C55.6472 54.4143 55.0661 55.5322 54.1166 56.2917C53.1655 57.0525 51.84 57.4573 50.3485 57.4573C47.364 57.4573 44.8785 55.6702 44.8785 52.9749V52.9046H44.8082H39.6113H39.541V52.9749C39.541 55.8514 40.6986 58.2332 42.631 59.8949C44.5623 61.5559 47.2638 62.4943 50.3485 62.4943C53.4332 62.4943 56.1027 61.5883 58.0022 59.943C59.9029 58.2969 61.0275 55.9148 61.0275 52.9749C61.0275 51.6149 60.8118 50.292 60.1492 49.0863C59.5024 47.9094 58.4332 46.8501 56.7365 45.9766C60.1461 44.3386 61.1137 40.6697 61.1137 38.0712C61.1137 35.7568 60.5175 33.6497 58.9014 31.798L61.2269 28.8374L61.2712 28.7811L61.214 28.7379L57.3486 25.8172L57.2936 25.7757L57.251 25.8297ZM50.3485 32.1715C53.3142 32.1715 55.7758 34.4569 55.7758 38.0712C55.7758 41.6843 53.3155 43.8851 50.3485 43.8851C48.8409 43.8851 47.4741 43.3438 46.4846 42.3489C45.4953 41.3543 44.8785 39.9017 44.8785 38.0712C44.8785 36.2407 45.4954 34.7664 46.4851 33.7501C47.475 32.7336 48.8416 32.1715 50.3485 32.1715Z" fill="#1B2123"/>
<path d="M64.4238 27.9504H64.3535V28.0207V49.1951V49.2654H64.4238H69.664H69.7343V49.1951V38.028C69.7343 36.0901 70.3618 34.7688 71.3207 33.9311C72.2813 33.0918 73.5836 32.7297 74.9466 32.7297C75.7989 32.7297 76.4665 32.8468 77.0527 33.0738C77.639 33.3009 78.1478 33.6394 78.681 34.0876L78.7482 34.144L78.7888 34.066L81.1513 29.5134L81.175 29.4677L81.1386 29.4313C79.9631 28.2565 77.8404 27.3921 75.6338 27.3921C74.5566 27.3921 73.4614 27.4888 72.4287 27.9182C71.4361 28.3309 70.5058 29.0491 69.7046 30.2745L69.348 28.0099L69.3386 27.9504H69.2785H64.4238Z" fill="#1B2123"/>
<path d="M96.6992 48.9524C97.9052 48.3673 98.9878 47.5065 99.6199 46.3532L99.855 49.201L99.8604 49.2656H99.9251H104.865H104.935V49.1953V28.0208V27.9505H104.865H99.8394H99.773L99.7691 28.0167L99.6127 30.71C98.3425 28.6929 95.6914 27.4352 92.9268 27.4351C89.8203 27.4133 87.0422 28.3628 85.0402 30.2403C83.0376 32.1186 81.8184 34.9195 81.8184 38.5866C81.8184 42.3168 82.983 45.1604 84.9426 47.0659C86.9018 48.9711 89.6483 49.9314 92.798 49.9098H92.7983H92.7987C93.9901 49.888 95.4176 49.5741 96.6992 48.9524ZM93.3993 32.2573C95.4408 32.2573 96.9673 33.0514 97.9843 34.2393C99.0027 35.4287 99.5136 37.0171 99.5136 38.6081C99.5136 40.199 99.0027 41.7874 97.9843 42.9768C96.9673 44.1648 95.4408 44.9588 93.3993 44.9588C91.6764 44.9588 90.1268 44.3634 89.0083 43.2715C87.8902 42.1801 87.1981 40.5883 87.1981 38.5866C87.1981 36.5849 87.8902 35.0039 89.008 33.9233C90.1264 32.8423 91.6759 32.2573 93.3993 32.2573Z" fill="#1B2123"/>
<path d="M108.886 19.1028H108.815V19.1731V49.1953V49.2656H108.886H113.782H113.844L113.852 49.2036L114.176 46.4735C115.831 48.9095 118.421 49.7381 120.958 49.7381C124.088 49.7381 126.834 48.702 128.797 46.7868C130.761 44.8713 131.938 42.082 131.938 38.5866C131.938 34.9206 130.784 32.1306 128.845 30.2574C126.907 28.3845 124.193 27.4351 121.087 27.4351C119.959 27.4351 118.522 27.7383 117.209 28.3162C115.983 28.8559 114.858 29.6392 114.199 30.6484V19.1731V19.1028H114.129H108.886ZM120.611 32.4721C122.269 32.4721 123.754 33.0565 124.824 34.1108C125.894 35.1648 126.554 36.6923 126.554 38.5866C126.554 42.242 123.921 44.7441 120.611 44.7441C117.34 44.7441 114.539 42.3678 114.539 38.5866C114.539 34.934 117.34 32.4721 120.611 32.4721Z" fill="#1B2123"/>
<mask id="mask0_3006_3" style="mask-type:luminance" maskUnits="userSpaceOnUse" x="30" y="13" width="22" height="24">
<path d="M30 13H51.2225V36.8108H30V13Z" fill="white"/>
</mask>
<g mask="url(#mask0_3006_3)">
<mask id="mask1_3006_3" style="mask-type:luminance" maskUnits="userSpaceOnUse" x="27" y="9" width="29" height="32">
<path d="M27.9053 31.6245L40.763 9.01482L55.6122 17.4607L42.7525 40.0702L27.9053 31.6245Z" fill="white"/>
</mask>
<g mask="url(#mask1_3006_3)">
<mask id="mask2_3006_3" style="mask-type:luminance" maskUnits="userSpaceOnUse" x="27" y="9" width="29" height="32">
<path d="M27.9043 31.6244L40.762 9.01489L55.6112 17.4606L42.7516 40.0701L27.9043 31.6244Z" fill="white"/>
</mask>
<g mask="url(#mask2_3006_3)">
<path d="M49.985 26.873C47.3403 28.2034 44.6692 30.2152 42.4612 32.5405C41.3634 33.6971 40.407 34.9002 39.6183 36.1173L39.216 36.7381L37.0525 32.7183C36.272 33.3291 34.5392 34.4229 32.5698 33.9619C31.6155 33.7375 30.9603 33.3108 30.566 32.6577C30.0484 31.8005 29.2518 29.2649 31.5508 27.0427C33.2209 25.2836 36.0314 24.6952 36.6178 24.59C36.8018 24.4546 36.9676 24.3091 37.1213 24.1473C37.74 23.4963 38.0757 22.6571 38.4618 21.6865C39.0159 20.3015 39.7054 18.5748 41.5048 16.6801C41.7273 16.4457 41.9638 16.2131 42.2085 15.9846C44.3559 13.9869 46.1292 13.1902 47.6354 13.5522C48.3007 13.7139 50.078 14.735 50.8423 16.8662C51.273 17.9905 50.996 19.2399 50.4319 20.5139C50.167 21.1143 49.6372 22.0526 48.6263 23.1181C48.3492 23.4093 48.0985 23.6459 47.9084 23.8158L50.5026 26.6121L49.985 26.873Z" fill="#1B2123"/>
</g>
</g>
</g>
<mask id="mask3_3006_3" style="mask-type:luminance" maskUnits="userSpaceOnUse" x="30" y="13" width="21" height="24">
<path d="M30.5166 13.5179H50.7039V36.2933H30.5166V13.5179Z" fill="white"/>
</mask>
<g mask="url(#mask3_3006_3)">
<mask id="mask4_3006_3" style="mask-type:luminance" maskUnits="userSpaceOnUse" x="27" y="9" width="29" height="32">
<path d="M27.9053 31.624L40.763 9.01428L55.6123 17.46L42.7526 40.0697L27.9053 31.624Z" fill="white"/>
</mask>
<g mask="url(#mask4_3006_3)">
<mask id="mask5_3006_3" style="mask-type:luminance" maskUnits="userSpaceOnUse" x="27" y="9" width="29" height="32">
<path d="M27.9043 31.6239L40.7619 9.01427L55.6113 17.46L42.7516 40.0696L27.9043 31.6239Z" fill="white"/>
</mask>
<g mask="url(#mask5_3006_3)">
<path d="M50.2212 17.0496C50.6902 18.2729 50.4457 19.482 49.9381 20.5314C49.0282 22.4098 47.2731 23.7726 47.2731 23.7726L49.7844 26.478C48.7614 26.9937 47.7362 27.6062 46.7353 28.2978C43.8177 30.3157 41.1083 33.0049 39.25 35.8741L37.1794 32.0263C37.1794 32.0263 35.0827 34.0988 32.6665 33.5326C31.1318 33.1728 30.137 31.6644 30.7173 29.1935C31.601 25.9078 36.7974 25.0061 36.7974 25.0061C39.2925 23.2671 38.3644 20.1674 42.5134 16.3075C46.6483 12.4597 48.913 13.6365 50.2212 17.0496Z" fill="#FF0000"/>
</g>
</g>
</g>
<mask id="mask6_3006_3" style="mask-type:luminance" maskUnits="userSpaceOnUse" x="32" y="31" width="6" height="3">
<path d="M32.5859 31.1169H37.2446V33.1874H32.5859V31.1169Z" fill="white"/>
</mask>
<g mask="url(#mask6_3006_3)">
<mask id="mask7_3006_3" style="mask-type:luminance" maskUnits="userSpaceOnUse" x="27" y="9" width="29" height="32">
<path d="M27.9053 31.6241L40.7629 9.01443L55.6123 17.4601L42.7526 40.0698L27.9053 31.6241Z" fill="white"/>
</mask>
<g mask="url(#mask7_3006_3)">
<mask id="mask8_3006_3" style="mask-type:luminance" maskUnits="userSpaceOnUse" x="27" y="9" width="29" height="32">
<path d="M27.9053 31.6242L40.763 9.01454L55.6122 17.4602L42.7526 40.0699L27.9053 31.6242Z" fill="white"/>
</mask>
<g mask="url(#mask8_3006_3)">
<path d="M36.9145 32.1175C36.9145 32.1175 35.1979 33.1407 34.1364 33.1083C33.0485 33.076 32.5876 32.6149 32.7958 32.5825C33.002 32.5482 34.0515 32.7949 34.4801 32.2813C34.9107 31.7677 33.6835 31.5252 34.2415 31.3047C34.7975 31.0863 35.6347 31.1895 36.1786 31.4179C36.7204 31.6444 36.9145 32.1175 36.9145 32.1175Z" fill="#FF0000"/>
</g>
</g>
</g>
<mask id="mask9_3006_3" style="mask-type:luminance" maskUnits="userSpaceOnUse" x="37" y="19" width="5" height="6">
<path d="M37.7646 19.2115H41.9057V24.3876H37.7646V19.2115Z" fill="white"/>
</mask>
<g mask="url(#mask9_3006_3)">
<mask id="mask10_3006_3" style="mask-type:luminance" maskUnits="userSpaceOnUse" x="27" y="9" width="29" height="32">
<path d="M27.9053 31.624L40.763 9.01447L55.6122 17.4602L42.7525 40.0698L27.9053 31.624Z" fill="white"/>
</mask>
<g mask="url(#mask10_3006_3)">
<mask id="mask11_3006_3" style="mask-type:luminance" maskUnits="userSpaceOnUse" x="27" y="9" width="29" height="32">
<path d="M27.9053 31.624L40.763 9.01451L55.6122 17.4602L42.7525 40.0699L27.9053 31.624Z" fill="white"/>
</mask>
<g mask="url(#mask11_3006_3)">
<path d="M38.2256 24.1003C38.2256 24.1003 39.3153 23.2207 39.9786 21.6213C40.6418 20.022 41.2928 19.015 41.6467 19.3487C42.0005 19.6842 42.0915 20.6164 40.9896 22.0985C39.8876 23.5826 38.2256 24.1003 38.2256 24.1003Z" fill="#FF0000"/>
</g>
</g>
</g>
<mask id="mask12_3006_3" style="mask-type:luminance" maskUnits="userSpaceOnUse" x="38" y="17" width="13" height="13">
<path d="M38.7988 17.6589H50.1866V29.0465H38.7988V17.6589Z" fill="white"/>
</mask>
<g mask="url(#mask12_3006_3)">
<mask id="mask13_3006_3" style="mask-type:luminance" maskUnits="userSpaceOnUse" x="27" y="9" width="29" height="32">
<path d="M27.9062 31.624L40.7639 9.0143L55.6132 17.46L42.7535 40.0697L27.9062 31.624Z" fill="white"/>
</mask>
<g mask="url(#mask13_3006_3)">
<mask id="mask14_3006_3" style="mask-type:luminance" maskUnits="userSpaceOnUse" x="27" y="9" width="29" height="32">
<path d="M27.9053 31.624L40.7629 9.01431L55.6123 17.4602L42.7525 40.0697L27.9053 31.624Z" fill="white"/>
</mask>
<g mask="url(#mask14_3006_3)">
<path d="M50.0479 18.9726C50.0459 19.0069 49.9933 19.9309 49.9366 20.5316C49.0268 22.4099 47.2718 23.7747 47.2718 23.7747L49.7831 26.4781C48.7599 26.9937 47.7347 27.6063 46.7339 28.2979C46.8775 27.9359 46.8896 27.4911 46.5985 26.9694C45.7331 25.4227 44.8737 24.7675 44.8737 24.7675C44.8737 24.7675 44.1074 26.9614 42.882 27.9077C41.6649 28.8458 38.8442 28.7407 38.8018 28.7386C38.824 28.7246 40.0777 27.9116 40.6376 27.2383C41.2018 26.5569 41.2018 26.5569 41.2018 26.5569C40.1726 26.2435 39.2183 25.9179 39.7359 25.3276C39.7359 25.3276 42.9286 25.5177 45.2073 22.1632C47.4861 18.8109 46.4791 17.5309 47.7024 17.7169C48.9237 17.903 48.4768 20.8873 49.134 20.4546C49.779 20.0301 50.0399 19.0069 50.0479 18.9726Z" fill="#FF0000"/>
</g>
</g>
</g>
<mask id="mask15_3006_3" style="mask-type:luminance" maskUnits="userSpaceOnUse" x="35" y="22" width="6" height="4">
<path d="M35.1768 22.3174H40.3529V25.4231H35.1768V22.3174Z" fill="white"/>
</mask>
<g mask="url(#mask15_3006_3)">
<mask id="mask16_3006_3" style="mask-type:luminance" maskUnits="userSpaceOnUse" x="27" y="9" width="29" height="32">
<path d="M27.9062 31.6241L40.7639 9.01456L55.6133 17.4603L42.7535 40.0699L27.9062 31.6241Z" fill="white"/>
</mask>
<g mask="url(#mask16_3006_3)">
<mask id="mask17_3006_3" style="mask-type:luminance" maskUnits="userSpaceOnUse" x="27" y="9" width="29" height="32">
<path d="M27.9053 31.6242L40.763 9.01456L55.6122 17.4604L42.7526 40.0699L27.9053 31.6242Z" fill="white"/>
</mask>
<g mask="url(#mask17_3006_3)">
<path d="M35.3174 25.3381C35.3174 25.3381 37.0704 25.1439 38.409 24.5231C39.7496 23.9024 40.3057 22.7013 40.3057 22.7013C40.3057 22.7013 39.147 23.6577 38.225 24.1006C37.305 24.5434 37.0948 24.5899 37.0948 24.5899L35.3174 25.3381Z" fill="#1B2123"/>
</g>
</g>
</g>
<mask id="mask18_3006_3" style="mask-type:luminance" maskUnits="userSpaceOnUse" x="46" y="22" width="3" height="3">
<path d="M46.0459 22.3174H48.1163V24.9054H46.0459V22.3174Z" fill="white"/>
</mask>
<g mask="url(#mask18_3006_3)">
<mask id="mask19_3006_3" style="mask-type:luminance" maskUnits="userSpaceOnUse" x="27" y="9" width="29" height="32">
<path d="M27.9053 31.6242L40.763 9.01468L55.6122 17.4604L42.7526 40.0701L27.9053 31.6242Z" fill="white"/>
</mask>
<g mask="url(#mask19_3006_3)">
<mask id="mask20_3006_3" style="mask-type:luminance" maskUnits="userSpaceOnUse" x="27" y="9" width="29" height="32">
<path d="M27.9053 31.6244L40.7629 9.01468L55.6123 17.4605L42.7526 40.0701L27.9053 31.6244Z" fill="white"/>
</mask>
<g mask="url(#mask20_3006_3)">
<path d="M46.4629 22.5823C46.5175 22.8633 47.2695 23.7509 47.86 24.4L47.9105 23.8157C47.4698 23.3628 47.1018 22.9523 46.7965 22.5762L46.4629 22.5823Z" fill="#1B2123"/>
</g>
</g>
</g>
<mask id="mask21_3006_3" style="mask-type:luminance" maskUnits="userSpaceOnUse" x="40" y="18" width="9" height="8">
<path d="M40.8682 18.694H48.1149V25.9407H40.8682V18.694Z" fill="white"/>
</mask>
<g mask="url(#mask21_3006_3)">
<mask id="mask22_3006_3" style="mask-type:luminance" maskUnits="userSpaceOnUse" x="27" y="9" width="29" height="32">
<path d="M27.9062 31.6245L40.764 9.0148L55.6132 17.4606L42.7535 40.0702L27.9062 31.6245Z" fill="white"/>
</mask>
<g mask="url(#mask22_3006_3)">
<mask id="mask23_3006_3" style="mask-type:luminance" maskUnits="userSpaceOnUse" x="27" y="9" width="29" height="32">
<path d="M27.9062 31.6244L40.7639 9.01468L55.6132 17.4605L42.7535 40.0701L27.9062 31.6244Z" fill="white"/>
</mask>
<g mask="url(#mask23_3006_3)">
<path d="M47.9541 19.1387C47.9541 19.1387 48.1563 20.9565 45.7865 23.1624C43.4168 25.3703 41.3018 25.8578 41.3018 25.8578C41.3018 25.8578 43.5321 25.7668 45.8431 23.8863C47.2687 22.6751 46.8905 22.9926 47.5537 21.9351C48.2169 20.8755 47.9541 19.1387 47.9541 19.1387Z" fill="#1B2123"/>
</g>
</g>
</g>
<mask id="mask24_3006_3" style="mask-type:luminance" maskUnits="userSpaceOnUse" x="38" y="24" width="6" height="6">
<path d="M38.2822 24.9054H43.4585V29.5639H38.2822V24.9054Z" fill="white"/>
</mask>
<g mask="url(#mask24_3006_3)">
<mask id="mask25_3006_3" style="mask-type:luminance" maskUnits="userSpaceOnUse" x="27" y="9" width="29" height="32">
<path d="M27.9053 31.6244L40.7629 9.01469L55.6123 17.4605L42.7525 40.0701L27.9053 31.6244Z" fill="white"/>
</mask>
<g mask="url(#mask25_3006_3)">
<mask id="mask26_3006_3" style="mask-type:luminance" maskUnits="userSpaceOnUse" x="27" y="9" width="29" height="32">
<path d="M27.9043 31.6244L40.762 9.01469L55.6113 17.4604L42.7516 40.0701L27.9043 31.6244Z" fill="white"/>
</mask>
<g mask="url(#mask26_3006_3)">
<path d="M42.6294 25.4856C42.221 26.9859 40.5629 28.6075 38.6846 29.1332C38.6846 29.1332 39.4549 29.3274 41.0503 28.3608C42.6475 27.3963 43.4403 25.1297 43.4403 25.1297L42.6294 25.4856Z" fill="#1B2123"/>
</g>
</g>
</g>
<mask id="mask27_3006_3" style="mask-type:luminance" maskUnits="userSpaceOnUse" x="34" y="31" width="4" height="3">
<path d="M34.6592 31.1169H37.7649V33.1873H34.6592V31.1169Z" fill="white"/>
</mask>
<g mask="url(#mask27_3006_3)">
<mask id="mask28_3006_3" style="mask-type:luminance" maskUnits="userSpaceOnUse" x="27" y="9" width="29" height="32">
<path d="M27.9053 31.624L40.7629 9.01437L55.6123 17.4601L42.7525 40.0698L27.9053 31.624Z" fill="white"/>
</mask>
<g mask="url(#mask28_3006_3)">
<mask id="mask29_3006_3" style="mask-type:luminance" maskUnits="userSpaceOnUse" x="27" y="9" width="29" height="32">
<path d="M27.9043 31.624L40.762 9.01431L55.6113 17.46L42.7516 40.0697L27.9043 31.624Z" fill="white"/>
</mask>
<g mask="url(#mask29_3006_3)">
<path d="M37.4031 32.5502C37.3727 32.4228 37.2574 32.0164 36.9683 31.7413C36.6792 31.4664 35.1445 31.4442 35.1445 31.4442C35.1445 31.4442 36.1757 31.7312 36.5155 31.9537C36.8551 32.1761 37.0532 32.718 37.0532 32.718L37.4031 32.5502Z" fill="#1B2123"/>
</g>
</g>
</g>
<path d="M37.4811 92.6783H39.3844L36.2057 97.7602V101.93H34.5932V97.7602L31.4145 92.6783H33.3178L35.3995 96.0024L37.4811 92.6783ZM42.0759 102.102C41.4679 102.102 40.9128 101.946 40.4106 101.633C39.9127 101.32 39.514 100.901 39.2144 100.377C38.9192 99.8485 38.7716 99.2648 38.7716 98.6259C38.7716 98.1413 38.8576 97.6897 39.0294 97.2712C39.2012 96.8482 39.4369 96.4782 39.7365 96.161C40.0405 95.8394 40.3929 95.5882 40.7938 95.4076C41.1948 95.227 41.6221 95.1367 42.0759 95.1367C42.6839 95.1367 43.2368 95.2931 43.7346 95.6059C44.2369 95.9187 44.6356 96.3394 44.9308 96.8681C45.2303 97.3968 45.3801 97.9827 45.3801 98.6259C45.3801 99.1061 45.2942 99.5555 45.1224 99.9741C44.9506 100.393 44.7127 100.763 44.4087 101.084C44.1091 101.401 43.7589 101.65 43.3579 101.831C42.9614 102.012 42.5341 102.102 42.0759 102.102ZM42.0759 100.49C42.3975 100.49 42.6861 100.404 42.9416 100.232C43.1971 100.06 43.3976 99.8331 43.543 99.5511C43.6928 99.2692 43.7677 98.9608 43.7677 98.6259C43.7677 98.2823 43.6906 97.9695 43.5364 97.6875C43.3866 97.4012 43.1817 97.1743 42.9218 97.0069C42.6662 96.835 42.3843 96.7491 42.0759 96.7491C41.7587 96.7491 41.4723 96.835 41.2168 97.0069C40.9613 97.1787 40.7586 97.4078 40.6088 97.6941C40.459 97.9805 40.3841 98.2911 40.3841 98.6259C40.3841 98.974 40.4612 99.289 40.6154 99.5709C40.7696 99.8529 40.9745 100.078 41.23 100.245C41.4899 100.408 41.7719 100.49 42.0759 100.49ZM46.0028 99.485V95.3217H47.6152V99.0621C47.6152 99.322 47.6791 99.5599 47.8069 99.7758C47.9347 99.9873 48.1043 100.157 48.3157 100.285C48.5316 100.408 48.7673 100.47 49.0229 100.47C49.2872 100.47 49.5251 100.408 49.7366 100.285C49.948 100.157 50.1177 99.9873 50.2454 99.7758C50.3732 99.5599 50.4371 99.322 50.4371 99.0621V95.3217H52.0495L52.0562 101.93H50.4437L50.4371 101.329C50.208 101.567 49.937 101.756 49.6242 101.897C49.3114 102.034 48.9766 102.102 48.6197 102.102C48.1395 102.102 47.7012 101.985 47.3046 101.752C46.9081 101.514 46.5909 101.199 46.353 100.807C46.1195 100.41 46.0028 99.9697 46.0028 99.485ZM56.5542 101.93V92.6783H59.9245C60.4135 92.6783 60.8541 92.7796 61.2462 92.9823C61.6427 93.1805 61.9555 93.4669 62.1846 93.8414C62.4181 94.2115 62.5348 94.6498 62.5348 95.1565C62.5348 95.3812 62.5018 95.6081 62.4357 95.8371C62.3696 96.0662 62.2683 96.2733 62.1317 96.4583C61.9951 96.639 61.8189 96.7734 61.603 96.8615C61.8894 96.932 62.1229 97.0597 62.3035 97.2448C62.4842 97.4298 62.6252 97.6479 62.7265 97.899C62.8278 98.1457 62.8961 98.399 62.9313 98.659C62.971 98.9145 62.9908 99.1524 62.9908 99.3727C62.9908 99.8617 62.8697 100.298 62.6274 100.681C62.385 101.064 62.059 101.368 61.6493 101.593C61.244 101.818 60.7946 101.93 60.3012 101.93H56.5542ZM58.1666 100.549H60.136C60.4003 100.549 60.6382 100.485 60.8497 100.357C61.0611 100.23 61.2308 100.053 61.3585 99.8287C61.4863 99.604 61.5502 99.3485 61.5502 99.0621C61.5502 98.8154 61.4863 98.5819 61.3585 98.3616C61.2308 98.1413 61.0611 97.9629 60.8497 97.8263C60.6382 97.6897 60.4003 97.6214 60.136 97.6214H58.1666V100.549ZM58.1666 96.2601H59.7394C60.0655 96.2601 60.343 96.1588 60.5721 95.9561C60.8056 95.7534 60.9224 95.4847 60.9224 95.1499C60.9224 94.793 60.8056 94.5243 60.5721 94.3436C60.343 94.1586 60.0655 94.0661 59.7394 94.0661H58.1666V96.2601ZM66.8706 102.102C66.2626 102.102 65.7075 101.946 65.2053 101.633C64.7074 101.32 64.3087 100.901 64.0092 100.377C63.714 99.8485 63.5664 99.2648 63.5664 98.6259C63.5664 98.1413 63.6523 97.6897 63.8241 97.2712C63.9959 96.8482 64.2316 96.4782 64.5312 96.161C64.8352 95.8394 65.1877 95.5882 65.5886 95.4076C65.9895 95.227 66.4168 95.1367 66.8706 95.1367C67.4786 95.1367 68.0315 95.2931 68.5294 95.6059C69.0316 95.9187 69.4303 96.3394 69.7255 96.8681C70.0251 97.3968 70.1749 97.9827 70.1749 98.6259C70.1749 99.1061 70.089 99.5555 69.9171 99.9741C69.7453 100.393 69.5074 100.763 69.2034 101.084C68.9038 101.401 68.5536 101.65 68.1527 101.831C67.7562 102.012 67.3288 102.102 66.8706 102.102ZM66.8706 100.49C67.1922 100.49 67.4808 100.404 67.7363 100.232C67.9919 100.06 68.1923 99.8331 68.3377 99.5511C68.4875 99.2692 68.5624 98.9608 68.5624 98.6259C68.5624 98.2823 68.4853 97.9695 68.3311 97.6875C68.1813 97.4012 67.9764 97.1743 67.7165 97.0069C67.461 96.835 67.179 96.7491 66.8706 96.7491C66.5534 96.7491 66.2671 96.835 66.0115 97.0069C65.756 97.1787 65.5533 97.4078 65.4035 97.6941C65.2537 97.9805 65.1789 98.2911 65.1789 98.6259C65.1789 98.974 65.256 99.289 65.4101 99.5709C65.5643 99.8529 65.7692 100.078 66.0247 100.245C66.2847 100.408 66.5666 100.49 66.8706 100.49ZM74.1374 102.102C73.5294 102.102 72.9743 101.946 72.472 101.633C71.9742 101.32 71.5755 100.901 71.2759 100.377C70.9807 99.8485 70.8331 99.2648 70.8331 98.6259C70.8331 98.1413 70.919 97.6897 71.0909 97.2712C71.2627 96.8482 71.4984 96.4782 71.798 96.161C72.102 95.8394 72.4544 95.5882 72.8553 95.4076C73.2562 95.227 73.6836 95.1367 74.1374 95.1367C74.7454 95.1367 75.2983 95.2931 75.7961 95.6059C76.2984 95.9187 76.6971 96.3394 76.9922 96.8681C77.2918 97.3968 77.4416 97.9827 77.4416 98.6259C77.4416 99.1061 77.3557 99.5555 77.1839 99.9741C77.0121 100.393 76.7742 100.763 76.4702 101.084C76.1706 101.401 75.8203 101.65 75.4194 101.831C75.0229 102.012 74.5956 102.102 74.1374 102.102ZM74.1374 100.49C74.459 100.49 74.7476 100.404 75.0031 100.232C75.2586 100.06 75.4591 99.8331 75.6045 99.5511C75.7543 99.2692 75.8292 98.9608 75.8292 98.6259C75.8292 98.2823 75.7521 97.9695 75.5979 97.6875C75.4481 97.4012 75.2432 97.1743 74.9833 97.0069C74.7277 96.835 74.4458 96.7491 74.1374 96.7491C73.8202 96.7491 73.5338 96.835 73.2783 97.0069C73.0227 97.1787 72.8201 97.4078 72.6703 97.6941C72.5205 97.9805 72.4456 98.2911 72.4456 98.6259C72.4456 98.974 72.5227 99.289 72.6769 99.5709C72.8311 99.8529 73.036 100.078 73.2915 100.245C73.5514 100.408 73.8334 100.49 74.1374 100.49ZM84.2687 101.93H82.4117L80.905 99.333L79.9798 100.437V101.93H78.3673V92.0174H79.9798V97.932L82.1672 95.3217H84.2753L82.0086 98.0246L84.2687 101.93ZM85.1761 102.67L85.5859 100.437H87.1983L86.2533 102.67H85.1761ZM94.0667 101.93L91.7009 92.6783H93.3662L94.9787 99.0026L96.5912 92.6783H98.0649L99.6773 99.0026L101.283 92.6783H102.949L100.596 101.93H98.7654L97.3247 96.3262L95.9039 101.93H94.0667ZM106.057 102.102C105.449 102.102 104.894 101.946 104.392 101.633C103.894 101.32 103.495 100.899 103.195 100.371C102.9 99.8419 102.753 99.2581 102.753 98.6193C102.753 98.1391 102.839 97.6897 103.01 97.2712C103.182 96.8482 103.418 96.4782 103.717 96.161C104.021 95.8394 104.374 95.5882 104.775 95.4076C105.176 95.227 105.603 95.1367 106.057 95.1367C106.572 95.1367 107.044 95.2468 107.471 95.4671C107.903 95.683 108.269 95.9803 108.568 96.3592C108.868 96.7381 109.086 97.1699 109.222 97.6545C109.359 98.1391 109.39 98.6458 109.315 99.1744H104.484C104.546 99.4212 104.647 99.6436 104.788 99.8419C104.929 100.036 105.107 100.192 105.323 100.311C105.539 100.426 105.784 100.485 106.057 100.49C106.339 100.494 106.594 100.428 106.823 100.291C107.057 100.15 107.251 99.9608 107.405 99.7229L109.051 100.106C108.782 100.692 108.381 101.172 107.848 101.547C107.315 101.917 106.718 102.102 106.057 102.102ZM104.431 97.9651H107.683C107.634 97.7007 107.531 97.4628 107.372 97.2514C107.218 97.0355 107.026 96.8637 106.797 96.7359C106.568 96.6081 106.321 96.5443 106.057 96.5443C105.793 96.5443 105.548 96.6081 105.323 96.7359C105.099 96.8593 104.907 97.0289 104.748 97.2448C104.594 97.4562 104.488 97.6963 104.431 97.9651ZM118.002 102.102C117.377 102.102 116.789 101.979 116.238 101.732C115.687 101.481 115.203 101.135 114.784 100.694C114.37 100.254 114.044 99.745 113.806 99.1678C113.573 98.5863 113.456 97.9651 113.456 97.3042C113.456 96.639 113.573 96.0178 113.806 95.4406C114.044 94.8591 114.37 94.3502 114.784 93.9141C115.203 93.4735 115.687 93.1299 116.238 92.8832C116.789 92.632 117.377 92.5065 118.002 92.5065C118.751 92.5065 119.441 92.6805 120.071 93.0285C120.701 93.3722 121.223 93.8326 121.637 94.4097L120.196 95.1829C119.937 94.8613 119.613 94.6036 119.225 94.4097C118.842 94.2159 118.434 94.1189 118.002 94.1189C117.597 94.1189 117.216 94.2027 116.859 94.3701C116.502 94.5331 116.19 94.7622 115.921 95.0573C115.652 95.3481 115.443 95.6874 115.293 96.0751C115.143 96.4583 115.068 96.8681 115.068 97.3042C115.068 97.7448 115.143 98.1567 115.293 98.54C115.447 98.9233 115.659 99.2625 115.927 99.5577C116.196 99.8485 116.507 100.078 116.859 100.245C117.216 100.408 117.597 100.49 118.002 100.49C118.443 100.49 118.853 100.393 119.232 100.199C119.615 100 119.937 99.7406 120.196 99.419L121.637 100.199C121.223 100.771 120.701 101.232 120.071 101.58C119.441 101.928 118.751 102.102 118.002 102.102ZM125.444 102.102C124.836 102.102 124.28 101.946 123.778 101.633C123.28 101.32 122.882 100.901 122.582 100.377C122.287 99.8485 122.139 99.2648 122.139 98.6259C122.139 98.1413 122.225 97.6897 122.397 97.2712C122.569 96.8482 122.805 96.4782 123.104 96.161C123.408 95.8394 123.761 95.5882 124.161 95.4076C124.562 95.227 124.99 95.1367 125.444 95.1367C126.051 95.1367 126.604 95.2931 127.102 95.6059C127.604 95.9187 128.003 96.3394 128.298 96.8681C128.598 97.3968 128.748 97.9827 128.748 98.6259C128.748 99.1061 128.662 99.5555 128.49 99.9741C128.318 100.393 128.08 100.763 127.776 101.084C127.477 101.401 127.126 101.65 126.726 101.831C126.329 102.012 125.902 102.102 125.444 102.102ZM125.444 100.49C125.765 100.49 126.054 100.404 126.309 100.232C126.565 100.06 126.765 99.8331 126.911 99.5511C127.06 99.2692 127.135 98.9608 127.135 98.6259C127.135 98.2823 127.058 97.9695 126.904 97.6875C126.754 97.4012 126.549 97.1743 126.289 97.0069C126.034 96.835 125.752 96.7491 125.444 96.7491C125.126 96.7491 124.84 96.835 124.584 97.0069C124.329 97.1787 124.126 97.4078 123.976 97.6941C123.827 97.9805 123.752 98.2911 123.752 98.6259C123.752 98.974 123.829 99.289 123.983 99.5709C124.137 99.8529 124.342 100.078 124.598 100.245C124.858 100.408 125.14 100.49 125.444 100.49ZM132.71 102.102C132.102 102.102 131.547 101.946 131.045 101.633C130.547 101.32 130.148 100.901 129.849 100.377C129.554 99.8485 129.406 99.2648 129.406 98.6259C129.406 98.1413 129.492 97.6897 129.664 97.2712C129.836 96.8482 130.071 96.4782 130.371 96.161C130.675 95.8394 131.027 95.5882 131.428 95.4076C131.829 95.227 132.256 95.1367 132.71 95.1367C133.318 95.1367 133.871 95.2931 134.369 95.6059C134.871 95.9187 135.27 96.3394 135.565 96.8681C135.865 97.3968 136.015 97.9827 136.015 98.6259C136.015 99.1061 135.929 99.5555 135.757 99.9741C135.585 100.393 135.347 100.763 135.043 101.084C134.743 101.401 134.393 101.65 133.992 101.831C133.596 102.012 133.168 102.102 132.71 102.102ZM132.71 100.49C133.032 100.49 133.32 100.404 133.576 100.232C133.831 100.06 134.032 99.8331 134.177 99.5511C134.327 99.2692 134.402 98.9608 134.402 98.6259C134.402 98.2823 134.325 97.9695 134.171 97.6875C134.021 97.4012 133.816 97.1743 133.556 97.0069C133.301 96.835 133.019 96.7491 132.71 96.7491C132.393 96.7491 132.107 96.835 131.851 97.0069C131.596 97.1787 131.393 97.4078 131.243 97.6941C131.093 97.9805 131.018 98.2911 131.018 98.6259C131.018 98.974 131.096 99.289 131.25 99.5709C131.404 99.8529 131.609 100.078 131.864 100.245C132.124 100.408 132.406 100.49 132.71 100.49ZM142.842 101.93H140.985L139.478 99.333L138.553 100.437V101.93H136.94V92.0174H138.553V97.932L140.74 95.3217H142.848L140.581 98.0246L142.842 101.93ZM143.894 99.1546V92.6783H145.256V99.1546H143.894ZM144.582 102.102C144.348 102.102 144.15 102.02 143.987 101.857C143.828 101.694 143.749 101.496 143.749 101.263C143.749 101.034 143.828 100.84 143.987 100.681C144.15 100.523 144.348 100.443 144.582 100.443C144.806 100.443 144.998 100.523 145.157 100.681C145.315 100.84 145.395 101.034 145.395 101.263C145.395 101.496 145.315 101.694 145.157 101.857C144.998 102.02 144.806 102.102 144.582 102.102Z" fill="black"/>
<defs>
<filter id="filter0_d_3006_3" x="-17.4" y="-19.4" width="239.8" height="173.8" filterUnits="userSpaceOnUse" color-interpolation-filters="sRGB">
<feFlood flood-opacity="0" result="BackgroundImageFix"/>
<feColorMatrix in="SourceAlpha" type="matrix" values="0 0 0 0 0 0 0 0 0 0 0 0 0 0 0 0 0 0 127 0" result="hardAlpha"/>
<feOffset dx="6" dy="6"/>
<feGaussianBlur stdDeviation="11.7"/>
<feComposite in2="hardAlpha" operator="out"/>
<feColorMatrix type="matrix" values="0 0 0 0 0.341667 0 0 0 0 0.341667 0 0 0 0 0.341667 0 0 0 0.25 0"/>
<feBlend mode="normal" in2="BackgroundImageFix" result="effect1_dropShadow_3006_3"/>
<feBlend mode="normal" in="SourceGraphic" in2="effect1_dropShadow_3006_3" result="shape"/>
</filter>
</defs>
</svg>
