<svg width="34" height="34" viewBox="0 0 34 34" fill="none" xmlns="http://www.w3.org/2000/svg">
<path d="M24.7644 11.3605C24.6686 11.3468 24.5728 11.3468 24.477 11.3605C22.356 11.2921 20.6729 9.55424 20.6729 7.41953C20.6729 5.24377 22.4381 3.46484 24.6275 3.46484C26.8033 3.46484 28.5822 5.23008 28.5822 7.41953C28.5685 9.55424 26.8854 11.2921 24.7644 11.3605Z" fill="#D96A46"/>
<path d="M29.2253 20.8432C27.6927 21.8695 25.5443 22.2527 23.5601 21.9927C24.0801 20.8706 24.3538 19.6254 24.3675 18.3117C24.3675 16.9433 24.0664 15.6433 23.4917 14.5075C25.5169 14.2338 27.6653 14.617 29.2116 15.6433C31.3737 17.0664 31.3737 19.4064 29.2253 20.8432Z" fill="#D96A46"/>
<path d="M9.58883 11.3605C9.68462 11.3468 9.7804 11.3468 9.87619 11.3605C11.9972 11.2921 13.6804 9.55424 13.6804 7.41953C13.6804 5.23008 11.9151 3.46484 9.72567 3.46484C7.54991 3.46484 5.78467 5.23008 5.78467 7.41953C5.78467 9.55424 7.4678 11.2921 9.58883 11.3605Z" fill="#D96A46"/>
<path d="M9.73942 18.3119C9.73942 19.6393 10.0268 20.8982 10.5468 22.034C8.61733 22.2393 6.60578 21.8287 5.12791 20.8572C2.96583 19.4203 2.96583 17.0804 5.12791 15.6436C6.5921 14.6583 8.65838 14.2615 10.6015 14.4804C10.0405 15.6299 9.73942 16.9299 9.73942 18.3119Z" fill="#D96A46"/>
<path d="M17.3613 22.4439C17.2518 22.4302 17.1286 22.4302 17.0055 22.4439C14.4876 22.3618 12.4761 20.2955 12.4761 17.7503C12.4898 15.1503 14.5834 13.043 17.1971 13.043C19.797 13.043 21.9044 15.1503 21.9044 17.7503C21.8907 20.2955 19.8928 22.3618 17.3613 22.4439Z" fill="#D96A46"/>
<path d="M12.9145 25.274C10.8482 26.6561 10.8482 28.9276 12.9145 30.296C15.2681 31.8697 19.127 31.8697 21.4807 30.296C23.547 28.9139 23.547 26.6424 21.4807 25.274C19.1407 23.7003 15.2818 23.7003 12.9145 25.274Z" fill="#D96A46"/>
</svg>
