<svg width="41" height="41" viewBox="0 0 41 41" fill="none" xmlns="http://www.w3.org/2000/svg">
<rect x="0.882812" y="0.148438" width="40" height="40" rx="20" fill="#DBE5FC"/>
<path d="M21.0453 19.0184C20.9453 19.0084 20.8253 19.0084 20.7153 19.0184C18.3353 18.9384 16.4453 16.9884 16.4453 14.5884C16.4453 12.1384 18.4253 10.1484 20.8853 10.1484C23.3353 10.1484 25.3253 12.1384 25.3253 14.5884C25.3153 16.9884 23.4253 18.9384 21.0453 19.0184Z" stroke="#166DFB" stroke-width="1.5" stroke-linecap="round" stroke-linejoin="round"/>
<path d="M16.0416 22.7084C13.6216 24.3284 13.6216 26.9684 16.0416 28.5784C18.7916 30.4184 23.3016 30.4184 26.0516 28.5784C28.4716 26.9584 28.4716 24.3184 26.0516 22.7084C23.3116 20.8784 18.8016 20.8784 16.0416 22.7084Z" stroke="#166DFB" stroke-width="1.5" stroke-linecap="round" stroke-linejoin="round"/>
</svg>
