<svg width="28" height="28" viewBox="0 0 28 28" fill="none" xmlns="http://www.w3.org/2000/svg">
<path d="M22.4604 3.84885H5.31682C4.64742 3.84958 4.00565 4.11583 3.53231 4.58916C3.05897 5.0625 2.79273 5.70427 2.79199 6.37367V18.1562C2.79273 18.8256 3.05897 19.4674 3.53231 19.9407C4.00565 20.414 4.64742 20.6803 5.31682 20.681C5.53999 20.6812 5.75398 20.7699 5.91178 20.9277C6.06958 21.0855 6.15829 21.2995 6.15843 21.5226V23.3168C6.15843 23.6214 6.24112 23.9204 6.39768 24.1817C6.55423 24.4431 6.77879 24.6571 7.04741 24.8008C7.31602 24.9446 7.61861 25.0127 7.92292 24.998C8.22723 24.9833 8.52183 24.8863 8.77533 24.7173L14.6173 20.8224C14.7554 20.7299 14.9179 20.6807 15.0841 20.681H19.187C19.7383 20.68 20.2742 20.4993 20.7136 20.1664C21.1531 19.8334 21.472 19.3664 21.6222 18.8359L24.8965 7.05007C24.9998 6.67478 25.0152 6.28071 24.9413 5.89853C24.8674 5.51634 24.7064 5.15636 24.4707 4.8466C24.2349 4.53684 23.9309 4.28565 23.5822 4.1126C23.2336 3.93954 22.8497 3.84928 22.4604 3.84885ZM23.2732 6.60301L20.0005 18.3847C19.9499 18.5614 19.8432 18.7168 19.6964 18.8274C19.5496 18.938 19.3708 18.9979 19.187 18.9978H15.0841C14.5855 18.9972 14.098 19.1448 13.6836 19.4219L7.84165 23.3168V21.5226C7.84091 20.8532 7.57467 20.2115 7.10133 19.7381C6.62799 19.2648 5.98622 18.9985 5.31682 18.9978C5.09365 18.9977 4.87966 18.909 4.72186 18.7512C4.56406 18.5934 4.47534 18.3794 4.47521 18.1562V6.37367C4.47534 6.15051 4.56406 5.93652 4.72186 5.77871C4.87966 5.62091 5.09365 5.5322 5.31682 5.53206H22.4604C22.5905 5.53239 22.7187 5.56274 22.8352 5.62073C22.9516 5.67872 23.0531 5.7628 23.1318 5.86643C23.2104 5.97005 23.2641 6.09042 23.2886 6.21818C23.3132 6.34594 23.3079 6.47763 23.2732 6.60301Z" fill="#9B9B9B"/>
<path d="M7.84161 11.4233H12.0497C12.2729 11.4233 12.4869 11.3347 12.6448 11.1768C12.8026 11.019 12.8913 10.8049 12.8913 10.5817C12.8913 10.3585 12.8026 10.1444 12.6448 9.98661C12.4869 9.82878 12.2729 9.74011 12.0497 9.74011H7.84161C7.6184 9.74011 7.40433 9.82878 7.2465 9.98661C7.08867 10.1444 7 10.3585 7 10.5817C7 10.8049 7.08867 11.019 7.2465 11.1768C7.40433 11.3347 7.6184 11.4233 7.84161 11.4233Z" fill="#9B9B9B"/>
<path d="M15.4161 13.1066H7.84161C7.6184 13.1066 7.40433 13.1952 7.2465 13.3531C7.08867 13.5109 7 13.725 7 13.9482C7 14.1714 7.08867 14.3854 7.2465 14.5433C7.40433 14.7011 7.6184 14.7898 7.84161 14.7898H15.4161C15.6393 14.7898 15.8534 14.7011 16.0112 14.5433C16.169 14.3854 16.2577 14.1714 16.2577 13.9482C16.2577 13.725 16.169 13.5109 16.0112 13.3531C15.8534 13.1952 15.6393 13.1066 15.4161 13.1066Z" fill="#9B9B9B"/>
</svg>
