<svg width="41" height="40" viewBox="0 0 41 40" fill="none" xmlns="http://www.w3.org/2000/svg">
<path d="M17.045 21.25C18.0368 21.25 19.0064 20.9568 19.8311 20.4074C20.6557 19.8579 21.2985 19.0771 21.678 18.1634C22.0576 17.2498 22.1569 16.2445 21.9634 15.2746C21.7699 14.3046 21.2923 13.4137 20.591 12.7145C19.8897 12.0152 18.9961 11.539 18.0233 11.3461C17.0506 11.1531 16.0423 11.2522 15.126 11.6306C14.2096 12.009 13.4264 12.6499 12.8754 13.4722C12.3244 14.2944 12.0303 15.2611 12.0303 16.25C12.0316 17.5757 12.5603 18.8467 13.5005 19.7841C14.4407 20.7215 15.7154 21.2487 17.045 21.25ZM17.045 13.75C17.5409 13.75 18.0257 13.8966 18.438 14.1713C18.8504 14.446 19.1718 14.8365 19.3615 15.2933C19.5513 15.7501 19.601 16.2528 19.5042 16.7377C19.4075 17.2227 19.1687 17.6681 18.818 18.0178C18.4673 18.3674 18.0206 18.6055 17.5342 18.702C17.0478 18.7984 16.5437 18.7489 16.0855 18.5597C15.6273 18.3705 15.2357 18.0501 14.9602 17.6389C14.6847 17.2278 14.5376 16.7445 14.5376 16.25C14.5385 15.5872 14.803 14.9519 15.273 14.4832C15.7431 14.0146 16.3803 13.7509 17.045 13.75Z" fill="#FF0000"/>
<path d="M36.633 24.4625C37.0469 23.9098 37.3234 23.2672 37.4398 22.5873C37.5562 21.9074 37.5093 21.2097 37.3027 20.5514L36.5069 17.9696C36.1332 16.7451 35.3737 15.6733 34.3409 14.9132C33.308 14.1531 32.057 13.7452 30.7733 13.75H25.1479C24.8154 13.75 24.4965 13.8817 24.2614 14.1161C24.0263 14.3505 23.8942 14.6685 23.8942 15C23.8942 15.3315 24.0263 15.6495 24.2614 15.8839C24.4965 16.1183 24.8154 16.25 25.1479 16.25H30.7733C31.5203 16.2474 32.2482 16.485 32.8492 16.9274C33.4501 17.3698 33.892 17.9935 34.1095 18.706L34.9053 21.2866C34.9932 21.5713 35.0128 21.8725 34.9626 22.1661C34.9124 22.4597 34.7939 22.7374 34.6165 22.977C34.4391 23.2166 34.2078 23.4114 33.9411 23.5456C33.6745 23.6799 33.38 23.7499 33.0813 23.75H21.5864C21.5509 23.75 21.5212 23.7671 21.4861 23.7701C21.4019 23.7669 21.3205 23.75 21.235 23.75H13.3744C11.9812 23.7449 10.6236 24.1879 9.50294 25.0132C8.38232 25.8385 7.55847 27.0021 7.15371 28.3312L6.21771 31.3625C5.99908 32.0719 5.95041 32.8225 6.07562 33.554C6.20083 34.2856 6.49642 34.9776 6.93864 35.5746C7.38085 36.1715 7.95736 36.6567 8.62182 36.9911C9.28628 37.3255 10.0202 37.4998 10.7645 37.5H23.844C24.5884 37.4999 25.3223 37.3256 25.9868 36.9912C26.6514 36.6569 27.2279 36.1717 27.6702 35.5748C28.1125 34.9778 28.4081 34.2857 28.5334 33.5542C28.6586 32.8226 28.6099 32.0719 28.3913 31.3625L27.4559 28.3315C27.219 27.5767 26.8459 26.8713 26.3551 26.25H33.0813C33.7729 26.2532 34.4554 26.0928 35.0728 25.7821C35.6902 25.4714 36.2249 25.0192 36.633 24.4625ZM25.6535 34.089C25.4456 34.3726 25.1732 34.6031 24.8586 34.7614C24.5441 34.9198 24.1964 35.0015 23.844 35H10.7645C10.4124 34.9999 10.0653 34.9175 9.75103 34.7594C9.43676 34.6012 9.1641 34.3717 8.95498 34.0894C8.74587 33.807 8.60613 33.4796 8.54702 33.1336C8.48791 32.7876 8.51107 32.4326 8.61463 32.0971L9.55001 29.0661C9.79851 28.2489 10.3048 27.5335 10.9937 27.0261C11.6826 26.5188 12.5173 26.2466 13.3738 26.25H21.2344C22.0908 26.2466 22.9255 26.5188 23.6144 27.0261C24.3033 27.5335 24.8096 28.2489 25.0581 29.0661L25.9935 32.0971C26.099 32.4323 26.1231 32.7877 26.064 33.134C26.0049 33.4804 25.8642 33.8078 25.6535 34.0894V34.089Z" fill="#FF0000"/>
<path d="M27.7014 11.25C28.5692 11.25 29.4176 10.9934 30.1392 10.5127C30.8607 10.0319 31.4232 9.34866 31.7553 8.54923C32.0874 7.74981 32.1743 6.87014 32.005 6.02148C31.8357 5.17281 31.4177 4.39326 30.8041 3.78141C30.1904 3.16955 29.4086 2.75288 28.5574 2.58407C27.7062 2.41526 26.824 2.5019 26.0222 2.83303C25.2204 3.16416 24.5351 3.72492 24.053 4.44438C23.5708 5.16384 23.3135 6.0097 23.3135 6.875C23.3149 8.03489 23.7776 9.14688 24.6002 9.96705C25.4228 10.7872 26.5381 11.2486 27.7014 11.25ZM27.7014 5C28.0733 5 28.4369 5.10997 28.7461 5.31599C29.0554 5.52202 29.2964 5.81485 29.4388 6.15747C29.5811 6.50008 29.6183 6.87708 29.5458 7.24079C29.4732 7.6045 29.2941 7.9386 29.0311 8.20082C28.7681 8.46304 28.433 8.64162 28.0682 8.71397C27.7035 8.78631 27.3254 8.74918 26.9817 8.60727C26.6381 8.46535 26.3444 8.22503 26.1378 7.91669C25.9311 7.60835 25.8208 7.24584 25.8208 6.875C25.8214 6.37789 26.0197 5.9013 26.3723 5.54979C26.7248 5.19829 27.2028 5.00056 27.7014 5Z" fill="#FF0000"/>
</svg>
