<svg width="104" height="105" viewBox="0 0 104 105" fill="none" xmlns="http://www.w3.org/2000/svg">
<rect y="0.148438" width="104" height="104" rx="52" fill="#FCDBDB"/>
<g clip-path="url(#clip0_5033_141736)">
<path d="M51.5742 15.7305C31.677 15.7305 15.5742 31.8315 15.5742 51.7305C15.5742 71.6274 31.6752 87.7305 51.5742 87.7305C71.4714 87.7305 87.5742 71.6295 87.5742 51.7305C87.5742 31.8336 71.4732 15.7305 51.5742 15.7305ZM55.2711 66.0209C55.2711 67.1583 53.6126 68.2954 51.5749 68.2954C49.4425 68.2954 47.9263 67.1583 47.9263 66.0209V47.9665C47.9263 46.6397 49.4426 45.7391 51.5749 45.7391C53.6126 45.7391 55.2711 46.6397 55.2711 47.9665V66.0209ZM51.5751 41.3799C49.3952 41.3799 47.6895 39.7688 47.6895 37.9679C47.6895 36.1672 49.3954 34.6035 51.5751 34.6035C53.7075 34.6035 55.4136 36.1672 55.4136 37.9679C55.4136 39.7688 53.7074 41.3799 51.5751 41.3799Z" fill="#F36B6B"/>
</g>
<defs>
<clipPath id="clip0_5033_141736">
<rect width="72" height="72" fill="white" transform="translate(15.5742 15.7305)"/>
</clipPath>
</defs>
</svg>
