<svg width="24" height="25" viewBox="0 0 24 25" fill="none" xmlns="http://www.w3.org/2000/svg">
<path d="M11 2.14844H9C4 2.14844 2 4.14844 2 9.14844V15.1484C2 20.1484 4 22.1484 9 22.1484H15C20 22.1484 22 20.1484 22 15.1484V13.1484" stroke="#666566" stroke-width="1.5" stroke-linecap="round" stroke-linejoin="round"/>
<path d="M16.0399 3.16967L8.15988 11.0497C7.85988 11.3497 7.55988 11.9397 7.49988 12.3697L7.06988 15.3797C6.90988 16.4697 7.67988 17.2297 8.76988 17.0797L11.7799 16.6497C12.1999 16.5897 12.7899 16.2897 13.0999 15.9897L20.9799 8.10967C22.3399 6.74967 22.9799 5.16967 20.9799 3.16967C18.9799 1.16967 17.3999 1.80967 16.0399 3.16967Z" stroke="#666566" stroke-width="1.5" stroke-miterlimit="10" stroke-linecap="round" stroke-linejoin="round"/>
<path d="M14.9102 4.29688C15.5802 6.68688 17.4502 8.55688 19.8502 9.23688" stroke="#666566" stroke-width="1.5" stroke-miterlimit="10" stroke-linecap="round" stroke-linejoin="round"/>
</svg>
