<svg width="34" height="34" viewBox="0 0 34 34" fill="none" xmlns="http://www.w3.org/2000/svg">
<path d="M7.61839 11.6758C5.34684 11.6758 3.51318 13.5094 3.51318 15.781V26.7282C3.51318 28.9998 5.34684 30.8334 7.61839 30.8334H9.671C11.1762 30.8334 12.4078 29.6019 12.4078 28.0966V14.4126C12.4078 12.9073 11.1762 11.6758 9.671 11.6758H7.61839ZM8.98679 23.9914C8.98679 24.5525 8.52154 25.0177 7.96049 25.0177C7.39945 25.0177 6.93419 24.5525 6.93419 23.9914V18.5178C6.93419 17.9568 7.39945 17.4915 7.96049 17.4915C8.52154 17.4915 8.98679 17.9568 8.98679 18.5178V23.9914Z" fill="#D96A46"/>
<path d="M26.7761 3.46484H18.5657C16.2941 3.46484 14.4604 5.2985 14.4604 7.57005V26.7277C14.4604 28.9992 16.2941 30.8329 18.5657 30.8329H19.2499C19.633 30.8329 19.9341 30.5319 19.9341 30.1487V25.3593C19.9341 24.6067 20.5498 23.9909 21.3025 23.9909H24.0393C24.7919 23.9909 25.4077 24.6067 25.4077 25.3593V30.1487C25.4077 30.5319 25.7087 30.8329 26.0919 30.8329H26.7761C29.0476 30.8329 30.8813 28.9992 30.8813 26.7277V7.57005C30.8813 5.2985 29.0476 3.46484 26.7761 3.46484ZM20.9604 18.5173C20.9604 19.0783 20.4951 19.5436 19.9341 19.5436C19.373 19.5436 18.9078 19.0783 18.9078 18.5173V11.6753C18.9078 11.1142 19.373 10.649 19.9341 10.649C20.4951 10.649 20.9604 11.1142 20.9604 11.6753V18.5173ZM26.434 18.5173C26.434 19.0783 25.9687 19.5436 25.4077 19.5436C24.8466 19.5436 24.3814 19.0783 24.3814 18.5173V11.6753C24.3814 11.1142 24.8466 10.649 25.4077 10.649C25.9687 10.649 26.434 11.1142 26.434 11.6753V18.5173Z" fill="#D96A46"/>
</svg>
