<svg width="41" height="41" viewBox="0 0 41 41" fill="none" xmlns="http://www.w3.org/2000/svg">
<rect x="0.882812" y="0.148438" width="40" height="40" rx="20" fill="#DBE5FC"/>
<path d="M21.8828 30.1484H13.8828C11.8828 30.1484 10.8828 29.1484 10.8828 27.1484V19.1484C10.8828 17.1484 11.8828 16.1484 13.8828 16.1484H18.8828V27.1484C18.8828 29.1484 19.8828 30.1484 21.8828 30.1484Z" stroke="#166DFB" stroke-width="1.5" stroke-miterlimit="10" stroke-linecap="round" stroke-linejoin="round"/>
<path d="M18.9928 12.1484C18.9128 12.4484 18.8828 12.7784 18.8828 13.1484V16.1484H13.8828V14.1484C13.8828 13.0484 14.7828 12.1484 15.8828 12.1484H18.9928Z" stroke="#166DFB" stroke-width="1.5" stroke-miterlimit="10" stroke-linecap="round" stroke-linejoin="round"/>
<path d="M22.8828 16.1484V21.1484" stroke="#166DFB" stroke-width="1.5" stroke-miterlimit="10" stroke-linecap="round" stroke-linejoin="round"/>
<path d="M26.8828 16.1484V21.1484" stroke="#166DFB" stroke-width="1.5" stroke-miterlimit="10" stroke-linecap="round" stroke-linejoin="round"/>
<path d="M25.8828 25.1484H23.8828C23.3328 25.1484 22.8828 25.5984 22.8828 26.1484V30.1484H26.8828V26.1484C26.8828 25.5984 26.4328 25.1484 25.8828 25.1484Z" stroke="#166DFB" stroke-width="1.5" stroke-miterlimit="10" stroke-linecap="round" stroke-linejoin="round"/>
<path d="M14.8828 21.1484V25.1484" stroke="#166DFB" stroke-width="1.5" stroke-miterlimit="10" stroke-linecap="round" stroke-linejoin="round"/>
<path d="M18.8828 27.1484V13.1484C18.8828 11.1484 19.8828 10.1484 21.8828 10.1484H27.8828C29.8828 10.1484 30.8828 11.1484 30.8828 13.1484V27.1484C30.8828 29.1484 29.8828 30.1484 27.8828 30.1484H21.8828C19.8828 30.1484 18.8828 29.1484 18.8828 27.1484Z" stroke="#166DFB" stroke-width="1.5" stroke-miterlimit="10" stroke-linecap="round" stroke-linejoin="round"/>
</svg>
