<svg width="41" height="41" viewBox="0 0 41 41" fill="none" xmlns="http://www.w3.org/2000/svg">
<rect x="0.882812" y="0.148438" width="40" height="40" rx="20" fill="#DBE5FC"/>
<path d="M29.9591 16.7285V23.5684C29.9591 24.6884 29.3591 25.7285 28.3891 26.2985L22.4491 29.7285C21.4791 30.2885 20.2791 30.2885 19.2991 29.7285L13.3591 26.2985C12.3891 25.7385 11.7891 24.6984 11.7891 23.5684V16.7285C11.7891 15.6085 12.3891 14.5684 13.3591 13.9984L19.2991 10.5684C20.2691 10.0084 21.4691 10.0084 22.4491 10.5684L28.3891 13.9984C29.3591 14.5684 29.9591 15.5985 29.9591 16.7285Z" stroke="#166DFB" stroke-width="1.5" stroke-linecap="round" stroke-linejoin="round"/>
<path d="M20.8847 19.1483C22.1715 19.1483 23.2147 18.1051 23.2147 16.8182C23.2147 15.5314 22.1715 14.4883 20.8847 14.4883C19.5979 14.4883 18.5547 15.5314 18.5547 16.8182C18.5547 18.1051 19.5979 19.1483 20.8847 19.1483Z" stroke="#166DFB" stroke-width="1.5" stroke-linecap="round" stroke-linejoin="round"/>
<path d="M24.8828 24.8068C24.8828 23.0068 23.0928 21.5469 20.8828 21.5469C18.6728 21.5469 16.8828 23.0068 16.8828 24.8068" stroke="#166DFB" stroke-width="1.5" stroke-linecap="round" stroke-linejoin="round"/>
</svg>
