<svg width="32" height="33" viewBox="0 0 32 33" fill="none" xmlns="http://www.w3.org/2000/svg">
<path d="M12.0007 14.4818C9.97398 14.4818 8.33398 12.8418 8.33398 10.8151C8.33398 8.78844 9.97398 7.14844 12.0007 7.14844C14.0273 7.14844 15.6673 8.78844 15.6673 10.8151C15.6673 12.8418 14.0273 14.4818 12.0007 14.4818ZM12.0007 9.14844C11.0807 9.14844 10.334 9.8951 10.334 10.8151C10.334 11.7351 11.0807 12.4818 12.0007 12.4818C12.9207 12.4818 13.6673 11.7351 13.6673 10.8151C13.6673 9.8951 12.9207 9.14844 12.0007 9.14844Z" fill="#166DFB"/>
<path d="M19.9993 30.4831H11.9993C4.75935 30.4831 1.66602 27.3897 1.66602 20.1497V12.1497C1.66602 4.90974 4.75935 1.81641 11.9993 1.81641H17.3327C17.8793 1.81641 18.3327 2.26974 18.3327 2.81641C18.3327 3.36307 17.8793 3.81641 17.3327 3.81641H11.9993C5.85268 3.81641 3.66602 6.00307 3.66602 12.1497V20.1497C3.66602 26.2964 5.85268 28.4831 11.9993 28.4831H19.9993C26.146 28.4831 28.3327 26.2964 28.3327 20.1497V13.4831C28.3327 12.9364 28.786 12.4831 29.3327 12.4831C29.8794 12.4831 30.3327 12.9364 30.3327 13.4831V20.1497C30.3327 27.3897 27.2393 30.4831 19.9993 30.4831Z" fill="#166DFB"/>
<path d="M28.3333 7.81641H21C20.4533 7.81641 20 7.36307 20 6.81641C20 6.26974 20.4533 5.81641 21 5.81641H28.3333C28.88 5.81641 29.3333 6.26974 29.3333 6.81641C29.3333 7.36307 28.88 7.81641 28.3333 7.81641Z" fill="#166DFB"/>
<path d="M24.666 11.4818C24.1193 11.4818 23.666 11.0284 23.666 10.4818V3.14844C23.666 2.60177 24.1193 2.14844 24.666 2.14844C25.2127 2.14844 25.666 2.60177 25.666 3.14844V10.4818C25.666 11.0284 25.2127 11.4818 24.666 11.4818Z" fill="#166DFB"/>
<path d="M3.55909 26.4145C3.23909 26.4145 2.91909 26.2545 2.73242 25.9745C2.42576 25.5212 2.54576 24.8945 2.99909 24.5879L9.57242 20.1745C11.0124 19.2145 12.9991 19.3212 14.3058 20.4279L14.7458 20.8145C15.4124 21.3879 16.5458 21.3879 17.1991 20.8145L22.7458 16.0545C24.1724 14.8412 26.3858 14.8412 27.8124 16.0545L29.9858 17.9212C30.3991 18.2812 30.4524 18.9079 30.0924 19.3345C29.7324 19.7479 29.1058 19.8012 28.6791 19.4412L26.5058 17.5745C25.8391 17.0012 24.7058 17.0012 24.0524 17.5745L18.5058 22.3345C17.0924 23.5479 14.8658 23.5479 13.4391 22.3345L12.9991 21.9479C12.3858 21.4279 11.3724 21.3745 10.6924 21.8412L4.13242 26.2545C3.94576 26.3612 3.74576 26.4145 3.55909 26.4145Z" fill="#166DFB"/>
</svg>
