<svg width="31" height="30" viewBox="0 0 31 30" fill="none" xmlns="http://www.w3.org/2000/svg">
<g clip-path="url(#clip0_9_12758)">
<path d="M30.8502 7.03697H22.2747V1.75781H28.5572V0H20.5117V7.03697H11.9363V12.3132H13.7572L13.9197 14.7549H9.28907C5.81151 14.7549 2.93884 17.3859 2.56741 20.7561C1.51926 21.1073 0.761719 22.0953 0.761719 23.2571C0.761719 24.4244 1.52637 25.4164 2.58234 25.7632C2.94504 28.1582 5.02299 30 7.52447 30H27.8529L29.0294 12.3132H30.8502V7.03697ZM9.28907 16.5127H17.0297C19.4858 16.5127 21.5325 18.2881 21.9503 20.6188H4.36852C4.78631 18.2881 6.83281 16.5127 9.28907 16.5127ZM3.40759 22.3766H22.911C23.3979 22.3766 23.7941 22.7717 23.7941 23.2569C23.7941 23.7424 23.3979 24.1372 22.911 24.1372H3.40759C2.9207 24.1372 2.52472 23.7424 2.52472 23.2569C2.52472 22.7717 2.9207 22.3766 3.40759 22.3766ZM7.52447 28.2422C6.04612 28.2422 4.7971 27.2479 4.41213 25.8952H21.9064C21.5217 27.2479 20.2727 28.2422 18.7941 28.2422H7.52447ZM26.2031 28.2422H22.5997C23.1894 27.5517 23.5944 26.7002 23.7362 25.7632C24.7922 25.4164 25.5571 24.4244 25.5571 23.2571C25.5571 22.0953 24.7996 21.1073 23.7514 20.7561C23.38 17.3859 20.5075 14.7549 17.0297 14.7549H15.6866L15.5241 12.3132H27.2625L26.2031 28.2422ZM29.0872 10.5553H13.6993V8.79478H29.0872V10.5553Z" fill="#FF0000"/>
</g>
<defs>
<clipPath id="clip0_9_12758">
<rect width="30.0885" height="30" fill="white" transform="translate(0.761719)"/>
</clipPath>
</defs>
</svg>
