<svg width="41" height="40" viewBox="0 0 41 40" fill="none" xmlns="http://www.w3.org/2000/svg">
<path d="M10.7767 32.5H29.582C30.5792 32.4989 31.5352 32.1035 32.2403 31.4004C32.9454 30.6974 33.342 29.7442 33.3431 28.75V18.75C33.3431 18.4185 33.211 18.1005 32.9759 17.8661C32.7407 17.6317 32.4219 17.5 32.0894 17.5C31.7569 17.5 31.438 17.6317 31.2029 17.8661C30.9678 18.1005 30.8357 18.4185 30.8357 18.75V28.75C30.8354 29.0814 30.7032 29.3992 30.4682 29.6336C30.2331 29.8679 29.9144 29.9997 29.582 30H10.7767C10.4443 29.9997 10.1256 29.8679 9.89053 29.6336C9.65548 29.3992 9.5233 29.0814 9.523 28.75V11.25C9.5233 10.9186 9.65548 10.6008 9.89053 10.3664C10.1256 10.1321 10.4443 10.0003 10.7767 10H22.0599C22.3924 10 22.7113 9.8683 22.9464 9.63388C23.1815 9.39946 23.3136 9.08152 23.3136 8.75C23.3136 8.41848 23.1815 8.10054 22.9464 7.86612C22.7113 7.6317 22.3924 7.5 22.0599 7.5H10.7767C9.77953 7.50109 8.82352 7.89653 8.11842 8.59956C7.41333 9.30258 7.01672 10.2558 7.01562 11.25V28.75C7.01672 29.7442 7.41333 30.6974 8.11842 31.4004C8.82352 32.1035 9.77953 32.4989 10.7767 32.5Z" fill="#FF0000"/>
<path d="M32.0897 2.5C30.8499 2.5 29.638 2.86656 28.6072 3.55331C27.5763 4.24007 26.7729 5.21619 26.2984 6.35823C25.824 7.50027 25.6999 8.75693 25.9417 9.96931C26.1836 11.1817 26.7806 12.2953 27.6573 13.1694C28.5339 14.0435 29.6509 14.6388 30.8668 14.8799C32.0828 15.1211 33.3431 14.9973 34.4885 14.5242C35.634 14.0512 36.6129 13.2501 37.3017 12.2223C37.9905 11.1945 38.3582 9.98613 38.3582 8.75C38.3562 7.093 37.6951 5.50442 36.52 4.33274C35.3449 3.16106 33.7516 2.50195 32.0897 2.5ZM32.0897 12.5C31.3459 12.5 30.6187 12.2801 30.0002 11.868C29.3817 11.456 28.8996 10.8703 28.615 10.1851C28.3303 9.49984 28.2558 8.74584 28.4009 8.01841C28.5461 7.29098 28.9043 6.6228 29.4303 6.09835C29.9562 5.5739 30.6264 5.21675 31.356 5.07206C32.0855 4.92736 32.8418 5.00162 33.529 5.28545C34.2163 5.56928 34.8037 6.04993 35.2169 6.66661C35.6302 7.2833 35.8508 8.00832 35.8508 8.75C35.8497 9.74423 35.4531 10.6974 34.748 11.4004C34.0429 12.1035 33.0869 12.4989 32.0897 12.5Z" fill="#FF0000"/>
<path d="M13.284 15H19.5524C19.8849 15 20.2038 14.8683 20.4389 14.6339C20.674 14.3995 20.8061 14.0815 20.8061 13.75C20.8061 13.4185 20.674 13.1005 20.4389 12.8661C20.2038 12.6317 19.8849 12.5 19.5524 12.5H13.284C12.9515 12.5 12.6326 12.6317 12.3975 12.8661C12.1624 13.1005 12.0303 13.4185 12.0303 13.75C12.0303 14.0815 12.1624 14.3995 12.3975 14.6339C12.6326 14.8683 12.9515 15 13.284 15Z" fill="#FF0000"/>
<path d="M12.0303 18.75C12.0303 19.0815 12.1624 19.3995 12.3975 19.6339C12.6326 19.8683 12.9515 20 13.284 20H24.5671C24.8996 20 25.2185 19.8683 25.4536 19.6339C25.6887 19.3995 25.8208 19.0815 25.8208 18.75C25.8208 18.4185 25.6887 18.1005 25.4536 17.8661C25.2185 17.6317 24.8996 17.5 24.5671 17.5H13.284C12.9515 17.5 12.6326 17.6317 12.3975 17.8661C12.1624 18.1005 12.0303 18.4185 12.0303 18.75Z" fill="#FF0000"/>
</svg>
