<svg width="19" height="36" viewBox="0 0 19 36" fill="none" xmlns="http://www.w3.org/2000/svg">
<path d="M18.8476 24.36C18.8476 25.64 18.5276 26.8667 17.8876 28.04C17.2476 29.1867 16.3009 30.1467 15.0476 30.92C13.8209 31.6933 12.3409 32.1333 10.6076 32.24V35.48H8.44758V32.24C6.02091 32.0267 4.04758 31.2533 2.52758 29.92C1.00758 28.56 0.234245 26.84 0.207578 24.76H4.08758C4.19424 25.88 4.60758 26.8533 5.32758 27.68C6.07425 28.5067 7.11425 29.0267 8.44758 29.24V19.24C6.66091 18.7867 5.22091 18.32 4.12758 17.84C3.03425 17.36 2.10091 16.6133 1.32758 15.6C0.554245 14.5867 0.167578 13.2267 0.167578 11.52C0.167578 9.36 0.914245 7.57333 2.40758 6.16C3.92758 4.74666 5.94091 3.96 8.44758 3.8V0.479998H10.6076V3.8C12.8742 3.98667 14.7009 4.72 16.0876 6C17.4742 7.25333 18.2742 8.89333 18.4876 10.92H14.6076C14.4742 9.98667 14.0609 9.14667 13.3676 8.4C12.6742 7.62667 11.7542 7.12 10.6076 6.88V16.64C12.3676 17.0933 13.7942 17.56 14.8876 18.04C16.0076 18.4933 16.9409 19.2267 17.6876 20.24C18.4609 21.2533 18.8476 22.6267 18.8476 24.36ZM3.88758 11.32C3.88758 12.6267 4.27425 13.6267 5.04758 14.32C5.82091 15.0133 6.95425 15.5867 8.44758 16.04V6.8C7.06091 6.93333 5.95425 7.38667 5.12758 8.16C4.30091 8.90667 3.88758 9.96 3.88758 11.32ZM10.6076 29.28C12.0476 29.12 13.1676 28.6 13.9676 27.72C14.7942 26.84 15.2076 25.7867 15.2076 24.56C15.2076 23.2533 14.8076 22.2533 14.0076 21.56C13.2076 20.84 12.0742 20.2667 10.6076 19.84V29.28Z" fill="#FF0000"/>
</svg>
