<svg width="29" height="29" viewBox="0 0 29 29" fill="none" xmlns="http://www.w3.org/2000/svg">
<path d="M25.9168 3.71094H2.5835C2.10516 3.71094 1.7085 3.31427 1.7085 2.83594C1.7085 2.3576 2.10516 1.96094 2.5835 1.96094H25.9168C26.3952 1.96094 26.7918 2.3576 26.7918 2.83594C26.7918 3.31427 26.3952 3.71094 25.9168 3.71094Z" fill="#D96A46"/>
<path d="M19.6986 26.562C19.547 26.8654 19.232 27.0404 18.917 27.0404C18.7886 27.0404 18.6486 27.0054 18.532 26.947L14.2503 24.812L9.96863 26.947C9.85197 27.0054 9.71197 27.0404 9.58363 27.0404C9.26863 27.0404 8.95363 26.8654 8.80197 26.562C8.5803 26.1187 8.7553 25.5937 9.19863 25.3837L13.3753 23.2954V20.332H15.1253V23.2954L19.302 25.3837C19.7453 25.5937 19.9203 26.1187 19.6986 26.562Z" fill="#D96A46"/>
<path d="M3.75 2.83203V16.9487C3.75 19.1654 4.91667 20.332 7.13333 20.332H21.3667C23.5833 20.332 24.75 19.1654 24.75 16.9487V2.83203H3.75ZM20.06 10.5087L16.385 13.577C16.0467 13.857 15.615 13.9737 15.2067 13.9037C14.7867 13.8337 14.425 13.577 14.2033 13.2037L12.9783 11.162L9.56 14.0087C9.39667 14.1487 9.19833 14.207 9 14.207C8.755 14.207 8.49833 14.102 8.32333 13.892C8.00833 13.5187 8.06667 12.9704 8.44 12.6554L12.115 9.58703C12.4533 9.30703 12.885 9.19036 13.2933 9.26036C13.7133 9.33036 14.075 9.58703 14.2967 9.96036L15.5217 12.002L18.94 9.15536C19.3133 8.84036 19.8617 8.8987 20.1767 9.27203C20.48 9.64536 20.4333 10.1937 20.06 10.5087Z" fill="#D96A46"/>
</svg>
