<svg width="29" height="29" viewBox="0 0 29 29" fill="none" xmlns="http://www.w3.org/2000/svg">
<path d="M19.2075 28.4974H9.29202C8.86041 28.4974 8.49295 28.1824 8.42762 27.7554L7.26109 20.1721C7.2226 19.9201 7.29492 19.6622 7.46174 19.4686C7.62855 19.2749 7.87002 19.1641 8.12549 19.1641H20.3741C20.6295 19.1641 20.8722 19.2761 21.0378 19.4697C21.2035 19.6634 21.2769 19.9201 21.2384 20.1732L20.0719 27.7566C20.0066 28.1824 19.6391 28.4974 19.2075 28.4974Z" fill="#D96A46"/>
<path d="M14.2496 9.83334C16.8266 9.83334 18.9157 7.744 18.9157 5.16667C18.9157 2.58934 16.8266 0.5 14.2496 0.5C11.6726 0.5 9.5835 2.58934 9.5835 5.16667C9.5835 7.744 11.6726 9.83334 14.2496 9.83334Z" fill="#D96A46"/>
<path d="M27.3348 15.6667C27.1493 13.0802 25.7588 10.6862 23.5809 9.23833C23.5751 8.277 22.7946 7.5 21.8323 7.5C20.8664 7.5 20.0825 8.284 20.0825 9.25C20.0825 10.216 20.8664 11 21.8323 11C22.1519 11 22.447 10.9078 22.7048 10.7585C24.3461 11.889 25.4065 13.7008 25.585 15.6667H23.5121C23.0921 13.03 20.8057 11 18.041 11H10.4586C7.69392 11 5.40752 13.03 4.98757 15.6667H1.12636C0.50693 15.6667 0.10681 16.2943 0.298121 16.845L2.63118 23.2617C2.7595 23.6 3.08613 23.8333 3.45942 23.8333H5.46585L4.95257 20.5317C4.81259 19.5983 5.08089 18.665 5.68749 17.9533C6.20776 17.3292 7.12815 16.8333 8.12554 16.8333H20.3741C21.2548 16.8333 22.1437 17.1962 22.8121 17.9533C23.4187 18.665 23.687 19.5983 23.5471 20.5317L23.0338 23.8333H25.0402C25.4135 23.8333 25.7401 23.6 25.8685 23.2617L28.2015 16.845C28.3858 16.3142 28.0335 15.6667 27.3348 15.6667Z" fill="#D96A46"/>
</svg>
