<svg width="34" height="35" viewBox="0 0 34 35" fill="none" xmlns="http://www.w3.org/2000/svg">
<path d="M16.9997 2.98047C9.19384 2.98047 2.83301 9.3413 2.83301 17.1471C2.83301 24.953 9.19384 31.3138 16.9997 31.3138C24.8055 31.3138 31.1663 24.953 31.1663 17.1471C31.1663 9.3413 24.8055 2.98047 16.9997 2.98047ZM23.7713 13.8888L15.7388 21.9213C15.5405 22.1196 15.2713 22.233 14.988 22.233C14.7047 22.233 14.4355 22.1196 14.2372 21.9213L10.228 17.9121C9.81717 17.5013 9.81717 16.8213 10.228 16.4105C10.6388 15.9996 11.3188 15.9996 11.7297 16.4105L14.988 19.6688L22.2697 12.3871C22.6805 11.9763 23.3605 11.9763 23.7713 12.3871C24.1822 12.798 24.1822 13.4638 23.7713 13.8888Z" fill="#DCE0E5"/>
</svg>
