<svg width="104" height="105" viewBox="0 0 104 105" fill="none" xmlns="http://www.w3.org/2000/svg">
<rect y="0.648438" width="104" height="104" rx="52" fill="#166DFB" fill-opacity="0.3"/>
<path d="M51.9927 16.2305C31.9261 16.2305 15.5742 32.5823 15.5742 52.6489C15.5742 72.7155 31.9261 89.0673 51.9927 89.0673C72.0592 89.0673 88.4111 72.7155 88.4111 52.6489C88.4111 32.5823 72.0592 16.2305 51.9927 16.2305ZM69.4007 44.2727L48.7514 64.9219C48.2416 65.4318 47.5496 65.7231 46.8212 65.7231C46.0929 65.7231 45.4009 65.4318 44.8911 64.9219L34.5846 54.6155C33.5285 53.5594 33.5285 51.8113 34.5846 50.7551C35.6408 49.699 37.3889 49.699 38.445 50.7551L46.8212 59.1314L65.5403 40.4123C66.5964 39.3562 68.3445 39.3562 69.4007 40.4123C70.4568 41.4684 70.4568 43.1801 69.4007 44.2727Z" fill="#166DFB"/>
</svg>
