<svg width="34" height="35" viewBox="0 0 34 35" fill="none" xmlns="http://www.w3.org/2000/svg">
<path d="M17.0007 2.98047C9.19482 2.98047 2.83398 9.3413 2.83398 17.1471C2.83398 24.953 9.19482 31.3138 17.0007 31.3138C24.8065 31.3138 31.1673 24.953 31.1673 17.1471C31.1673 9.3413 24.8065 2.98047 17.0007 2.98047ZM23.7723 13.8888L15.7398 21.9213C15.5415 22.1196 15.2723 22.233 14.989 22.233C14.7057 22.233 14.4365 22.1196 14.2382 21.9213L10.229 17.9121C9.81815 17.5013 9.81815 16.8213 10.229 16.4105C10.6398 15.9996 11.3198 15.9996 11.7306 16.4105L14.989 19.6688L22.2707 12.3871C22.6815 11.9763 23.3615 11.9763 23.7723 12.3871C24.1832 12.798 24.1832 13.4638 23.7723 13.8888Z" fill="#166DFB"/>
</svg>
