<svg width="24" height="25" viewBox="0 0 24 25" fill="none" xmlns="http://www.w3.org/2000/svg">
<path d="M21 6.12891C17.67 5.79891 14.32 5.62891 10.98 5.62891C9 5.62891 7.02 5.72891 5.04 5.92891L3 6.12891" stroke="#D96A46" stroke-width="1.5" stroke-linecap="round" stroke-linejoin="round"/>
<path d="M8.5 5.11844L8.72 3.80844C8.88 2.85844 9 2.14844 10.69 2.14844H13.31C15 2.14844 15.13 2.89844 15.28 3.81844L15.5 5.11844" stroke="#D96A46" stroke-width="1.5" stroke-linecap="round" stroke-linejoin="round"/>
<path d="M18.8504 9.28906L18.2004 19.3591C18.0904 20.9291 18.0004 22.1491 15.2104 22.1491H8.79039C6.00039 22.1491 5.91039 20.9291 5.80039 19.3591L5.15039 9.28906" stroke="#D96A46" stroke-width="1.5" stroke-linecap="round" stroke-linejoin="round"/>
<path d="M10.3301 16.6484H13.6601" stroke="#D96A46" stroke-width="1.5" stroke-linecap="round" stroke-linejoin="round"/>
<path d="M9.5 12.6484H14.5" stroke="#D96A46" stroke-width="1.5" stroke-linecap="round" stroke-linejoin="round"/>
</svg>
