<svg width="26" height="26" viewBox="0 0 26 26" fill="none" xmlns="http://www.w3.org/2000/svg">
<path d="M5.41699 15.7994H6.22949C6.22941 15.6414 6.18325 15.4868 6.09666 15.3546C6.01008 15.2224 5.88682 15.1184 5.74199 15.0552L5.41699 15.7994ZM20.5837 15.7994L20.2587 15.0552C20.1138 15.1184 19.9906 15.2224 19.904 15.3546C19.8174 15.4868 19.7712 15.6414 19.7712 15.7994H20.5837ZM17.0628 7.58342C17.0628 7.7989 17.1484 8.00557 17.3008 8.15794C17.4532 8.31031 17.6598 8.39592 17.8753 8.39592C18.0908 8.39592 18.2975 8.31031 18.4499 8.15794C18.6022 8.00557 18.6878 7.7989 18.6878 7.58342H17.0628ZM7.31283 7.58342C7.31283 7.7989 7.39843 8.00557 7.5508 8.15794C7.70317 8.31031 7.90984 8.39592 8.12533 8.39592C8.34081 8.39592 8.54748 8.31031 8.69985 8.15794C8.85222 8.00557 8.93783 7.7989 8.93783 7.58342H7.31283ZM15.167 23.0209C14.9515 23.0209 14.7448 23.1065 14.5925 23.2589C14.4401 23.4113 14.3545 23.6179 14.3545 23.8334C14.3545 24.0489 14.4401 24.2556 14.5925 24.4079C14.7448 24.5603 14.9515 24.6459 15.167 24.6459V23.0209ZM10.8337 24.6459C11.0491 24.6459 11.2558 24.5603 11.4082 24.4079C11.5606 24.2556 11.6462 24.0489 11.6462 23.8334C11.6462 23.6179 11.5606 23.4113 11.4082 23.2589C11.2558 23.1065 11.0491 23.0209 10.8337 23.0209V24.6459ZM7.58366 4.60425C5.93158 4.60425 4.34717 5.26053 3.17897 6.42873C2.01078 7.59692 1.35449 9.18134 1.35449 10.8334H2.97949C2.97949 9.61231 3.46457 8.44123 4.32802 7.57778C5.19147 6.71433 6.36256 6.22925 7.58366 6.22925V4.60425ZM18.417 6.22925C19.6381 6.22925 20.8092 6.71433 21.6726 7.57778C22.5361 8.44123 23.0212 9.61231 23.0212 10.8334H24.6462C24.6462 9.18134 23.9899 7.59692 22.8217 6.42873C21.6535 5.26053 20.0691 4.60425 18.417 4.60425V6.22925ZM9.75033 23.0209C8.70599 23.0209 8.00399 23.0187 7.48074 22.9483C6.98133 22.8812 6.76683 22.7652 6.62599 22.6233L5.47766 23.7738C5.97058 24.2667 6.58483 24.4672 7.26516 24.5592C7.92166 24.6481 8.75149 24.6459 9.75033 24.6459V23.0209ZM4.60449 19.5001C4.60449 20.4989 4.60233 21.3287 4.69116 21.9852C4.78216 22.6656 4.98366 23.2798 5.47658 23.7727L6.62599 22.6244C6.48516 22.4836 6.36924 22.2691 6.30099 21.7686C6.23166 21.2464 6.22949 20.5444 6.22949 19.5001H4.60449ZM19.7712 19.5001C19.7712 20.5444 19.769 21.2464 19.6986 21.7697C19.6314 22.2691 19.5155 22.4836 19.3736 22.6244L20.5241 23.7727C21.017 23.2798 21.2174 22.6656 21.3095 21.9852C21.3983 21.3287 21.3962 20.4989 21.3962 19.5001H19.7712ZM16.2503 24.6459C17.2492 24.6459 18.079 24.6481 18.7355 24.5592C19.4158 24.4682 20.0312 24.2667 20.5241 23.7727L19.3747 22.6244C19.2338 22.7652 19.0193 22.8812 18.5188 22.9494C17.9967 23.0187 17.2947 23.0209 16.2503 23.0209V24.6459ZM7.58366 6.22925C7.81477 6.22925 8.04155 6.24586 8.26399 6.27908L8.50124 4.67141C8.19735 4.62738 7.89072 4.60494 7.58366 4.60425V6.22925ZM13.0003 1.35425C11.8116 1.35393 10.6526 1.72608 9.68631 2.41842C8.71999 3.11075 7.99489 4.08847 7.61291 5.21417L9.15124 5.73633C9.42414 4.93211 9.94221 4.23364 10.6326 3.7391C11.323 3.24456 12.1511 2.97882 13.0003 2.97925V1.35425ZM7.61291 5.21417C7.41464 5.80311 7.31329 6.42033 7.31283 7.04175H8.93783C8.93783 6.5835 9.01366 6.14475 9.15233 5.73633L7.61291 5.21417ZM18.417 4.60425C18.1057 4.60425 17.7999 4.62664 17.4994 4.67141L17.7377 6.27908C17.9625 6.24468 18.1896 6.22801 18.417 6.22925V4.60425ZM13.0003 2.97925C13.8494 2.97905 14.6772 3.24489 15.3674 3.73941C16.0576 4.23394 16.5755 4.93229 16.8483 5.73633L18.3867 5.21417C18.0047 4.08864 17.2798 3.11105 16.3137 2.41873C15.3476 1.72641 14.1889 1.35415 13.0003 1.35425V2.97925ZM16.8483 5.73633C16.987 6.14475 17.0628 6.5835 17.0628 7.04175H18.6878C18.6878 6.40367 18.5817 5.78942 18.3867 5.21417L16.8483 5.73633ZM6.22949 19.5001V15.7994H4.60449V19.5001H6.22949ZM5.74199 15.0552C4.92061 14.6967 4.22171 14.1063 3.731 13.3564C3.24029 12.6064 2.97911 11.7296 2.97949 10.8334H1.35449C1.35427 12.0457 1.70777 13.2316 2.37166 14.2459C3.03554 15.2602 3.98095 16.0588 5.09199 16.5437L5.74199 15.0552ZM19.7712 15.7994V19.5001H21.3962V15.7994H19.7712ZM23.0212 10.8334C23.0215 11.7296 22.7604 12.6064 22.2697 13.3564C21.7789 14.1063 21.08 14.6967 20.2587 15.0552L20.9087 16.5437C22.0197 16.0588 22.9651 15.2602 23.629 14.2459C24.2929 13.2316 24.6464 12.0457 24.6462 10.8334H23.0212ZM17.0628 7.04175V7.58342H18.6878V7.04175H17.0628ZM7.31283 7.04175V7.58342H8.93783V7.04175H7.31283ZM16.2503 23.0209H15.167V24.6459H16.2503V23.0209ZM10.8337 23.0209H9.75033V24.6459H10.8337V23.0209Z" fill="#9B9B9B"/>
<path d="M5.41699 19.5001H14.0837M20.5837 19.5001H18.417" stroke="#9B9B9B" stroke-width="1.5" stroke-linecap="round" stroke-linejoin="round"/>
</svg>
