<svg width="28" height="28" viewBox="0 0 28 28" fill="none" xmlns="http://www.w3.org/2000/svg">
<path d="M11.375 14.875C12.0672 14.875 12.7439 14.6697 13.3195 14.2851C13.8951 13.9006 14.3437 13.3539 14.6086 12.7144C14.8735 12.0749 14.9428 11.3711 14.8077 10.6922C14.6727 10.0133 14.3394 9.38961 13.8499 8.90013C13.3604 8.41064 12.7367 8.0773 12.0578 7.94225C11.3789 7.8072 10.6751 7.87652 10.0356 8.14142C9.39607 8.40633 8.84944 8.85493 8.46486 9.43051C8.08027 10.0061 7.875 10.6828 7.875 11.375C7.8759 12.303 8.24494 13.1927 8.90112 13.8489C9.55731 14.5051 10.447 14.8741 11.375 14.875ZM11.375 9.625C11.7211 9.625 12.0595 9.72764 12.3472 9.91993C12.635 10.1122 12.8593 10.3855 12.9918 10.7053C13.1242 11.0251 13.1589 11.3769 13.0914 11.7164C13.0239 12.0559 12.8572 12.3677 12.6124 12.6124C12.3677 12.8572 12.0559 13.0239 11.7164 13.0914C11.3769 13.1589 11.0251 13.1242 10.7053 12.9918C10.3855 12.8593 10.1122 12.635 9.91993 12.3472C9.72764 12.0595 9.625 11.7211 9.625 11.375C9.62563 10.9111 9.8102 10.4663 10.1383 10.1383C10.4663 9.8102 10.9111 9.62563 11.375 9.625Z" fill="#9B9B9B"/>
<path d="M25.0455 17.1237C25.3344 16.7369 25.5273 16.287 25.6086 15.8111C25.6899 15.3352 25.6571 14.8467 25.5129 14.3859L24.9575 12.5787C24.6967 11.7216 24.1665 10.9713 23.4457 10.4392C22.7249 9.90717 21.8517 9.62164 20.9558 9.62498H17.0295C16.7975 9.62498 16.5749 9.71717 16.4108 9.88127C16.2467 10.0454 16.1545 10.2679 16.1545 10.5C16.1545 10.732 16.2467 10.9546 16.4108 11.1187C16.5749 11.2828 16.7975 11.375 17.0295 11.375H20.9558C21.4771 11.3732 21.9852 11.5395 22.4046 11.8491C22.824 12.1588 23.1325 12.5954 23.2842 13.0942L23.8397 14.9006C23.901 15.0999 23.9147 15.3107 23.8797 15.5162C23.8446 15.7218 23.7619 15.9162 23.6381 16.0839C23.5143 16.2516 23.3528 16.3879 23.1667 16.4819C22.9806 16.5759 22.7751 16.6249 22.5666 16.625H14.5438C14.5191 16.625 14.4983 16.637 14.4738 16.6391C14.415 16.6368 14.3583 16.625 14.2986 16.625H8.81233C7.83999 16.6214 6.89242 16.9315 6.11029 17.5092C5.32816 18.0869 4.75317 18.9015 4.47067 19.8319L3.81739 21.9537C3.6648 22.4503 3.63083 22.9757 3.71822 23.4878C3.80561 23.9999 4.01192 24.4843 4.32056 24.9022C4.6292 25.32 5.03157 25.6597 5.49532 25.8937C5.95907 26.1278 6.47128 26.2498 6.99076 26.25H16.1195C16.6391 26.2499 17.1513 26.1279 17.6151 25.8939C18.0789 25.6598 18.4813 25.3202 18.79 24.9023C19.0987 24.4845 19.305 24 19.3924 23.4879C19.4798 22.9758 19.4459 22.4503 19.2933 21.9537L18.6404 19.832C18.475 19.3037 18.2147 18.8099 17.8721 18.375H22.5666C23.0493 18.3772 23.5256 18.265 23.9565 18.0475C24.3874 17.83 24.7606 17.5134 25.0455 17.1237ZM17.3824 23.8623C17.2373 24.0608 17.0472 24.2221 16.8277 24.333C16.6081 24.4438 16.3655 24.5011 16.1195 24.5H6.99076C6.74506 24.5 6.50279 24.4423 6.28344 24.3316C6.0641 24.2208 5.8738 24.0602 5.72785 23.8625C5.5819 23.6649 5.48437 23.4357 5.44312 23.1935C5.40186 22.9513 5.41802 22.7028 5.49031 22.468L6.14314 20.3463C6.31658 19.7742 6.66996 19.2734 7.15077 18.9183C7.63158 18.5631 8.21415 18.3726 8.81189 18.375H14.2981C14.8959 18.3726 15.4784 18.5631 15.9593 18.9183C16.4401 19.2734 16.7934 19.7742 16.9669 20.3463L17.6197 22.468C17.6933 22.7026 17.7102 22.9514 17.669 23.1938C17.6277 23.4363 17.5295 23.6655 17.3824 23.8625V23.8623Z" fill="#9B9B9B"/>
<path d="M18.8125 7.87499C19.4182 7.87499 20.0103 7.69538 20.5139 7.35887C21.0176 7.02236 21.4101 6.54406 21.6419 5.98446C21.8737 5.42487 21.9343 4.8091 21.8161 4.21503C21.698 3.62097 21.4063 3.07528 20.978 2.64699C20.5497 2.21869 20.004 1.92701 19.41 1.80885C18.8159 1.69068 18.2001 1.75133 17.6405 1.98312C17.0809 2.21491 16.6026 2.60744 16.2661 3.11107C15.9296 3.61469 15.75 4.20679 15.75 4.8125C15.751 5.62442 16.0739 6.40282 16.6481 6.97694C17.2222 7.55105 18.0006 7.87402 18.8125 7.87499ZM18.8125 3.5C19.0721 3.5 19.3258 3.57698 19.5417 3.7212C19.7575 3.86541 19.9257 4.0704 20.0251 4.31023C20.1244 4.55005 20.1504 4.81395 20.0998 5.06855C20.0491 5.32315 19.9241 5.55702 19.7406 5.74057C19.557 5.92413 19.3232 6.04913 19.0686 6.09978C18.814 6.15042 18.5501 6.12443 18.3102 6.02509C18.0704 5.92575 17.8654 5.75752 17.7212 5.54168C17.577 5.32584 17.5 5.07209 17.5 4.8125C17.5004 4.46452 17.6388 4.13091 17.8849 3.88486C18.1309 3.6388 18.4645 3.50039 18.8125 3.5Z" fill="#9B9B9B"/>
</svg>
