<svg width="28" height="28" viewBox="0 0 28 28" fill="none" xmlns="http://www.w3.org/2000/svg">
<path d="M20.125 26.25C20.821 26.2492 21.4882 25.9724 21.9803 25.4803C22.4724 24.9882 22.7492 24.321 22.75 23.625V20.084C22.75 19.8519 22.6578 19.6293 22.4937 19.4652C22.3296 19.3011 22.1071 19.209 21.875 19.209C21.6429 19.209 21.4204 19.3011 21.2563 19.4652C21.0922 19.6293 21 19.8519 21 20.084V23.625C20.9998 23.857 20.9075 24.0794 20.7435 24.2435C20.5794 24.4075 20.357 24.4998 20.125 24.5H4.375C4.143 24.4998 3.92056 24.4075 3.75651 24.2435C3.59246 24.0794 3.50021 23.857 3.5 23.625V4.375C3.50021 4.143 3.59246 3.92056 3.75651 3.75651C3.92056 3.59246 4.143 3.50021 4.375 3.5H20.125C20.357 3.50021 20.5794 3.59246 20.7435 3.75651C20.9075 3.92056 20.9998 4.143 21 4.375V7.0735C21 7.30556 21.0922 7.52812 21.2563 7.69222C21.4204 7.85631 21.6429 7.9485 21.875 7.9485C22.1071 7.9485 22.3296 7.85631 22.4937 7.69222C22.6578 7.52812 22.75 7.30556 22.75 7.0735V4.375C22.7492 3.67904 22.4724 3.01181 21.9803 2.51969C21.4882 2.02757 20.821 1.75076 20.125 1.75H4.375C3.67904 1.75076 3.01181 2.02757 2.51969 2.51969C2.02757 3.01181 1.75076 3.67904 1.75 4.375V23.625C1.75076 24.321 2.02757 24.9882 2.51969 25.4803C3.01181 25.9724 3.67904 26.2492 4.375 26.25H20.125Z" fill="#9B9B9B"/>
<path d="M6.125 16.625C5.89294 16.625 5.67038 16.7172 5.50628 16.8813C5.34219 17.0454 5.25 17.2679 5.25 17.5C5.25 17.7321 5.34219 17.9546 5.50628 18.1187C5.67038 18.2828 5.89294 18.375 6.125 18.375H9.625C9.85706 18.375 10.0796 18.2828 10.2437 18.1187C10.4078 17.9546 10.5 17.7321 10.5 17.5C10.5 17.2679 10.4078 17.0454 10.2437 16.8813C10.0796 16.7172 9.85706 16.625 9.625 16.625H6.125Z" fill="#9B9B9B"/>
<path d="M23.2806 9.24473C23.1165 9.08069 22.894 8.98854 22.662 8.98854C22.43 8.98854 22.2074 9.08069 22.0433 9.24473L13.3814 17.9067C13.3001 17.9879 13.2356 18.0844 13.1916 18.1905C13.1476 18.2967 13.125 18.4105 13.125 18.5254V20.125H6.125C5.89294 20.125 5.67038 20.2172 5.50628 20.3813C5.34219 20.5454 5.25 20.7679 5.25 21C5.25 21.2321 5.34219 21.4546 5.50628 21.6187C5.67038 21.7828 5.89294 21.875 6.125 21.875H16.475C16.7071 21.875 16.9296 21.7827 17.0936 21.6186L25.7561 12.9567C25.9202 12.7926 26.0123 12.57 26.0123 12.338C26.0123 12.106 25.9202 11.8835 25.7561 11.7194L23.2806 9.24473ZM16.1128 20.125H14.875V18.8877L22.662 11.1007L23.8997 12.338L16.1128 20.125Z" fill="#9B9B9B"/>
<path d="M13.125 9.18747C13.125 8.40871 12.8941 7.64743 12.4614 6.99991C12.0288 6.35239 11.4138 5.84772 10.6943 5.5497C9.97483 5.25168 9.18313 5.1737 8.41933 5.32563C7.65553 5.47756 6.95394 5.85257 6.40327 6.40324C5.8526 6.95391 5.47759 7.6555 5.32566 8.4193C5.17373 9.1831 5.25171 9.9748 5.54973 10.6943C5.84775 11.4138 6.35243 12.0287 6.99994 12.4614C7.64746 12.894 8.40874 13.125 9.1875 13.125C10.2314 13.1238 11.2323 12.7086 11.9705 11.9704C12.7086 11.2323 13.1238 10.2314 13.125 9.18747ZM9.1875 11.375C8.75486 11.375 8.33192 11.2467 7.97219 11.0063C7.61246 10.7659 7.33208 10.4243 7.16651 10.0246C7.00095 9.62488 6.95763 9.18504 7.04203 8.76071C7.12644 8.33638 7.33478 7.9466 7.64071 7.64068C7.94663 7.33475 8.33641 7.12641 8.76074 7.042C9.18507 6.9576 9.62491 7.00092 10.0246 7.16648C10.4243 7.33205 10.766 7.61243 11.0063 7.97216C11.2467 8.33189 11.375 8.75482 11.375 9.18747C11.3744 9.76745 11.1437 10.3235 10.7336 10.7336C10.3235 11.1437 9.76748 11.3744 9.1875 11.375Z" fill="#9B9B9B"/>
</svg>
