<svg width="28" height="28" viewBox="0 0 28 28" fill="none" xmlns="http://www.w3.org/2000/svg">
<path d="M14 7L15.673 10.2401L19.25 10.7599L16.625 13.125L17.5 16.625L14 14.6562L10.5 16.625L11.375 13.125L8.75 10.7599L12.425 10.2401L14 7Z" fill="#9B9B9B"/>
<path d="M15.519 26.25L14 25.375L17.5 19.25H22.75C22.9799 19.2503 23.2076 19.2053 23.4201 19.1175C23.6326 19.0297 23.8256 18.9008 23.9882 18.7382C24.1508 18.5756 24.2797 18.3826 24.3675 18.1701C24.4553 17.9576 24.5003 17.7299 24.5 17.5V7C24.5003 6.77009 24.4553 6.54237 24.3675 6.3299C24.2797 6.11742 24.1508 5.92436 23.9882 5.76179C23.8256 5.59922 23.6326 5.47033 23.4201 5.38251C23.2076 5.29468 22.9799 5.24965 22.75 5.25H5.25C5.02009 5.24965 4.79237 5.29468 4.5799 5.38251C4.36742 5.47033 4.17436 5.59922 4.01179 5.76179C3.84922 5.92436 3.72033 6.11742 3.63251 6.3299C3.54468 6.54237 3.49965 6.77009 3.5 7V17.5C3.49965 17.7299 3.54468 17.9576 3.63251 18.1701C3.72033 18.3826 3.84922 18.5756 4.01179 18.7382C4.17436 18.9008 4.36742 19.0297 4.5799 19.1175C4.79237 19.2053 5.02009 19.2503 5.25 19.25H13.125V21H5.25C4.32174 21 3.4315 20.6313 2.77513 19.9749C2.11875 19.3185 1.75 18.4283 1.75 17.5V7C1.75 6.07174 2.11875 5.1815 2.77513 4.52513C3.4315 3.86875 4.32174 3.5 5.25 3.5H22.75C23.6783 3.5 24.5685 3.86875 25.2249 4.52513C25.8813 5.1815 26.25 6.07174 26.25 7V17.5C26.25 18.4283 25.8813 19.3185 25.2249 19.9749C24.5685 20.6313 23.6783 21 22.75 21H18.5194L15.519 26.25Z" fill="#9B9B9B"/>
</svg>
