<svg width="32" height="32" viewBox="0 0 32 32" fill="none" xmlns="http://www.w3.org/2000/svg">
<path d="M21.708 13.708C21.8958 13.5202 22.0013 13.2656 22.0013 13C22.0013 12.7345 21.8958 12.4798 21.708 12.292C21.5202 12.1042 21.2656 11.9987 21 11.9987C20.7344 11.9987 20.4798 12.1042 20.292 12.292L15 17.586L12.708 15.292C12.615 15.199 12.5046 15.1253 12.3832 15.075C12.2617 15.0246 12.1315 14.9987 12 14.9987C11.8685 14.9987 11.7383 15.0246 11.6168 15.075C11.4954 15.1253 11.385 15.199 11.292 15.292C11.199 15.385 11.1253 15.4954 11.075 15.6168C11.0246 15.7383 10.9987 15.8685 10.9987 16C10.9987 16.1315 11.0246 16.2617 11.075 16.3832C11.1253 16.5047 11.199 16.615 11.292 16.708L14.292 19.708C14.3849 19.8011 14.4952 19.875 14.6167 19.9254C14.7382 19.9758 14.8685 20.0018 15 20.0018C15.1315 20.0018 15.2618 19.9758 15.3833 19.9254C15.5048 19.875 15.6151 19.8011 15.708 19.708L21.708 13.708ZM16.708 4.29401C16.5205 4.10654 16.2662 4.00122 16.001 4.00122C15.7358 4.00122 15.4815 4.10654 15.294 4.29401C12.808 6.77601 10.06 8.00001 7 8.00001C6.73478 8.00001 6.48043 8.10536 6.29289 8.2929C6.10536 8.48044 6 8.73479 6 9.00001V15.002C6 21.44 9.282 25.816 15.684 27.948C15.8891 28.0163 16.1109 28.0163 16.316 27.948C22.716 25.816 26 21.44 26 15.002V9.00001C26 8.73479 25.8946 8.48044 25.7071 8.2929C25.5196 8.10536 25.2652 8.00001 25 8.00001C21.938 8.00001 19.188 6.78001 16.708 4.29401ZM8 9.96001C10.96 9.73601 13.628 8.50801 16 6.37601C18.37 8.50801 21.04 9.73601 24 9.96001V15C24 17.868 23.274 20.13 21.958 21.888C20.682 23.592 18.74 24.974 16 25.942C13.26 24.976 11.318 23.592 10.042 21.888C8.726 20.13 8 17.87 8 15.002V9.96001Z" fill="#9B9B9B"/>
</svg>
